<svg width="30" height="27" viewBox="0 0 30 27" fill="none" xmlns="http://www.w3.org/2000/svg">
<path opacity="0.75" d="M29.9726 18.8116C29.9372 17.0984 29.0371 15.9374 27.5333 15.2555C27.2505 15.1287 26.8209 15.2161 26.6931 14.9456C26.5652 14.6723 26.6387 14.2834 26.6604 13.9481C26.6767 13.6663 26.6088 13.5705 26.3151 13.5705C25.9887 13.5705 25.8283 13.6325 25.88 14.0101C25.9099 14.227 25.8664 14.4525 25.8908 14.6723C25.9208 14.9428 25.8011 15.0273 25.5672 15.0639C24.6644 15.202 23.9193 15.6416 23.3048 16.3376C23.2612 16.3855 23.2368 16.4813 23.1198 16.4418C23.1198 14.4468 23.128 12.449 23.1117 10.4512C23.109 10.1103 23.1878 9.96939 23.5223 10.0342C23.8377 10.0934 23.9601 9.98348 23.9465 9.62281C23.9356 9.32412 23.8731 9.18323 23.574 9.24522C23.1878 9.32412 23.0736 9.15506 23.1144 8.76902C23.147 8.47316 23.1198 8.17165 23.1198 7.87297C23.1198 7.06991 23.1198 7.06145 22.3611 7.05863C22.1436 7.05863 22.0539 7.01637 22.0566 6.76277C22.0702 5.77655 22.0702 4.78751 22.0566 3.80129C22.0566 3.56741 22.1137 3.46316 22.3503 3.49415C22.4482 3.50824 22.5515 3.48288 22.6494 3.49979C22.9648 3.55051 23.079 3.44907 23.0736 3.08839C23.0682 2.75308 22.9703 2.64882 22.6684 2.69954C22.5705 2.71645 22.4672 2.69109 22.3693 2.70518C22.1246 2.74181 22.0457 2.646 22.0566 2.38677C22.0838 1.85985 21.9152 1.36674 21.461 1.12723C21.0994 0.935617 21.0722 0.69047 21.0885 0.357973C21.0939 0.250898 21.1483 0.067743 21.0314 0.042383C20.8274 -0.00270131 20.5963 -0.0139724 20.4005 0.0452008C20.2564 0.0874674 20.3271 0.301618 20.3352 0.431235C20.3543 0.738373 20.2944 0.932799 19.9899 1.09905C19.5385 1.34701 19.3372 1.81194 19.3699 2.3445C19.3862 2.63473 19.3073 2.75871 19.0218 2.69954C18.7254 2.64037 18.6656 2.78407 18.6792 3.06303C18.69 3.32509 18.6601 3.57023 19.0327 3.49697C19.2883 3.44625 19.3753 3.55051 19.3699 3.82947C19.3508 4.72552 19.3617 5.62157 19.3617 6.51762C19.3617 7.04173 19.3617 7.05582 18.8505 7.04455C18.6112 7.03891 18.5214 7.09808 18.5323 7.36295C18.5541 7.88142 18.5269 8.40271 18.5432 8.92118C18.5513 9.16633 18.4942 9.28467 18.2386 9.24241C17.9694 9.19732 17.8416 9.27059 17.8525 9.60308C17.8634 9.91585 17.8933 10.1018 18.2549 10.037C18.3556 10.0201 18.5323 9.96094 18.535 10.1779C18.5405 10.6597 18.535 11.1416 18.535 11.7192C17.8117 10.7161 16.9524 10.1046 15.8728 9.91304C15.4214 9.83414 15.3126 9.66226 15.3697 9.24804C15.3833 9.14942 15.4323 9.01135 15.2909 8.94091C14.9455 8.77184 14.5974 8.98599 14.6165 9.37202C14.6328 9.69325 14.5757 9.90458 14.2086 9.87359C14.1623 9.87077 14.1107 9.89613 14.0617 9.9074C13.0093 10.1497 12.1718 10.7415 11.4593 11.6882C11.4593 11.1867 11.4756 10.7781 11.4539 10.3695C11.4403 10.1018 11.5137 9.97503 11.7829 10.0286C12.15 10.1018 12.1283 9.86513 12.1391 9.59745C12.15 9.31285 12.082 9.1776 11.7911 9.23677C11.4919 9.29876 11.4403 9.1466 11.4539 8.87328C11.4756 8.44498 11.4593 8.01668 11.4593 7.58838C11.4593 7.053 11.4593 7.03327 10.9589 7.053C10.6924 7.06427 10.6245 6.97974 10.6272 6.70641C10.6435 5.74555 10.6435 4.78469 10.6272 3.82383C10.6217 3.54206 10.7115 3.44062 10.9644 3.49134C11.2961 3.55614 11.3206 3.36735 11.3152 3.09685C11.3125 2.84043 11.3206 2.62064 10.9725 2.69391C10.6897 2.75308 10.6054 2.6291 10.6245 2.33887C10.6571 1.8204 10.4776 1.34983 10.0344 1.12159C9.66726 0.932799 9.64822 0.679199 9.66182 0.346702C9.66454 0.239627 9.72165 0.0621074 9.59656 0.0367475C9.3926 -0.00551909 9.16146 -0.0196079 8.96567 0.0395653C8.8297 0.0818318 8.93032 0.295982 8.9004 0.428418C8.85689 0.620026 9.01734 0.856719 8.72365 0.997608C8.16074 1.26248 7.91872 1.76122 7.93776 2.38395C7.94592 2.646 7.86162 2.73054 7.62231 2.69954C7.52442 2.68545 7.42108 2.71081 7.32319 2.69391C7.01862 2.64319 6.92616 2.75308 6.918 3.08558C6.90985 3.44907 7.02678 3.54487 7.34222 3.49415C7.42924 3.48006 7.51898 3.50261 7.606 3.48852C7.86977 3.44907 7.94592 3.56178 7.94048 3.83229C7.92416 4.62408 7.93504 5.41587 7.93504 6.20767C7.93504 7.01919 7.93504 7.02764 7.14915 7.03891C6.94248 7.04173 6.86362 7.09245 6.87178 7.32069C6.88809 7.79971 6.85002 8.28436 6.88537 8.76057C6.91528 9.15224 6.80651 9.30158 6.42308 9.24241C6.31159 9.2255 6.14027 9.15224 6.07229 9.34666C5.92544 9.76369 6.09948 10.0455 6.52098 10.0173C6.83098 9.99757 6.88809 10.1159 6.88537 10.409C6.87449 12.3307 6.87993 14.2524 6.87721 16.1741C6.87721 16.2671 6.92616 16.377 6.81739 16.4728C6.15659 15.6726 5.33535 15.1682 4.32375 15.0301C4.14156 15.0048 4.10349 14.9174 4.10892 14.7483C4.1198 14.4384 4.11436 14.1256 4.10892 13.8128C4.10892 13.717 4.1334 13.6156 3.98655 13.5761C3.53786 13.4522 3.34207 13.5902 3.34207 14.0552C3.34207 14.2749 3.32575 14.4976 3.34751 14.7173C3.37198 14.9653 3.27409 15.0386 3.04566 15.0893C1.38414 15.4528 0.0652642 16.9293 0.0326321 18.6143C-0.0190354 21.3137 0.0108774 24.016 0 26.7154C0 26.9239 0.0761416 26.9803 0.263776 26.9803C0.802206 26.9775 1.34064 26.9972 1.87906 26.9972C5.55018 26.9916 9.22129 26.9803 12.8897 26.9803C14.9074 26.9803 16.9252 27 18.9429 27C20.5201 27 22.1001 26.9662 23.6773 26.9859C25.6815 27.0113 27.6856 26.9916 29.6898 26.9859C29.9073 26.9859 29.9971 26.9352 29.9971 26.6844C29.9862 24.0611 30.0242 21.4377 29.9699 18.8144L29.9726 18.8116ZM3.74725 15.805C4.84043 15.7768 5.7079 16.2558 6.39589 17.2505C5.9608 17.2505 5.60184 17.2505 5.24561 17.2505C4.97911 17.2505 5.06341 17.0364 5.07973 16.9152C5.12596 16.5771 4.96008 16.5433 4.6963 16.5489C4.44612 16.5545 4.24489 16.5545 4.31016 16.9067C4.3591 17.1688 4.26393 17.2843 3.98927 17.2561C3.77988 17.2336 3.56506 17.259 3.35295 17.2646H2.49636C2.11293 17.2646 1.7295 17.2646 1.26177 17.2646C1.90354 16.3066 2.72206 15.836 3.74997 15.8106L3.74725 15.805ZM5.09333 26.1631C4.25577 26.1462 3.41821 26.149 2.57794 26.1631C2.33863 26.1659 2.25705 26.104 2.26249 25.8447C2.28153 25.1572 2.26793 24.4696 2.26793 23.7849C2.26793 23.1509 2.25977 22.5141 2.26793 21.8801C2.28153 20.9643 2.98856 20.212 3.81524 20.212C4.63648 20.212 5.35438 20.9784 5.36254 21.8914C5.37342 23.2129 5.36254 24.5345 5.3707 25.8588C5.3707 26.0842 5.33263 26.1744 5.08789 26.1688L5.09333 26.1631ZM6.54817 26.1829C6.2844 26.1631 6.11852 26.1744 6.12668 25.8025C6.15115 24.4668 6.14571 23.1284 6.1294 21.7928C6.1158 20.6657 5.27824 19.6597 4.22042 19.454C2.81724 19.1807 1.52011 20.3444 1.49564 21.9224C1.4766 23.2073 1.49564 24.4922 1.48748 25.7771C1.48748 25.9067 1.57178 26.1068 1.40318 26.1519C1.22914 26.2026 1.02247 26.1941 0.845715 26.1519C0.720625 26.1209 0.780451 25.949 0.780451 25.8391C0.777732 24.6584 0.780451 23.4778 0.780451 22.2971H0.78589C0.78589 21.1419 0.777732 19.9866 0.788609 18.8313C0.796767 18.0451 0.807644 18.0479 1.55818 18.0479C3.18707 18.0479 4.81595 18.0536 6.44484 18.0423C6.68958 18.0423 6.82283 18.0987 6.83099 18.3692C6.83642 18.5495 6.87993 18.7298 6.87993 18.9102C6.88265 21.2067 6.87993 23.506 6.88809 25.8025C6.88809 26.0617 6.86906 26.2054 6.55633 26.1857L6.54817 26.1829ZM8.70461 3.7872C8.69917 3.57869 8.75356 3.49415 8.97383 3.48852C9.87393 3.45752 9.87393 3.44907 9.87393 4.3733C9.87393 5.16509 9.86849 5.95407 9.87665 6.74586C9.87665 6.95438 9.83586 7.03891 9.61015 7.04455C8.71005 7.07272 8.71005 7.08118 8.70733 6.15977C8.70733 5.84981 8.70733 5.53704 8.70733 5.22708C8.70733 4.74806 8.71549 4.26622 8.70461 3.7872ZM9.02821 1.73305C9.29199 1.59779 9.53673 1.64569 9.73252 1.87675C9.90384 2.07963 9.87937 2.33041 9.87121 2.57556C9.86577 2.71081 9.76515 2.69391 9.68085 2.69672C9.54489 2.69954 9.40892 2.69672 9.27023 2.69672C9.24576 2.69672 9.21857 2.70518 9.19681 2.69672C9.03909 2.6291 8.759 2.86579 8.71549 2.53329C8.6747 2.22334 8.69917 1.89929 9.02549 1.73305H9.02821ZM10.4423 26.1716C9.59112 26.1659 8.73724 26.1716 7.88609 26.1688C7.80451 26.1688 7.72021 26.1828 7.68214 26.056C7.5788 25.7179 7.70933 25.3685 8.0275 25.1994C8.78347 24.7965 9.53945 24.3907 10.2981 23.9934C10.4069 23.9371 10.5048 23.8469 10.668 23.8582C10.668 24.557 10.6653 25.2586 10.6707 25.9574C10.6707 26.1349 10.5973 26.1744 10.445 26.1744L10.4423 26.1716ZM10.4722 23.0044C9.61559 23.4524 8.759 23.9033 7.90784 24.3654C7.71749 24.4696 7.67398 24.4133 7.6767 24.2132C7.68486 23.7596 7.6767 23.3059 7.6767 22.7649C7.71205 22.3394 7.48635 21.7251 7.75828 21.3391C8.0139 20.9728 8.57952 20.8404 9.00918 20.6065C9.47419 20.3557 9.94191 20.1106 10.4042 19.8598C10.5592 19.7752 10.6707 19.7189 10.6653 19.995C10.6571 20.8883 10.6598 21.7815 10.6653 22.6747C10.6653 22.841 10.6054 22.9311 10.4667 23.0044H10.4722ZM10.6653 18.5749C10.6653 18.7073 10.6653 18.8285 10.5239 18.9017C9.59112 19.392 8.6611 19.8879 7.64679 20.4261C7.64679 19.3723 7.64679 18.3917 7.64679 17.4111C7.64679 17.2421 7.75828 17.1942 7.86977 17.135C8.71277 16.687 9.5612 16.2418 10.4015 15.7853C10.6272 15.6613 10.6734 15.7261 10.6707 15.9656C10.6625 16.8335 10.6653 17.7042 10.668 18.572L10.6653 18.5749ZM10.6952 13.7818C10.6789 14.0411 10.668 14.3003 10.668 14.5595C10.668 14.7089 10.6081 14.7906 10.4803 14.8582C9.62103 15.3091 8.76716 15.7655 7.91328 16.222C7.84802 16.2558 7.78004 16.2868 7.64951 16.346C7.64951 15.4387 7.65495 14.5849 7.64679 13.7311C7.64679 13.5311 7.73924 13.4972 7.89969 13.4972C8.75084 13.5001 9.60199 13.5029 10.4531 13.4972C10.668 13.4972 10.706 13.5959 10.6924 13.7818H10.6952ZM10.4368 12.6914C10.0126 12.6801 9.58568 12.6885 9.16146 12.6885C8.73724 12.6885 8.31031 12.6829 7.88609 12.6914C7.71205 12.6942 7.64407 12.6378 7.64407 12.4462C7.65223 11.722 7.65223 10.9951 7.64407 10.2709C7.64407 10.0821 7.71477 10.0286 7.88881 10.0286C8.73996 10.0342 9.5884 10.037 10.4396 10.0286C10.6326 10.0286 10.7006 10.0877 10.6979 10.2934C10.687 11.0063 10.687 11.7192 10.6979 12.4321C10.7006 12.6435 10.6245 12.697 10.4341 12.6914H10.4368ZM10.7006 8.99162C10.7115 9.21141 10.6163 9.24804 10.4341 9.24241C10.0099 9.23114 9.58568 9.23959 9.15874 9.23959C8.73452 9.23959 8.31031 9.23114 7.88337 9.24241C7.70661 9.24804 7.62503 9.18887 7.64951 9.00008C7.64951 8.98599 7.64951 8.97472 7.64951 8.96063C7.66582 8.59996 7.5081 8.14348 7.70933 7.9096C7.89969 7.687 8.34566 7.85325 8.67742 7.84479C9.2648 7.83352 9.85217 7.84761 10.4396 7.83634C10.6299 7.83352 10.7088 7.88424 10.6979 8.09557C10.6816 8.39144 10.6816 8.69294 10.6979 8.98881L10.7006 8.99162ZM11.6442 13.0802C12.1038 11.6347 13.5015 10.5949 14.9944 10.6034C16.52 10.6118 17.8905 11.6347 18.3447 13.0802C18.4235 13.331 18.38 13.393 18.1271 13.3902C17.0747 13.3789 16.0224 13.3845 14.97 13.3845C13.9312 13.3845 12.8897 13.3761 11.8509 13.3902C11.5898 13.393 11.5654 13.3141 11.6415 13.0774L11.6442 13.0802ZM15.5818 26.0983C15.0951 26.0758 14.6056 26.0842 14.1161 26.0983C13.9176 26.104 13.8632 26.0363 13.8632 25.8334C13.8686 23.2242 13.8632 20.6149 13.8714 18.0057C13.8714 17.4478 14.282 17.0025 14.7932 16.9575C15.348 16.9096 15.8048 17.2533 15.919 17.8169C15.9489 17.9662 15.9544 18.1268 15.9544 18.279C15.9571 19.4991 15.9544 20.7192 15.9544 21.9393C15.9544 23.1988 15.9435 24.4584 15.9625 25.7179C15.968 26.0363 15.8701 26.1124 15.5818 26.0983ZM18.5405 25.8053C18.5405 26.0786 18.5024 26.2026 18.2006 26.18C17.828 26.149 17.4473 26.1547 17.0747 26.18C16.7974 26.1998 16.7185 26.1152 16.7212 25.8194C16.7348 23.3904 16.7294 20.9643 16.7267 18.5354C16.7267 18.2255 16.7457 17.9155 16.6723 17.6056C16.4466 16.6531 15.6525 16.0783 14.6736 16.1741C13.8224 16.2587 13.1154 17.0392 13.1099 17.9747C13.0963 20.4938 13.1018 23.0129 13.1018 25.5319C13.1018 25.9621 12.9006 26.1763 12.4981 26.1744C12.2588 26.1744 12.0195 26.1547 11.7856 26.18C11.511 26.2082 11.4593 26.0955 11.462 25.8334C11.4729 23.9512 11.4675 22.0689 11.4675 20.1838C11.4675 18.3128 11.4756 16.4446 11.4593 14.5736C11.4593 14.2637 11.5409 14.1904 11.8319 14.1932C13.9502 14.2045 16.0686 14.2045 18.187 14.1932C18.4562 14.1932 18.5459 14.2468 18.5459 14.5511C18.535 18.3044 18.535 22.0576 18.5459 25.8081L18.5405 25.8053ZM19.3019 10.2793C19.3019 10.099 19.3508 10.0257 19.5357 10.0286C20.3978 10.037 21.2598 10.037 22.1246 10.0286C22.3095 10.0286 22.3584 10.1018 22.3557 10.2822C22.3503 10.9951 22.3448 11.708 22.3557 12.418C22.3611 12.6575 22.2605 12.6942 22.0647 12.6914C21.6514 12.6801 21.2408 12.6885 20.8274 12.6914C20.4141 12.6942 20.0008 12.6829 19.5901 12.6942C19.3943 12.6998 19.2964 12.6575 19.2992 12.4209C19.3128 11.708 19.3073 10.9951 19.2992 10.285L19.3019 10.2793ZM20.1231 3.78157C20.1204 3.5646 20.183 3.49415 20.3978 3.48852C21.2924 3.46316 21.2924 3.4547 21.2952 4.37893C21.2952 4.67762 21.2952 4.9763 21.2952 5.27217C21.2952 5.76528 21.287 6.25839 21.3006 6.74868C21.306 6.96565 21.2381 7.03609 21.0259 7.04173C20.1286 7.06991 20.1286 7.07836 20.1286 6.15131C20.1286 5.35952 20.1367 4.57054 20.1258 3.77875L20.1231 3.78157ZM20.4875 1.7105C20.7622 1.61188 21.0096 1.66542 21.1837 1.92465C21.3142 2.11908 21.2952 2.3445 21.2897 2.56429C21.287 2.69391 21.1945 2.69672 21.1048 2.69672C20.9661 2.69672 20.8302 2.69672 20.6915 2.69672C20.667 2.69672 20.6371 2.70518 20.618 2.69672C20.4576 2.6291 20.1938 2.86297 20.1286 2.53048C20.0579 2.1698 20.2156 1.80631 20.4848 1.70769L20.4875 1.7105ZM19.3671 7.91524C19.5575 7.69263 20.0035 7.85325 20.3352 7.84479C20.9226 7.83352 21.51 7.84479 22.0974 7.83634C22.2904 7.83352 22.3666 7.88706 22.3557 8.09557C22.3421 8.39144 22.3394 8.69294 22.3557 8.98881C22.3666 9.20578 22.2768 9.24804 22.0919 9.24241C21.6677 9.23114 21.2435 9.23959 20.8166 9.23959C20.4032 9.23959 19.9926 9.22832 19.5793 9.24241C19.3753 9.25086 19.2801 9.19732 19.2992 8.96627C19.3291 8.60841 19.1632 8.15193 19.3644 7.91524H19.3671ZM22.0457 26.1716C21.2571 26.1659 20.4712 26.1716 19.6826 26.1631C19.5657 26.1631 19.3508 26.2561 19.3454 26.0504C19.3372 25.8025 19.1822 25.4728 19.4786 25.3065C20.4005 24.7965 21.336 24.3147 22.3204 23.7934C22.3204 24.5598 22.3122 25.2445 22.3258 25.9293C22.3312 26.1631 22.2089 26.1659 22.0457 26.1659V26.1716ZM19.3264 21.5673C19.3264 21.4152 19.3481 21.3025 19.5004 21.2208C20.4223 20.7389 21.3414 20.2458 22.3231 19.7245C22.3231 20.7615 22.3204 21.7195 22.3258 22.6775C22.3258 22.8466 22.2632 22.934 22.1246 23.0072C21.2788 23.4524 20.4331 23.8976 19.5929 24.3541C19.3671 24.4753 19.3209 24.4105 19.3236 24.1738C19.3318 23.3059 19.3291 22.4352 19.3236 21.5673H19.3264ZM22.2061 18.8905C21.2652 19.3864 20.3244 19.8879 19.3291 20.4149C19.3291 19.3582 19.3291 18.3664 19.3291 17.3717C19.3291 17.2928 19.3617 17.228 19.4379 17.1857C20.3896 16.6813 21.3414 16.1741 22.3475 15.6416C22.3475 16.6531 22.3475 17.5858 22.3475 18.5185C22.3475 18.6566 22.3639 18.8059 22.2061 18.8905ZM21.5807 15.1541C20.8492 15.5401 20.1204 15.9262 19.3073 16.3573C19.3073 15.4246 19.31 14.5849 19.3046 13.7452C19.3046 13.5592 19.3644 13.4944 19.5439 13.4972C20.4059 13.5029 21.268 13.5029 22.13 13.4972C22.2823 13.4972 22.372 13.5423 22.3557 13.717C22.3557 13.7311 22.3557 13.7424 22.3557 13.7565C22.392 14.3989 22.1336 14.8648 21.5807 15.1541ZM25.9915 15.8106C27.12 15.7458 28.0201 16.2248 28.7516 17.2618H27.5034C27.2179 17.2618 26.9324 17.2618 26.6468 17.2618C26.4347 17.259 26.2199 17.2336 26.0105 17.2561C25.7358 17.2843 25.6434 17.1688 25.6923 16.9067C25.7576 16.5545 25.5591 16.5517 25.3062 16.5489C25.0451 16.5461 24.8657 16.5742 24.9282 16.9124C24.9799 17.1829 24.8684 17.2759 24.6046 17.2561C24.3 17.2336 23.99 17.2505 23.6093 17.2505C24.2239 16.3376 25.0098 15.867 25.9942 15.8106H25.9915ZM27.4925 26.1603C26.6278 26.1519 25.763 26.1462 24.8983 26.1631C24.6399 26.1688 24.6209 26.0589 24.6236 25.8447C24.6345 25.1572 24.6264 24.4668 24.6264 23.7793C24.6264 23.1312 24.6236 22.4803 24.6264 21.8322C24.6318 20.908 25.3116 20.1838 26.1764 20.1697C27.0357 20.1556 27.7563 20.8742 27.7672 21.7956C27.7808 23.1594 27.7672 24.5232 27.7754 25.887C27.7754 26.1209 27.6938 26.1659 27.4925 26.1631V26.1603ZM28.893 26.1857C28.5857 26.1857 28.5286 26.0786 28.5313 25.7884C28.5449 24.464 28.5422 23.1397 28.5368 21.8153C28.5313 20.5529 27.6394 19.5245 26.4347 19.3836C25.279 19.2483 24.1722 20.0767 23.9112 21.2884C23.8677 21.4884 23.8649 21.6998 23.8649 21.9083C23.8622 23.2186 23.8513 24.5316 23.8731 25.8419C23.8785 26.18 23.7262 26.1772 23.4897 26.18C23.2504 26.18 23.109 26.1772 23.1144 25.8419C23.1389 24.6753 23.1226 23.506 23.1226 22.3366C23.1226 21.1813 23.1226 20.026 23.1226 18.8707C23.1226 18.0451 23.128 18.0451 23.8949 18.0479C25.5237 18.0479 27.1526 18.0536 28.7815 18.0423C29.0262 18.0423 29.1377 18.1071 29.1758 18.3692C29.2112 18.6143 29.222 18.8595 29.222 19.1046C29.222 21.3363 29.2193 23.5708 29.2275 25.8025C29.2275 26.0673 29.1976 26.1885 28.893 26.1857Z" fill="#783A35" fill-opacity="0.75"/>
</svg>
