<svg width="91" height="95" viewBox="0 0 91 95" fill="none" xmlns="http://www.w3.org/2000/svg">
<g clip-path="url(#clip0_1850_16117)">
<path d="M41.4482 73.3591H8.74764C4.55791 73.3591 1.15088 69.9452 1.15088 65.7211V8.79522C1.15088 4.57119 4.5464 1.15726 8.74764 1.15726H65.3665C69.5563 1.15726 72.9633 4.57119 72.9633 8.79522V38.7221" stroke="#783A35" stroke-width="2" stroke-miterlimit="10" stroke-linecap="round"/>
<path d="M37.0513 1.15726V48.501" stroke="#783A35" stroke-width="2" stroke-miterlimit="10" stroke-linecap="round"/>
<path d="M50.5068 37.2524H1.15088" stroke="#783A35" stroke-width="2" stroke-miterlimit="10" stroke-linecap="round"/>
<path d="M64.5033 88.23C78.5012 88.23 89.8488 76.8209 89.8488 62.747C89.8488 48.6731 78.5012 37.264 64.5033 37.264C50.5053 37.264 39.1577 48.6731 39.1577 62.747C39.1577 76.8209 50.5053 88.23 64.5033 88.23Z" stroke="#783A35" stroke-width="2" stroke-miterlimit="10" stroke-linecap="round"/>
<path d="M12.2124 13.2275L25.3341 26.4319" stroke="#783A35" stroke-width="2" stroke-miterlimit="10" stroke-linecap="round"/>
<path d="M25.3341 13.2275L12.2124 26.4319" stroke="#783A35" stroke-width="2" stroke-miterlimit="10" stroke-linecap="round"/>
<path d="M54.4546 11.4453V28.2141" stroke="#783A35" stroke-width="2" stroke-miterlimit="10" stroke-linecap="round"/>
<path d="M62.7997 19.824H46.1099" stroke="#783A35" stroke-width="2" stroke-miterlimit="10" stroke-linecap="round"/>
<path d="M10.9692 50.3411H29.9381" stroke="#783A35" stroke-width="2" stroke-miterlimit="10" stroke-linecap="round"/>
<path d="M10.9692 58.0716H29.9381" stroke="#783A35" stroke-width="2" stroke-miterlimit="10" stroke-linecap="round"/>
<path d="M69.3566 74.998V75.2446H65.6232L57.4168 66.4042L58.8609 64.2558C62.5942 64.4319 64.7779 62.8822 65.0949 60.6633C65.0949 60.6633 62.4886 60.769 57.3112 60.769V60.452L57.9451 59.7123L58.9313 58.3035C62.242 58.3035 65.0245 58.374 65.0245 58.374C64.7075 56.9299 63.3339 55.4154 60.2697 55.4154H57.3112V55.0632L57.9451 54.3588L58.8609 53.0204H72.139V53.3726L71.505 54.0771L70.5541 55.4154H66.0106V55.5563C66.9968 56.0142 67.9125 57.1412 68.1591 58.3387C68.1591 58.3387 69.1453 58.3035 72.139 58.3035V58.6205L71.505 59.3601L70.5541 60.769C69.0396 60.769 68.4056 60.7337 68.4056 60.7337C68.0182 64.0092 64.8836 66.1929 61.0445 66.1577L61.0093 66.2634L69.3566 74.998Z" fill="#783A35"/>
</g>
<defs>
<clipPath id="clip0_1850_16117">
<rect width="91" height="95" fill="white"/>
</clipPath>
</defs>
</svg>
