<svg width="24" height="24" viewBox="0 0 24 24" fill="none" xmlns="http://www.w3.org/2000/svg">
<circle cx="12" cy="12" r="12" fill="#783A35"/>
<path d="M6 15.6201C6.08142 15.3809 6.27138 15.2348 6.47492 15.1019C7.13982 14.6236 7.79114 14.132 8.45603 13.6537C8.71385 13.4677 8.9988 13.3482 9.32447 13.4412C9.46016 13.481 9.56871 13.5607 9.6637 13.6537C9.85367 13.8398 10.0436 14.0258 10.2336 14.2118C10.2743 14.2516 10.3015 14.2649 10.3557 14.225C11.9162 13.0957 13.3138 11.7937 14.4672 10.2525C14.5215 10.1861 14.4944 10.1595 14.4536 10.1197C14.2772 9.94695 14.1008 9.76095 13.9109 9.60152C13.5309 9.25608 13.5581 8.87078 13.7752 8.51206C13.9787 8.17991 14.2365 7.88762 14.4808 7.58204C14.8065 7.15689 15.1321 6.74502 15.4442 6.31987C15.5935 6.13387 15.7834 6.02758 16.0141 6.01429C16.0548 6.00101 16.0955 6.01429 16.1362 6.00101C16.3805 5.98772 16.5569 6.1073 16.7197 6.26673C17.0997 6.63874 17.5067 6.99746 17.8595 7.40932C18.0359 7.60861 18.1173 7.83448 18.1309 8.1002C18.1445 8.49878 18.0224 8.87079 17.8867 9.24279C17.7781 9.58823 17.561 9.88052 17.3575 10.1861C16.8283 10.9965 16.2448 11.7671 15.6342 12.5244C15.2814 12.9496 14.915 13.3615 14.5215 13.76C13.436 14.8761 12.2011 15.8327 10.9121 16.6962C10.505 16.9752 10.0843 17.241 9.65013 17.4668C9.18877 17.7193 8.68671 17.9053 8.14394 17.8654C7.83184 17.8388 7.5876 17.706 7.37049 17.5067C6.99055 17.148 6.61062 16.776 6.24425 16.4039C6.09499 16.2578 6.01357 16.0984 6 15.8991C6 15.7928 6 15.7131 6 15.6201Z" fill="#FAF3ED"/>
<path d="M16.1649 8.72949C16.1649 8.74228 16.1649 8.74228 16.1649 8.75506C16.1106 8.75506 16.0699 8.75506 16.0156 8.75506V8.74228C16.0699 8.72949 16.1106 8.72949 16.1649 8.72949Z" fill="#FAF3ED"/>
</svg>
