<svg width="16" height="15" viewBox="0 0 16 15" fill="none" xmlns="http://www.w3.org/2000/svg">
<path d="M15.1429 12.9951H1.0305C0.939227 12.9951 0.866211 13.0689 0.866211 13.1591V14.3893C0.866211 14.4795 0.939227 14.5533 1.0305 14.5533H15.1429C15.2341 14.5533 15.3072 14.4795 15.3072 14.3893V13.1591C15.3072 13.0689 15.2341 12.9951 15.1429 12.9951ZM7.9589 10.7192C7.97408 10.7388 7.99347 10.7547 8.01561 10.7656C8.03775 10.7765 8.06205 10.7822 8.08668 10.7822C8.11131 10.7822 8.13561 10.7765 8.15775 10.7656C8.17989 10.7547 8.19928 10.7388 8.21446 10.7192L10.4861 7.81397C10.5692 7.70736 10.4942 7.54948 10.3583 7.54948H8.85538V0.611289C8.85538 0.521076 8.78236 0.447266 8.69312 0.447266H7.47619C7.38694 0.447266 7.31393 0.521076 7.31393 0.611289V7.54743H5.81507C5.67918 7.54743 5.60414 7.70531 5.68729 7.81192L7.9589 10.7192Z" fill="#EFEFEF"/>
</svg>
