<svg width="52" height="52" viewBox="0 0 52 52" fill="none" xmlns="http://www.w3.org/2000/svg">
<g clip-path="url(#clip0_1850_16652)">
<path d="M0.519439 30.6006C0.743046 30.1994 0.886226 29.708 1.20971 29.419C1.61361 29.0593 2.1554 28.6625 2.65564 28.6368C4.54615 28.5396 6.4614 28.3673 8.32715 28.8233C9.27108 29.054 10.1708 29.4641 11.0705 29.7858C10.9937 29.2272 10.8717 28.5944 10.824 27.9554C10.5243 23.9394 11.6433 20.283 13.699 16.8795C14.8454 14.9811 16.2701 13.3142 18.0227 11.9443C18.2622 11.7569 18.3047 11.604 18.1942 11.3239C17.8088 10.3499 17.4314 9.37153 17.0876 8.38166C15.7089 4.41335 18.5495 0.415881 22.7512 0.404391C25.0005 0.398204 27.2507 0.397321 29.501 0.404391C33.6744 0.417648 36.5132 4.39745 35.1619 8.35073C34.8233 9.34236 34.4424 10.3199 34.0562 11.2938C33.9404 11.5855 33.9731 11.7454 34.225 11.9567C38.6609 15.6837 41.125 20.428 41.4405 26.2267C41.506 27.4278 41.3133 28.6421 41.2408 29.8353C41.6208 29.6594 42.0725 29.4314 42.5383 29.2405C43.6121 28.7994 44.7346 28.5758 45.8959 28.5688C46.9459 28.5626 47.9959 28.5573 49.0459 28.5696C50.6032 28.5873 51.7247 29.6753 51.715 31.1398C51.7053 32.5892 50.5563 33.6719 49.0079 33.6869C48.5094 33.6913 48.0109 33.6878 47.4771 33.6878C47.4771 34.8306 47.4771 35.9371 47.4771 37.0975C48.0463 37.0975 48.6057 37.0896 49.1661 37.0993C50.4962 37.1223 51.571 38.0971 51.7053 39.3919C51.8396 40.6814 50.9761 41.886 49.6831 42.1476C49.2642 42.2325 48.8178 42.1688 48.3901 42.2245C48.185 42.251 47.9296 42.3421 47.8094 42.4941C43.9321 47.3444 38.7873 49.9543 32.7658 50.9848C31.2589 51.2429 29.7263 51.3481 28.2053 51.5257C28.0745 51.5408 27.9463 51.5752 27.8173 51.6009C26.6842 51.6009 25.5511 51.6009 24.4172 51.6009C23.4759 51.5036 22.5338 51.417 21.5943 51.3065C17.8106 50.862 14.1931 49.8748 10.8407 48.0117C8.59583 46.7638 6.48791 45.3302 4.98894 43.2064C4.46042 42.4578 3.93454 42.1299 3.01801 42.1839C2.02371 42.2422 1.28395 41.6942 0.806682 40.821C0.697971 40.6222 0.614008 40.4092 0.518555 40.2024C0.518555 39.8356 0.518555 39.4688 0.518555 39.102C1.23622 36.9932 2.95614 36.9588 4.76622 37.1506C4.76622 35.9583 4.76622 34.8535 4.76622 33.6896C4.3959 33.6896 4.05209 33.6896 3.7074 33.6896C1.83987 33.6896 1.21589 33.2812 0.518555 31.602C0.519439 31.267 0.519439 30.9338 0.519439 30.6006ZM26.1336 37.9372C28.2141 37.9433 30.2522 37.6658 32.2231 36.9871C35.5313 35.8478 38.0025 33.8151 39.1868 30.4195C39.9875 28.1251 39.9177 25.7954 39.4095 23.4709C38.4718 19.1756 36.4125 15.5449 32.8268 12.905C30.3044 11.0472 27.4655 10.2757 24.3412 10.8095C21.923 11.2231 19.8513 12.3738 18.081 14.0336C14.3363 17.5459 12.4104 21.9075 12.4758 27.0283C12.5271 31.0629 14.3522 34.1792 17.9821 36.1139C20.5284 37.4696 23.2832 37.9283 26.1336 37.9372ZM5.32303 30.2772C4.44274 30.2772 3.78782 30.2312 3.14528 30.2984C2.85892 30.3284 2.49656 30.5202 2.34365 30.7535C1.97598 31.3165 2.44441 31.9652 3.1992 31.9776C4.1988 31.9935 5.19841 31.9759 6.19802 31.9794C7.66959 31.9847 9.00505 32.4027 10.0754 33.4333C10.7921 34.1235 11.4815 34.858 12.0816 35.6499C13.5585 37.5978 15.3686 39.0843 17.6824 39.9107C22.7326 41.7137 27.8402 41.8162 33.0036 40.4251C35.8124 39.6685 38.1501 38.2253 39.9548 35.9194C40.6292 35.0577 41.3548 34.2252 42.1335 33.4571C43.2047 32.401 44.5596 31.982 46.0506 31.9794C47.0007 31.9776 47.9499 31.9847 48.9 31.9794C49.0803 31.9785 49.2712 31.9653 49.4392 31.9078C49.8325 31.7735 50.0331 31.4668 49.9986 31.0611C49.9624 30.6369 49.7158 30.3028 49.2765 30.301C47.812 30.2931 46.3369 30.2268 44.8848 30.3753C42.4499 30.6254 40.6981 32.0863 39.2964 33.9724C38.0431 35.6587 36.4894 36.9526 34.6006 37.8329C30.094 39.9346 25.408 40.1387 20.6486 38.9509C17.4412 38.1502 14.7446 36.5231 12.7701 33.7656C11.7935 32.4019 10.5093 31.328 8.88484 30.7332C7.65368 30.2807 6.38008 30.2339 5.32303 30.2772ZM26.64 49.919C27.6564 49.8368 29.1704 49.7528 30.6747 49.5796C31.7635 49.4541 32.8471 49.2499 33.9174 49.0113C39.1514 47.8438 43.5414 45.3134 46.8239 40.9889C47.0131 40.7397 47.4249 40.593 47.7572 40.5364C48.2274 40.4569 48.7215 40.5223 49.2032 40.4949C49.6557 40.4693 49.988 40.1157 50.0084 39.6889C50.0269 39.2876 49.7344 38.8484 49.3243 38.8307C47.774 38.7626 46.3078 38.6849 45.1836 40.2324C43.0553 43.1622 40.1484 45.1367 36.7616 46.4032C33.8008 47.5106 30.7197 48.0055 27.5769 48.1381C23.4282 48.3131 19.3476 47.8747 15.4543 46.3775C12.0383 45.0642 8.91401 43.286 6.89801 40.0459C6.81051 39.9054 6.69296 39.7834 6.58248 39.6588C6.20332 39.2293 5.72694 38.9571 5.15952 38.9067C4.48074 38.8457 3.79755 38.8139 3.11523 38.8077C2.60173 38.8033 2.23848 39.1701 2.22699 39.6332C2.21462 40.114 2.59201 40.4834 3.12584 40.5011C3.54212 40.5143 3.9584 40.5223 4.37468 40.5196C4.95978 40.5152 5.34601 40.7866 5.69335 41.2603C6.31115 42.1034 6.94131 42.9554 7.68373 43.6855C9.45226 45.4239 11.6008 46.6056 13.8572 47.5831C17.7744 49.28 21.9186 49.8085 26.64 49.919ZM32.4671 10.7149C32.8657 9.6349 33.2952 8.62206 33.6134 7.57563C34.4203 4.92331 32.475 2.18262 29.7184 2.12163C27.3214 2.06861 24.9219 2.07302 22.5249 2.12075C19.9919 2.17024 18.0227 4.54593 18.5221 7.03032C18.774 8.28267 19.3122 9.47847 19.7338 10.7352C20.3065 10.4436 20.7909 10.197 21.2973 9.93893C20.9552 9.01182 20.6008 8.11652 20.295 7.20443C19.7365 5.53668 20.8863 3.84418 22.6177 3.82208C24.9484 3.79203 27.2808 3.80087 29.6123 3.8212C30.6358 3.83004 31.3764 4.34618 31.8316 5.26181C32.1789 5.96091 32.1595 6.67237 31.8882 7.39091C31.5682 8.23937 31.2527 9.08871 30.9354 9.9354C31.4622 10.2023 31.9332 10.4427 32.4671 10.7149ZM22.9226 9.38037C25.0792 8.78291 27.1959 8.81296 29.3189 9.36446C29.6645 8.43822 30.01 7.57563 30.3079 6.69624C30.5333 6.03338 30.1568 5.52165 29.4585 5.519C27.2286 5.50928 24.9996 5.50928 22.7697 5.519C22.0768 5.52253 21.7012 6.04133 21.9275 6.70331C22.228 7.58181 22.5726 8.4453 22.9226 9.38037ZM9.84468 41.11C9.88799 40.9333 9.9092 40.8891 9.9092 40.8449C9.91097 39.1983 9.91273 37.5518 9.90831 35.9053C9.90831 35.7957 9.89594 35.656 9.83054 35.5809C8.9635 34.5778 7.99572 33.7444 6.50382 33.7249C6.50382 34.9446 6.49675 36.1545 6.51531 37.3636C6.51708 37.4723 6.65849 37.6128 6.76985 37.6817C7.61037 38.197 8.25468 38.8917 8.77702 39.7251C9.0678 40.1909 9.44784 40.6018 9.84468 41.11ZM42.3253 40.7786C42.3703 40.8087 42.4154 40.8396 42.4605 40.8696C42.9572 40.2784 43.4309 39.6641 43.9586 39.1011C44.4314 38.5956 44.9723 38.1546 45.462 37.6641C45.5936 37.5324 45.7183 37.3238 45.7236 37.147C45.7492 36.2314 45.7359 35.3149 45.7359 34.3993C45.7359 34.1757 45.7359 33.9521 45.7359 33.7231C44.2423 33.7514 43.2816 34.5734 42.4207 35.5632C42.3544 35.6401 42.3306 35.7754 42.3297 35.8841C42.3235 37.5147 42.3253 39.1462 42.3253 40.7786ZM15.0212 44.4137C15.0212 43.0995 15.031 41.9205 15.0071 40.7433C15.0044 40.6116 14.8268 40.4604 14.6986 40.357C13.783 39.6146 12.8594 38.8819 11.9385 38.1466C11.8474 38.0733 11.7573 37.9981 11.615 37.8815C11.615 39.1329 11.683 40.3031 11.592 41.4609C11.5266 42.2899 11.8368 42.7424 12.5368 43.0827C13.3508 43.4795 14.1357 43.9356 15.0212 44.4137ZM40.6204 37.9221C40.539 37.9566 40.4807 37.9681 40.4401 38.0008C39.429 38.8077 38.4143 39.612 37.4156 40.4348C37.3016 40.5294 37.2265 40.7326 37.222 40.8882C37.2017 41.62 37.2132 42.3535 37.2132 43.0862C37.2132 43.4892 37.2132 43.8923 37.2132 44.2953C37.2627 44.328 37.3113 44.3607 37.3608 44.3934C38.3905 43.7615 39.4228 43.1348 40.4436 42.4888C40.5417 42.4269 40.6115 42.2448 40.6124 42.1176C40.6248 40.7344 40.6204 39.353 40.6204 37.9221ZM32.1215 45.9692C33.2051 45.6776 34.2126 45.4124 35.2158 45.1278C35.3298 45.0951 35.4942 44.9537 35.4959 44.86C35.5154 43.7243 35.5083 42.5886 35.5083 41.4503C34.3461 41.8056 33.2431 42.1423 32.1215 42.4844C32.1215 43.6033 32.1215 44.7284 32.1215 45.9692ZM20.1121 45.9701C20.1121 44.7133 20.1121 43.5891 20.1121 42.4852C18.9737 42.1379 17.8645 41.7985 16.7261 41.4512C16.7261 42.5692 16.7173 43.6483 16.7376 44.7266C16.7403 44.8592 16.8764 45.0722 16.9931 45.1066C18.0077 45.4071 19.032 45.6758 20.1121 45.9701ZM30.3485 46.2176C30.3485 45.0359 30.3485 43.9188 30.3485 42.7919C29.2941 42.8723 28.2839 42.9386 27.2781 43.0438C27.165 43.0553 26.9962 43.2913 26.9891 43.4291C26.9573 44.0602 26.975 44.693 26.975 45.3249C26.975 45.6979 26.975 46.07 26.975 46.4907C28.1673 46.3935 29.2561 46.306 30.3485 46.2176ZM25.2586 46.4845C25.2586 45.362 25.2683 44.3333 25.2427 43.3054C25.24 43.2082 25.0191 43.0509 24.8856 43.0341C24.3589 42.9678 23.8259 42.9519 23.2956 42.9086C22.8263 42.8697 22.3579 42.8202 21.8771 42.7742C21.8771 43.9568 21.8771 45.0624 21.8771 46.2211C22.9951 46.3077 24.084 46.3926 25.2586 46.4845Z" fill="#4F2205"/>
</g>
<defs>
<clipPath id="clip0_1850_16652">
<rect width="51.2" height="51.2" fill="white" transform="translate(0.518555 0.399414)"/>
</clipPath>
</defs>
</svg>
