<svg width="23" height="23" viewBox="0 0 23 23" fill="none" xmlns="http://www.w3.org/2000/svg">
<path d="M13.3385 12.3737H12.8385V12.8737V20.1654H10.1719V12.8737V12.3737H9.67188H7.42188V9.70703H9.67188H10.1719V9.20703V6.64037C10.1719 5.35433 10.5764 4.41659 11.2143 3.79952C11.8551 3.17956 12.7845 2.83203 13.928 2.83203C14.759 2.83203 15.5554 2.87609 16.0469 2.9146V5.04036H15.1719C14.1945 5.04036 13.5216 5.27627 13.153 5.82369C12.9797 6.081 12.9059 6.36417 12.8715 6.62323C12.8385 6.87235 12.8385 7.13298 12.8385 7.35826L12.8385 7.3737V9.20703V9.70703H13.3385H15.9065L15.2398 12.3737H13.3385Z" fill="white" stroke="white"/>
</svg>
