<svg width="48" height="47" viewBox="0 0 48 47" fill="none" xmlns="http://www.w3.org/2000/svg">
<path d="M22.933 42.2337C23.0403 42.0933 22.9885 41.9386 22.9885 41.7974C22.9938 34.8504 22.992 27.9044 23.0055 20.9574C23.0064 20.5954 22.8865 20.3799 22.6074 20.1627C16.5943 15.4765 10.5883 10.7797 4.57786 6.08908C4.40792 5.95677 4.26928 5.75653 3.95982 5.73239C4.1065 6.9446 4.25139 8.13446 4.39361 9.32521C4.49378 10.1655 4.63063 11.0041 4.67624 11.848C4.72633 12.775 3.94103 13.399 3.03946 13.2166C2.48493 13.1049 2.06813 12.665 1.98853 12.0303C1.60035 8.93187 1.21665 5.83251 0.854411 2.73137C0.751554 1.85529 1.26048 1.25902 2.16294 1.14548C4.38466 0.864781 6.60817 0.601062 8.83079 0.327511C9.61519 0.230963 10.3996 0.13084 11.1831 0.0262466C12.1008 -0.0953319 12.8109 0.352542 12.9272 1.13207C13.0515 1.96703 12.5247 2.59549 11.5677 2.71706C9.75741 2.94771 7.94443 3.16315 6.13324 3.38664C6.00981 3.40184 5.86402 3.3634 5.74685 3.55113C6.55272 4.18405 7.36127 4.81966 8.1725 5.45347C13.4388 9.56748 18.7078 13.6779 23.9679 17.7999C24.2648 18.0333 24.4401 18.0842 24.771 17.8241C30.6429 13.2005 36.5281 8.59395 42.4098 3.98291C42.594 3.83809 42.7747 3.68969 43.0645 3.45548C41.9187 3.30976 40.9179 3.18103 39.917 3.05677C38.9645 2.93877 38.011 2.82702 37.0585 2.70902C36.1891 2.60085 35.6668 1.98134 35.7616 1.17767C35.851 0.423165 36.5174 -0.0854984 37.3519 0.0119432C39.2579 0.235433 41.1621 0.481272 43.0672 0.717277C44.1691 0.854053 45.2701 0.994405 46.3729 1.12492C47.4874 1.25633 47.9569 1.86602 47.8174 2.97006C47.4435 5.91833 47.0813 8.8684 46.7191 11.8185C46.6055 12.7455 46.0867 13.2703 45.2862 13.2443C44.4839 13.2184 43.9294 12.5944 44.017 11.7085C44.1548 10.305 44.3498 8.90684 44.5197 7.5069C44.5895 6.9303 44.6565 6.35369 44.7245 5.78335C44.4982 5.69574 44.4159 5.86201 44.3113 5.94426C38.2355 10.7037 32.1634 15.4685 26.0858 20.2262C25.83 20.4264 25.7021 20.6293 25.7021 20.9735C25.7102 27.9196 25.7048 34.8665 25.7021 41.8135C25.7021 41.9386 25.7021 42.0638 25.7021 42.3061C25.9311 42.0978 26.0814 41.9708 26.22 41.8332C27.4865 40.57 28.7458 39.2997 30.0195 38.0428C30.5176 37.5511 31.1339 37.4545 31.6714 37.7388C32.1866 38.0115 32.4576 38.5648 32.3727 39.1611C32.3253 39.4946 32.1455 39.7538 31.9156 39.9836C29.7449 42.1532 27.5777 44.3273 25.3989 46.4889C24.7344 47.1486 23.9911 47.1737 23.3525 46.5407C21.1442 44.355 18.9493 42.1559 16.7589 39.9532C16.2643 39.4552 16.1766 38.8375 16.4691 38.3011C16.7392 37.8068 17.2937 37.5252 17.8411 37.6065C18.2364 37.6655 18.5191 37.9114 18.7883 38.1804C20.028 39.4168 21.2676 40.654 22.5126 41.8859C22.6379 42.0102 22.7327 42.1854 22.933 42.2337Z" fill="#4F2205"/>
</svg>
