<svg width="54" height="53" viewBox="0 0 54 53" fill="none" xmlns="http://www.w3.org/2000/svg">
<g clip-path="url(#clip0_1850_11273)">
<path d="M53.3208 19.6251C53.3208 30.5951 53.3208 41.565 53.3208 52.5349C53.0264 52.9001 52.6404 53.0001 52.1807 53.0001C35.1565 52.9931 18.1337 52.9945 1.10949 52.9931C0.226341 52.9931 0 52.7585 0 51.8864C0 41.3706 0 30.8547 0 20.3375C0 19.16 0.483232 18.6837 1.67881 18.6823C4.61153 18.6809 7.54425 18.6823 10.477 18.6823C10.6589 18.6823 10.8422 18.6823 11.0269 18.6823C11.0269 17.9088 11.0269 17.2173 11.0269 16.5313C9.57299 16.23 9.28833 15.8718 9.28833 14.3651C9.28833 13.532 9.28694 12.6988 9.28833 11.8657C9.28972 10.5423 9.82433 10.0022 11.1491 9.99938C12.9362 9.99522 14.7233 9.99938 16.5118 9.99661C16.6937 9.99661 16.8756 9.97855 17.0798 9.96745C17.0798 9.7175 17.0798 9.52726 17.0798 9.33702C17.0798 6.7334 17.0784 4.13117 17.0798 1.52755C17.0798 0.50693 17.5394 0.00703464 18.5614 0.00564604C23.9589 -0.00546274 29.355 -0.00546274 34.7524 0.00564604C35.7744 0.00703464 36.2368 0.508318 36.2382 1.52477C36.2396 4.14506 36.2382 6.76534 36.2382 9.38562C36.2382 9.5717 36.2382 9.75638 36.2382 9.99661C36.4812 9.99661 36.6687 9.99661 36.8562 9.99661C38.678 9.99661 40.4998 9.98689 42.3231 10.0008C43.3909 10.0091 43.9949 10.5548 44.0199 11.5504C44.0477 12.678 44.0463 13.8069 44.0186 14.9345C43.9977 15.7857 43.4992 16.3078 42.6605 16.4536C42.5439 16.4744 42.4272 16.4883 42.3036 16.505C42.3036 17.2284 42.3036 17.9311 42.3036 18.6795C42.5216 18.6795 42.7091 18.6795 42.8966 18.6795C45.7599 18.6795 48.6231 18.7045 51.4864 18.6642C52.3168 18.6559 52.9292 18.8795 53.3208 19.6251ZM40.654 51.3852C40.654 39.7237 40.654 28.122 40.654 16.4744C40.4124 16.4744 40.2068 16.4744 40.0013 16.4744C36.4437 16.4744 32.8862 16.4758 29.3286 16.4702C29.1064 16.4702 28.8217 16.4925 28.6773 16.373C28.4635 16.1939 28.2219 15.8926 28.2288 15.651C28.2357 15.4094 28.4968 15.1261 28.719 14.9581C28.8731 14.8428 29.1522 14.8734 29.3744 14.872C30.9532 14.8664 32.5335 14.8692 34.1123 14.8678C34.2942 14.8678 34.4747 14.8511 34.6483 14.8428C34.6483 10.3979 34.6483 6.0155 34.6483 1.63308C29.2994 1.63308 23.9839 1.63308 18.6697 1.63308C18.6697 6.05577 18.6697 10.4396 18.6697 14.8692C18.8863 14.8692 19.0738 14.8692 19.2626 14.8692C21.1192 14.8692 22.9771 14.8678 24.8337 14.8706C25.0239 14.8706 25.2169 14.8706 25.403 14.9039C25.814 14.9775 26.0515 15.2302 26.0612 15.6538C26.0709 16.1037 25.8168 16.3633 25.3919 16.4508C25.2253 16.4855 25.0461 16.4744 24.874 16.4744C21.0039 16.4758 17.1339 16.4744 13.2639 16.4772C13.0653 16.4772 12.8654 16.4966 12.6307 16.5077C12.6307 16.773 12.6307 16.9785 12.6307 17.184C12.6307 23.1883 12.6307 29.194 12.6307 35.1983C12.6307 35.3885 12.6362 35.5815 12.6154 35.7704C12.5668 36.2133 12.3044 36.4674 11.8656 36.4827C11.4198 36.4994 11.1588 36.2328 11.0671 35.8134C11.031 35.6468 11.0505 35.4677 11.0505 35.2941C11.0491 32.0142 11.0505 28.7343 11.0505 25.4545C11.0505 25.2545 11.0505 25.0546 11.0505 24.8699C7.84141 24.8699 4.71151 24.8699 1.60244 24.8699C1.60244 33.7347 1.60244 42.5592 1.60244 51.3754C4.7615 51.3754 7.88029 51.3754 11.0505 51.3754C11.0505 51.1449 11.0505 50.9408 11.0505 50.7381C11.0505 47.093 11.0505 43.4493 11.0505 39.8042C11.0505 38.9878 11.3212 38.5851 11.86 38.5948C12.378 38.6045 12.6307 38.9905 12.6307 39.782C12.6321 43.4438 12.6307 47.1055 12.6307 50.7672C12.6307 50.9672 12.6307 51.1685 12.6307 51.381C14.34 51.381 15.9675 51.381 17.6616 51.381C17.6616 51.156 17.6616 50.9519 17.6616 50.7478C17.6616 47.1208 17.6616 43.4938 17.6616 39.8667C17.6616 38.4268 18.2017 37.8838 19.6376 37.8838C24.3241 37.8824 29.0092 37.8824 33.6957 37.8838C35.1065 37.8838 35.655 38.4281 35.6564 39.8265C35.6578 43.4715 35.6564 47.1152 35.6564 50.7603C35.6564 50.9616 35.6564 51.163 35.6564 51.3838C37.3574 51.3852 38.9863 51.3852 40.654 51.3852ZM42.305 24.8463C42.305 33.7208 42.305 42.5426 42.305 51.3657C45.4682 51.3657 48.5981 51.3657 51.7267 51.3657C51.7267 42.5065 51.7267 33.6847 51.7267 24.8463C48.5759 24.8463 45.4585 24.8463 42.305 24.8463ZM19.2862 39.5196C19.2862 43.5049 19.2862 47.4346 19.2862 51.3727C21.483 51.3727 23.6437 51.3727 25.8376 51.3727C25.8376 47.411 25.8376 43.4799 25.8376 39.5196C23.6728 39.5196 21.4941 39.5196 19.2862 39.5196ZM27.4887 39.5113C27.4887 43.4951 27.4887 47.4263 27.4887 51.3754C29.6924 51.3754 31.853 51.3754 34.0248 51.3754C34.0248 47.404 34.0248 43.4618 34.0248 39.5113C31.8197 39.5113 29.6535 39.5113 27.4887 39.5113ZM11.0213 23.2452C11.0213 22.226 11.0213 21.2623 11.0213 20.2722C7.86502 20.2722 4.73651 20.2722 1.59411 20.2722C1.59411 21.2762 1.59411 22.2524 1.59411 23.2452C4.74484 23.2452 7.86085 23.2452 11.0213 23.2452ZM42.2953 23.2272C45.4752 23.2272 48.6037 23.2272 51.7336 23.2272C51.7336 22.2246 51.7336 21.2595 51.7336 20.275C48.5773 20.275 45.4488 20.275 42.2953 20.275C42.2953 21.2665 42.2953 22.2302 42.2953 23.2272ZM17.0395 14.8511C17.0395 13.7653 17.0395 12.6905 17.0395 11.6227C14.9802 11.6227 12.9612 11.6227 10.938 11.6227C10.938 12.7155 10.938 13.775 10.938 14.8511C12.9903 14.8511 14.9969 14.8511 17.0395 14.8511ZM36.2632 14.8373C38.3267 14.8373 40.3443 14.8373 42.38 14.8373C42.38 13.7458 42.38 12.6877 42.38 11.6199C40.3221 11.6199 38.3045 11.6199 36.2632 11.6199C36.2632 12.696 36.2632 13.7444 36.2632 14.8373Z" fill="#783A35"/>
<path d="M29.155 5.73632C29.4896 5.73632 29.7479 5.72243 30.0048 5.7391C31.0463 5.80714 31.7308 6.52226 31.7517 7.56094C31.76 7.99418 31.7586 8.42742 31.7517 8.86066C31.7364 9.96599 31.0032 10.7089 29.8923 10.7436C29.6688 10.7505 29.4452 10.745 29.1536 10.745C29.1536 11.0505 29.1605 11.3213 29.1522 11.592C29.1244 12.4544 28.5301 13.175 27.6747 13.2722C27.0415 13.3431 26.3917 13.3486 25.7571 13.2931C24.7892 13.2084 24.1769 12.4807 24.1616 11.5032C24.1588 11.2643 24.1616 11.0269 24.1616 10.77C23.7797 10.7519 23.4492 10.7644 23.1299 10.7144C22.1745 10.5673 21.5802 9.85906 21.5663 8.87594C21.5594 8.44269 21.5594 8.00945 21.5663 7.57621C21.583 6.5306 22.2578 5.8113 23.2965 5.74048C23.5687 5.72104 23.8422 5.73771 24.163 5.73771C24.163 5.41277 24.1574 5.15727 24.1644 4.90038C24.188 3.92836 24.9031 3.19518 25.871 3.16325C26.3556 3.14797 26.8416 3.15214 27.3276 3.15908C28.4246 3.17574 29.1425 3.89643 29.1564 4.98648C29.1578 5.21143 29.155 5.43638 29.155 5.73632ZM26.6972 4.72681C26.5764 4.72681 26.4514 4.74208 26.3334 4.72403C25.8529 4.65321 25.6682 4.84623 25.7168 5.33224C25.7515 5.67522 25.7279 6.02515 25.7224 6.3723C25.714 7.03188 25.4363 7.30682 24.7642 7.31932C24.3657 7.32626 23.9658 7.33598 23.5673 7.31654C23.2465 7.30127 23.134 7.43874 23.1396 7.74423C23.1701 9.46193 22.9146 9.09672 24.4199 9.13977C24.4365 9.13977 24.4546 9.13977 24.4712 9.13977C25.5252 9.14116 25.7224 9.33556 25.7224 10.3742C25.7238 11.8267 25.7224 11.8198 27.1943 11.7337C27.4817 11.717 27.6011 11.6184 27.5942 11.3296C27.5831 10.8783 27.5331 10.4159 27.615 9.97987C27.6678 9.70215 27.8844 9.39944 28.1163 9.23142C28.2968 9.10089 28.6162 9.14255 28.8745 9.14116C30.2895 9.13283 30.2839 9.13699 30.1812 7.71229C30.1603 7.4318 30.0687 7.30405 29.7743 7.31515C29.3577 7.33043 28.9411 7.32626 28.5246 7.31654C27.8858 7.30266 27.6039 7.02216 27.5928 6.3959C27.5859 6.01404 27.5692 5.63078 27.597 5.25031C27.6275 4.83651 27.472 4.66571 27.0596 4.72125C26.9416 4.74069 26.818 4.72681 26.6972 4.72681Z" fill="#783A35"/>
<path d="M26.6236 25.349C26.0515 25.349 25.4794 25.3573 24.9073 25.3476C24.1838 25.3351 23.752 24.9019 23.745 24.1715C23.7353 23.1134 23.7353 22.0553 23.745 20.9985C23.752 20.2737 24.188 19.8446 24.9226 19.8391C26.0848 19.8307 27.2457 19.8293 28.4079 19.8391C29.1328 19.8446 29.5646 20.2848 29.5702 21.0138C29.5785 22.0719 29.5799 23.13 29.5702 24.1868C29.5632 24.9088 29.1245 25.3365 28.3913 25.3462C27.8025 25.356 27.2137 25.349 26.6236 25.349ZM27.9691 23.7702C27.9691 22.9912 27.9691 22.2108 27.9691 21.4248C27.079 21.4248 26.2181 21.4248 25.3419 21.4248C25.3419 22.2191 25.3419 22.987 25.3419 23.7702C26.2264 23.7702 27.0749 23.7702 27.9691 23.7702Z" fill="#783A35"/>
<path d="M26.6555 27.0041C27.2623 27.0041 27.8692 26.9874 28.476 27.0083C29.1522 27.0319 29.5646 27.4596 29.5716 28.1372C29.5827 29.212 29.5827 30.2868 29.5716 31.3615C29.5646 32.0433 29.1272 32.503 28.4301 32.5154C27.2512 32.5377 26.0723 32.5377 24.8934 32.5154C24.1769 32.5016 23.7506 32.0378 23.745 31.3157C23.7367 30.2756 23.7367 29.2356 23.745 28.1955C23.7506 27.429 24.1602 27.0208 24.9392 27.0027C25.5113 26.9902 26.0834 26.9999 26.6555 26.9999C26.6555 27.0013 26.6555 27.0027 26.6555 27.0041ZM25.328 28.594C25.328 29.3925 25.328 30.1326 25.328 30.8991C26.2278 30.8991 27.1026 30.8991 27.9816 30.8991C27.9816 30.1118 27.9816 29.3592 27.9816 28.594C27.0846 28.594 26.2251 28.594 25.328 28.594Z" fill="#783A35"/>
<path d="M19.3765 25.349C18.7863 25.349 18.1976 25.3574 17.6074 25.3462C16.9201 25.3324 16.4702 24.8908 16.4618 24.2007C16.4479 23.1259 16.4479 22.0511 16.4618 20.9749C16.4702 20.2876 16.9242 19.8446 17.6158 19.8377C18.7947 19.8266 19.9736 19.8266 21.1525 19.8377C21.8468 19.8446 22.2814 20.2779 22.2912 20.9819C22.3064 22.0567 22.3064 23.1314 22.2912 24.2062C22.2801 24.9074 21.8426 25.331 21.1442 25.3435C20.5554 25.3574 19.9653 25.349 19.3765 25.349ZM18.0546 21.4235C18.0546 22.233 18.0546 22.9856 18.0546 23.748C18.9585 23.748 19.8292 23.748 20.6971 23.748C20.6971 22.9551 20.6971 22.2011 20.6971 21.4235C19.8097 21.4235 18.9516 21.4235 18.0546 21.4235Z" fill="#783A35"/>
<path d="M33.9123 25.349C33.3402 25.349 32.7681 25.356 32.196 25.3476C31.4684 25.3365 31.0366 24.9144 31.0268 24.1798C31.0129 23.1217 31.0129 22.065 31.0268 21.0069C31.0366 20.2723 31.4684 19.8446 32.1946 19.8391C33.3569 19.8294 34.5178 19.8294 35.68 19.8391C36.4007 19.8446 36.8506 20.2876 36.8589 21.0055C36.8701 22.0636 36.8701 23.1203 36.8589 24.1784C36.8506 24.8977 36.4021 25.3365 35.6814 25.3476C35.0913 25.356 34.5011 25.349 33.9123 25.349ZM35.2648 23.7605C35.2648 22.9579 35.2648 22.2039 35.2648 21.436C34.3636 21.436 33.493 21.436 32.6182 21.436C32.6182 22.2275 32.6182 22.9815 32.6182 23.7605C33.5041 23.7605 34.3622 23.7605 35.2648 23.7605Z" fill="#783A35"/>
<path d="M19.346 32.5224C18.7905 32.5224 18.2365 32.5335 17.6824 32.5196C16.9048 32.5002 16.466 32.0517 16.4605 31.2782C16.4535 30.2548 16.4521 29.2328 16.4605 28.2094C16.466 27.4443 16.8826 27.0138 17.6477 27.0041C18.8086 26.9902 19.9708 26.9888 21.1317 27.0041C21.8774 27.0138 22.2856 27.4276 22.294 28.1733C22.3064 29.23 22.3078 30.2881 22.2926 31.3463C22.2828 32.0655 21.8454 32.496 21.115 32.5182C20.5249 32.5363 19.9347 32.5224 19.346 32.5224ZM20.704 28.6052C19.7848 28.6052 18.928 28.6052 18.0587 28.6052C18.0587 29.3856 18.0587 30.134 18.0587 30.888C18.9641 30.888 19.832 30.888 20.704 30.888C20.704 30.1048 20.704 29.3675 20.704 28.6052Z" fill="#783A35"/>
<path d="M33.8971 32.5238C33.343 32.5238 32.7876 32.5349 32.2335 32.521C31.4753 32.5016 31.0338 32.0725 31.0254 31.3255C31.0115 30.2687 31.0115 29.2106 31.0254 28.1539C31.0351 27.4416 31.4462 27.018 32.1557 27.0083C33.3347 26.9903 34.5136 26.9916 35.6925 27.0069C36.4229 27.0166 36.8506 27.4554 36.8575 28.1817C36.8686 29.2217 36.8673 30.2618 36.8575 31.3019C36.8506 32.0461 36.4118 32.4863 35.6647 32.5238C35.63 32.5252 35.5953 32.5252 35.5606 32.5252C35.0065 32.5238 34.4525 32.5238 33.8971 32.5238ZM32.6098 28.5955C32.6098 29.3884 32.6098 30.1271 32.6098 30.8992C33.5013 30.8992 34.3733 30.8992 35.2634 30.8992C35.2634 30.116 35.2634 29.3661 35.2634 28.5955C34.372 28.5955 33.5138 28.5955 32.6098 28.5955Z" fill="#783A35"/>
<path d="M6.33617 33.5223C7.02908 33.5223 7.72199 33.5112 8.41491 33.525C8.99534 33.5375 9.37165 33.8805 9.3536 34.3443C9.33555 34.7956 8.97312 35.115 8.41907 35.1192C7.0152 35.1289 5.61271 35.1289 4.20884 35.1192C3.63257 35.115 3.25904 34.7692 3.27432 34.2957C3.2882 33.8403 3.63674 33.5375 4.20607 33.525C4.91564 33.5112 5.6266 33.5223 6.33617 33.5223Z" fill="#783A35"/>
<path d="M6.30005 40.2417C5.58909 40.2417 4.87952 40.2472 4.16855 40.2403C3.62145 40.2347 3.26458 39.9084 3.27291 39.4446C3.28124 38.9947 3.61728 38.6865 4.14217 38.6837C5.58076 38.6767 7.01796 38.6767 8.45654 38.6837C9.00643 38.6865 9.36469 39.0128 9.35497 39.4724C9.34525 39.9306 8.9856 40.2375 8.43155 40.2417C7.72059 40.2472 7.01101 40.2417 6.30005 40.2417Z" fill="#783A35"/>
<path d="M6.27231 45.3766C5.5794 45.3766 4.88649 45.3864 4.19358 45.3739C3.62286 45.3641 3.28127 45.0656 3.27433 44.6032C3.26738 44.1283 3.63953 43.8006 4.22274 43.7992C5.62661 43.7936 7.0291 43.7922 8.43297 43.8006C8.98424 43.8034 9.34666 44.1227 9.35639 44.581C9.36611 45.035 9.00924 45.3641 8.45657 45.3752C7.72756 45.3877 6.99993 45.3766 6.27231 45.3766Z" fill="#783A35"/>
<path d="M6.30561 29.9647C5.59603 29.9647 4.88507 29.9744 4.1755 29.9619C3.61173 29.9522 3.26874 29.6397 3.2743 29.1746C3.27985 28.7177 3.64228 28.3914 4.19077 28.3886C5.61131 28.3803 7.03184 28.3789 8.45238 28.3886C8.99532 28.3928 9.35913 28.733 9.35497 29.1884C9.3508 29.6425 8.99532 29.9536 8.4371 29.9619C7.72614 29.973 7.01518 29.9647 6.30561 29.9647Z" fill="#783A35"/>
<path d="M46.9735 33.5223C47.6664 33.5223 48.3593 33.514 49.0522 33.5251C49.684 33.5348 50.0589 33.8528 50.0437 34.3416C50.0298 34.8109 49.6562 35.1192 49.0633 35.122C47.6942 35.1289 46.3264 35.1289 44.9572 35.122C44.3407 35.1192 43.9505 34.7873 43.963 34.3027C43.9755 33.8361 44.3421 33.5362 44.9447 33.5265C45.621 33.514 46.2972 33.5223 46.9735 33.5223Z" fill="#783A35"/>
<path d="M47.0554 38.681C47.7664 38.681 48.476 38.674 49.1869 38.6838C49.7076 38.6907 50.0465 39.0059 50.0465 39.4558C50.0465 39.9016 49.6993 40.2362 49.1897 40.239C47.7344 40.2473 46.2792 40.2473 44.8239 40.239C44.3129 40.2362 43.9658 39.9043 43.963 39.46C43.9616 39.017 44.3074 38.6907 44.8198 38.6838C45.5641 38.6726 46.3097 38.681 47.0554 38.681Z" fill="#783A35"/>
<path d="M46.993 45.3766C46.282 45.3766 45.5724 45.3878 44.8628 45.3739C44.313 45.3628 43.9547 45.0323 43.963 44.5796C43.9714 44.1214 44.3324 43.802 44.8851 43.7992C46.3056 43.7923 47.7261 43.7909 49.1467 43.7992C49.6896 43.802 50.0493 44.1422 50.0423 44.6018C50.0354 45.0531 49.7104 45.3586 49.1758 45.3711C48.4482 45.3877 47.7206 45.3766 46.993 45.3766Z" fill="#783A35"/>
<path d="M46.9665 29.9647C46.2736 29.9647 45.5807 29.9731 44.8878 29.962C44.3282 29.9536 43.9713 29.6454 43.9644 29.1941C43.956 28.7192 44.3296 28.3901 44.9128 28.3873C46.3153 28.3803 47.7191 28.3803 49.1216 28.3873C49.6715 28.3901 50.0353 28.7136 50.0437 29.1677C50.0534 29.6342 49.7104 29.9508 49.148 29.9606C48.4218 29.9745 47.6941 29.9647 46.9665 29.9647Z" fill="#783A35"/>
<path d="M23.9658 46.0002C23.9658 46.364 23.9811 46.7278 23.9616 47.0903C23.938 47.543 23.6506 47.7749 23.2285 47.8248C22.8383 47.8707 22.4328 47.5388 22.4147 47.1139C22.3814 46.371 22.3842 45.6253 22.412 44.8824C22.4286 44.4492 22.8049 44.1367 23.2076 44.1437C23.6228 44.1506 23.9366 44.4533 23.9644 44.9102C23.9866 45.2726 23.9686 45.6364 23.9686 46.0002C23.9672 46.0002 23.9658 46.0002 23.9658 46.0002Z" fill="#783A35"/>
<path d="M30.9185 46.0114C30.9185 46.3238 30.9282 46.6349 30.9157 46.9473C30.8963 47.4555 30.57 47.8124 30.1353 47.8221C29.6979 47.8318 29.3577 47.4861 29.3452 46.9737C29.3286 46.2988 29.3286 45.6226 29.3466 44.9477C29.3605 44.4631 29.6868 44.134 30.1089 44.1271C30.5436 44.1201 30.8824 44.4742 30.9171 44.9741C30.9199 45.0088 30.9185 45.0435 30.9185 45.0782C30.9185 45.3879 30.9185 45.6989 30.9185 46.0114Z" fill="#783A35"/>
</g>
<defs>
<clipPath id="clip0_1850_11273">
<rect width="53.3208" height="53" fill="white"/>
</clipPath>
</defs>
</svg>
