<svg width="53" height="53" viewBox="0 0 53 53" fill="none" xmlns="http://www.w3.org/2000/svg">
<path d="M0.00141589 51.9601C0.248535 51.5422 0.617274 51.405 1.0934 51.4374C1.53589 51.4671 1.98355 51.4438 2.45967 51.4438C2.47132 51.2549 2.48684 51.1061 2.48684 50.9561C2.48814 48.8174 2.49719 46.6787 2.47649 44.5387C2.4739 44.2929 2.35746 44.0121 2.20867 43.809C1.62904 43.0185 1.46861 42.1762 1.87357 41.2809C2.27466 40.3946 2.9772 39.8629 3.96956 39.8473C5.83136 39.8189 7.69446 39.8305 9.55756 39.8253C9.76069 39.8253 9.96382 39.8253 10.1954 39.8253C10.2148 39.6623 10.2394 39.5472 10.242 39.432C10.3507 34.4314 10.4568 29.4308 10.5654 24.4302C10.6327 21.3095 10.7026 18.1875 10.7738 15.0668C10.7893 14.3889 11.0817 14.0926 11.7648 14.09C13.2656 14.0822 14.7665 14.0848 16.2673 14.0887C17.0449 14.0913 17.3127 14.3384 17.3347 15.1496C17.3968 17.494 17.4382 19.8397 17.4887 22.1854C17.5909 26.8419 17.6957 31.497 17.7992 36.1535C17.8018 36.2531 17.8186 36.3514 17.8315 36.4769C18.5367 36.4769 19.2185 36.4769 19.9443 36.4769C20.0259 35.2737 20.1112 34.0937 20.1837 32.9125C20.3635 29.9871 20.5356 27.0618 20.7168 24.1365C20.7543 23.5271 21.0583 23.2243 21.6742 23.214C22.6743 23.1972 23.6757 23.1972 24.6758 23.214C25.3163 23.2243 25.6022 23.5129 25.6449 24.1792C25.7976 26.5883 25.9347 28.9974 26.0835 31.4065C26.187 33.0884 26.3022 34.7704 26.4134 36.4769C27.028 36.4769 27.6063 36.4769 28.239 36.4769C28.3153 35.3565 28.3982 34.2451 28.4667 33.1337C28.6504 30.1566 28.8238 27.1796 29.0101 24.2025C29.0567 23.4689 29.3517 23.214 30.1112 23.2088C31.0078 23.2024 31.9057 23.2036 32.8023 23.2088C33.6368 23.2127 33.8982 23.4909 33.9486 24.3176C34.188 28.3104 34.4377 32.3018 34.6848 36.2932C34.6874 36.3411 34.7133 36.389 34.7392 36.4692C35.3136 36.4692 35.892 36.4692 36.5311 36.4692C36.5945 35.5971 36.6631 34.7277 36.7174 33.857C36.8701 31.4142 37.0163 28.9702 37.1664 26.5262C37.2168 25.7007 37.2556 24.8727 37.3359 24.0498C37.3928 23.4689 37.6671 23.2231 38.2532 23.2127C39.2701 23.1946 40.2884 23.192 41.3066 23.214C41.9199 23.2269 42.189 23.5375 42.2278 24.1637C42.471 28.1215 42.7207 32.078 42.951 36.037C42.9743 36.4381 43.136 36.5145 43.4944 36.5106C44.9772 36.4951 46.4612 36.4834 47.9452 36.5106C49.5366 36.539 50.6376 37.6491 50.4785 39.1215C50.4267 39.6054 50.1059 40.0595 49.9118 40.5279C49.8303 40.7245 49.6918 40.9251 49.6905 41.1243C49.6776 44.4702 49.6815 47.8173 49.6815 51.1631C49.6815 51.2304 49.6905 51.2989 49.7022 51.4438C50.4008 51.4438 51.1008 51.4425 51.7995 51.4451C51.9884 51.4451 52.185 51.4244 52.3662 51.4658C52.7646 51.5577 52.9949 51.8229 52.9859 52.2421C52.9768 52.6367 52.7478 52.8839 52.3726 52.9718C52.2083 53.0107 52.0298 52.9925 51.8577 52.9925C34.9526 52.9938 18.0489 52.9912 1.14386 53.0003C0.65997 53.0003 0.257592 52.924 0.00012207 52.4776C0.00141589 52.3055 0.00141589 52.1321 0.00141589 51.9601ZM48.1069 41.3934C47.592 41.3934 47.1288 41.396 46.6643 41.3922C46.0096 41.387 45.6564 41.1166 45.6461 40.6197C45.6357 40.11 45.9682 39.8447 46.6306 39.8253C47.1805 39.8085 47.7343 39.8202 48.279 39.7529C48.7435 39.6947 48.9505 39.322 48.9246 38.8912C48.8987 38.4578 48.6335 38.1602 48.1794 38.0916C48.0267 38.0683 47.8701 38.0787 47.7149 38.0787C36.883 38.0787 26.0499 38.0787 15.218 38.0787C15.0628 38.0787 14.9036 38.0657 14.7535 38.0955C14.3098 38.1835 14.0497 38.4642 14.0355 38.9158C14.0225 39.3376 14.2231 39.6533 14.6513 39.7529C14.8997 39.8098 15.1624 39.824 15.4186 39.824C24.4572 39.8279 33.4958 39.8266 42.5331 39.8279C42.757 39.8279 42.9834 39.8253 43.2046 39.8512C43.6044 39.8978 43.8787 40.1721 43.8451 40.5318C43.8192 40.8048 43.5928 41.1088 43.3676 41.2938C43.2124 41.4206 42.9083 41.3896 42.6703 41.3896C33.6317 41.3934 24.593 41.3934 15.5557 41.3934C15.3358 41.3934 15.1145 41.3934 14.8635 41.3934C14.8635 44.7613 14.8635 48.0799 14.8635 51.4115C25.9593 51.4115 37.0228 51.4115 48.1069 51.4115C48.1069 48.076 48.1069 44.7703 48.1069 41.3934ZM13.2385 51.4154C13.2475 51.2976 13.2579 51.2148 13.2579 51.1307C13.2592 47.7862 13.2631 44.4404 13.2488 41.0959C13.2475 40.8979 13.1389 40.6728 13.0146 40.5098C12.4208 39.7309 12.2513 38.886 12.6485 37.9868C13.0405 37.0993 13.7392 36.5804 14.7303 36.53C15.2232 36.5054 15.7174 36.5261 16.2363 36.5261C16.081 29.5227 15.927 22.6188 15.7731 15.6956C14.5853 15.6956 13.4727 15.6956 12.3302 15.6956C12.0663 27.6143 11.8036 39.4993 11.5397 51.4154C12.1271 51.4154 12.655 51.4154 13.2385 51.4154ZM4.07953 44.7496C4.07953 46.9866 4.07953 49.2016 4.07953 51.405C6.05649 51.405 7.99463 51.405 10.0246 51.405C10.0246 49.1654 10.0246 46.9659 10.0246 44.7302C9.89913 44.725 9.73223 44.7121 9.56403 44.7108C8.85761 44.7082 8.14989 44.7237 7.44346 44.7017C6.96604 44.6875 6.63871 44.3459 6.63612 43.9242C6.63483 43.5063 6.96475 43.1841 7.44217 43.1556C7.666 43.1427 7.88983 43.1492 8.11495 43.1492C8.78127 43.1492 9.44759 43.1492 10.1411 43.1492C10.1411 42.5359 10.1411 41.9925 10.1411 41.3947C9.93406 41.3947 9.74905 41.3947 9.56274 41.3947C7.87301 41.3947 6.18328 41.3947 4.49356 41.3947C3.68751 41.3947 3.31359 41.6276 3.23855 42.171C3.17127 42.6614 3.48438 42.9189 4.24255 43.1906C4.49485 43.2811 4.7976 43.6085 4.82089 43.8517C4.84418 44.0962 4.56213 44.3809 4.38358 44.6267C4.32536 44.7056 4.17139 44.7147 4.07953 44.7496ZM30.5562 24.8352C30.313 28.7257 30.0711 32.5877 29.8278 36.4614C30.9509 36.4614 32.0234 36.4614 33.1284 36.4614C32.8825 32.5541 32.6406 28.692 32.3973 24.8352C31.7479 24.8352 31.1695 24.8352 30.5562 24.8352ZM24.8311 36.4782C24.5866 32.5774 24.3446 28.7063 24.104 24.8481C23.4545 24.8481 22.8632 24.8481 22.2551 24.8481C22.0119 28.7464 21.7712 32.6019 21.5293 36.4782C22.6614 36.4782 23.7223 36.4782 24.8311 36.4782ZM38.8509 24.8326C38.6077 28.7451 38.3683 32.5929 38.1264 36.4743C39.2417 36.4743 40.3013 36.4743 41.4243 36.4743C41.1811 32.58 40.9391 28.7192 40.6959 24.8326C40.0606 24.8326 39.4823 24.8326 38.8509 24.8326Z" fill="#783A35"/>
<path d="M44.1956 0C44.6937 0.113856 45.197 0.21348 45.6912 0.344156C49.4756 1.34169 52.3829 4.65904 52.8926 8.55344C53.577 13.7805 50.2532 18.5818 45.056 19.5923C41.0852 20.3647 37.7485 19.067 35.2216 15.8739C34.862 15.4197 34.5916 15.2994 34.0106 15.4366C31.5705 16.011 29.3749 15.4521 27.4432 13.8452C27.297 13.7235 27.0369 13.5929 26.8882 13.642C24.646 14.3834 22.6444 13.9784 21 12.5513C20.1797 12.77 19.4707 13.0106 18.7423 13.1374C18.2273 13.228 17.8702 12.889 17.8353 12.4414C17.803 12.0183 18.1368 11.647 18.6452 11.6094C19.2831 11.5616 19.7851 11.2899 20.2315 10.8435C20.7257 10.348 21.1112 10.3777 21.5964 10.8901C23.1322 12.5099 24.7844 12.8554 26.7782 11.9445C27.2841 11.7129 27.6528 11.8216 28.0202 12.2085C29.2765 13.5333 30.8265 14.188 32.6521 14.0677C33.2589 14.0276 33.8696 13.8542 34.4531 13.664C35.2812 13.3923 35.4713 13.4169 35.9397 14.1751C37.0433 15.9618 38.5856 17.1703 40.5781 17.8456C45.3445 19.4616 50.7475 16.0783 51.3439 11.0854C51.9313 6.16246 48.6062 2.01836 43.6742 1.59916C41.4061 1.40638 39.3929 2.12316 37.6605 3.5994C36.8635 4.27866 36.7328 4.29419 35.8892 3.65763C33.4077 1.78418 30.2223 2.02095 28.0616 4.23984C27.5571 4.75867 27.3423 4.79877 26.6928 4.49731C24.3329 3.40016 21.7957 4.45591 20.8887 6.91287C20.5756 7.76033 20.2832 7.8923 19.4396 7.56625C18.1031 7.04873 16.8132 7.76033 16.5518 9.16024C16.394 10.0051 16.0589 10.2095 15.2567 9.95335C14.624 9.75151 14.2268 10.0025 14.0172 10.652C13.9241 10.9405 13.7585 11.2886 13.5191 11.4283C12.9861 11.7388 12.3948 11.2291 12.4452 10.555C12.5332 9.37501 13.4997 8.38783 14.7004 8.31149C15.0471 8.2895 15.1933 8.17047 15.3382 7.86383C16.0291 6.39793 17.6192 5.5893 19.2313 5.87523C19.5211 5.92698 19.6272 5.81701 19.7489 5.59835C20.9327 3.47132 22.7544 2.43755 25.179 2.50871C25.703 2.52424 26.2192 2.72608 26.7445 2.79982C26.9477 2.82829 27.2297 2.81664 27.3707 2.69891C30.0528 0.450249 33.3948 0.208305 36.3757 2.07658C36.6112 2.22407 36.7742 2.29782 37.0459 2.08434C38.4562 0.974246 40.0553 0.296285 41.8447 0.0879797C41.9081 0.0802168 41.9663 0.0323455 42.0258 0.00258764C42.7465 0 43.471 0 44.1956 0Z" fill="#783A35"/>
<path d="M20.67 44.7402C20.6493 45.0715 20.6455 45.3975 20.6028 45.7197C20.5497 46.1143 20.278 46.3265 19.9028 46.351C19.5211 46.3769 19.1783 46.1828 19.1459 45.8025C19.0877 45.1103 19.0864 44.4064 19.1407 43.7129C19.1705 43.3313 19.4978 43.145 19.8912 43.1631C20.2832 43.1799 20.5407 43.3856 20.5989 43.775C20.648 44.0946 20.648 44.422 20.67 44.7402Z" fill="#783A35"/>
<path d="M22.352 44.6822C22.3818 44.3691 22.3844 44.0418 22.4491 43.7261C22.528 43.3405 22.8061 43.1529 23.1982 43.1632C23.5902 43.1736 23.8852 43.3754 23.9098 43.7636C23.9512 44.426 23.9512 45.0949 23.9059 45.7561C23.8787 46.1455 23.563 46.3486 23.1839 46.3512C22.8023 46.3551 22.5176 46.1507 22.4478 45.7638C22.3818 45.4145 22.3818 45.0522 22.352 44.6822Z" fill="#783A35"/>
<path d="M30.6402 44.7361C30.6118 45.0945 30.6131 45.4219 30.5548 45.7389C30.4798 46.1464 30.1913 46.3664 29.785 46.3508C29.4072 46.3366 29.1019 46.1244 29.0799 45.7324C29.0424 45.07 29.0437 44.401 29.0876 43.7386C29.1122 43.3738 29.3995 43.181 29.7669 43.1629C30.1563 43.1435 30.4513 43.3142 30.5341 43.6998C30.6105 44.0465 30.6105 44.4101 30.6402 44.7361Z" fill="#783A35"/>
<path d="M33.9188 44.742C33.9188 45.0331 33.9511 45.3294 33.911 45.6154C33.8515 46.0514 33.5992 46.358 33.1322 46.3515C32.6741 46.3464 32.3934 46.0643 32.3688 45.6102C32.3378 45.0461 32.3352 44.4794 32.3649 43.9153C32.3882 43.4715 32.6327 43.1804 33.1102 43.161C33.5514 43.1429 33.8632 43.4249 33.9175 43.9192C33.9473 44.1896 33.9227 44.4664 33.9227 44.7407C33.9214 44.742 33.9201 44.742 33.9188 44.742Z" fill="#783A35"/>
<path d="M27.3164 44.7582C27.2918 45.0791 27.2918 45.4064 27.2388 45.7247C27.1702 46.1348 26.8868 46.3574 26.4819 46.3509C26.1028 46.3457 25.791 46.1361 25.7651 45.7467C25.7224 45.0855 25.7211 44.4166 25.7664 43.7555C25.7923 43.3674 26.0924 43.1668 26.4845 43.1629C26.9024 43.1578 27.1728 43.3738 27.2401 43.784C27.2931 44.101 27.2931 44.4283 27.3164 44.7582Z" fill="#783A35"/>
<path d="M43.8747 44.7739C43.8747 45.0326 43.8902 45.2927 43.8721 45.5502C43.8385 46.0341 43.5189 46.3575 43.0958 46.3601C42.6766 46.364 42.3428 46.0353 42.3247 45.5579C42.3053 45.0236 42.3053 44.4879 42.3234 43.9549C42.3402 43.4594 42.6443 43.1605 43.0867 43.1592C43.5266 43.1579 43.8372 43.4581 43.8708 43.9471C43.8902 44.2214 43.8747 44.4983 43.8747 44.7739Z" fill="#783A35"/>
<path d="M37.2426 44.7816C37.2426 45.0404 37.2607 45.3005 37.2387 45.5579C37.196 46.0392 36.8674 46.3614 36.4508 46.3601C36.0341 46.3588 35.7068 46.0405 35.6835 45.5515C35.6589 45.0184 35.6576 44.4815 35.6848 43.9484C35.7107 43.4348 36.007 43.1579 36.4572 43.1592C36.8958 43.1605 37.1986 43.4529 37.24 43.9536C37.262 44.2279 37.2426 44.5048 37.2426 44.7816Z" fill="#783A35"/>
<path d="M39.0074 44.7174C39.0074 44.4418 38.9906 44.1649 39.0113 43.8906C39.0436 43.4533 39.2856 43.1932 39.7306 43.1635C40.1861 43.1337 40.4875 43.3886 40.5263 43.8078C40.5833 44.4224 40.5794 45.0486 40.5341 45.6657C40.5031 46.0875 40.2055 46.3437 39.763 46.3566C39.3632 46.3683 39.0423 46.0461 39.0087 45.5959C38.9867 45.3048 39.0048 45.0098 39.0048 44.7174C39.0061 44.7174 39.0061 44.7174 39.0074 44.7174Z" fill="#783A35"/>
</svg>
