<svg width="53" height="53" viewBox="0 0 53 53" fill="none" xmlns="http://www.w3.org/2000/svg">
<g clip-path="url(#clip0_1850_11242)">
<path d="M26.01 52.9986C17.7269 52.9986 9.44514 52.9986 1.16198 52.9986C0.379744 52.9986 0.0170709 52.7298 3.91452e-06 52.1439C-0.0156408 51.6233 0.30152 51.2578 0.824907 51.228C1.19754 51.2066 1.57159 51.2109 1.94421 51.2223C2.24146 51.2308 2.36947 51.1014 2.35382 50.8084C2.34529 50.6491 2.35382 50.4884 2.35382 50.3291C2.35382 41.4415 2.35382 32.5553 2.35382 23.6677C2.35382 23.3491 2.32111 23.0248 2.506 22.7361C2.73641 22.3763 3.08486 22.3108 3.47882 22.3123C5.73592 22.318 7.99303 22.3151 10.2501 22.3151C11.1348 22.3151 11.1348 22.3151 11.1348 21.4035C11.1348 18.4352 11.1348 15.467 11.1362 12.4988C11.1362 12.2499 11.1376 11.9996 11.1689 11.7549C11.2514 11.0979 11.5614 10.812 12.2256 10.8063C13.5227 10.7949 14.8212 10.802 16.1183 10.802C18.9273 10.802 21.7348 10.7921 24.5437 10.8106C25.0244 10.8134 25.188 10.6854 25.1837 10.1833C25.1624 7.17956 25.1723 4.17578 25.1738 1.172C25.1738 0.285936 25.434 0.0228202 26.3116 0.0228202C28.8176 0.021398 31.325 0.0583764 33.8296 0.00433102C34.8749 -0.0184249 35.2276 0.87759 34.7298 1.62C34.3444 2.19459 34.04 2.82322 33.6617 3.40208C33.4441 3.73488 33.4612 4.00369 33.666 4.32796C34.0358 4.91393 34.3828 5.51411 34.7241 6.11715C35.2475 7.04161 34.8493 7.7442 33.7769 7.75131C31.7332 7.76553 29.688 7.77122 27.6456 7.74562C27.1237 7.73851 26.8989 7.86224 26.943 8.42545C26.99 9.00857 26.9843 9.60023 26.9445 10.1833C26.9089 10.6897 27.1037 10.812 27.5845 10.8106C31.5483 10.7949 35.5121 10.802 39.4759 10.802C40.7374 10.802 40.9906 11.0552 40.992 12.3409C40.9948 15.3802 40.9934 18.4196 40.9934 21.4589C40.9934 22.3151 40.9948 22.3165 41.8254 22.3165C44.0655 22.3165 46.3041 22.3151 48.5441 22.318C49.4899 22.3194 49.7743 22.6067 49.7743 23.5653C49.7758 32.5055 49.7758 41.4457 49.7758 50.3874C49.7758 51.2237 49.7758 51.2237 50.6135 51.2237C50.8439 51.2237 51.0771 51.2137 51.3061 51.2308C51.8082 51.2664 52.1225 51.6048 52.1296 52.0984C52.1367 52.6161 51.8139 52.9645 51.2848 52.9986C51.0899 53.0115 50.8937 53.0043 50.6988 53.0043C42.4697 52.9986 34.2406 52.9986 26.01 52.9986ZM4.21981 37.6683C4.21981 41.9521 4.21981 46.2373 4.21981 50.5211C4.21981 51.2166 4.22265 51.218 4.93378 51.218C9.71537 51.218 14.4984 51.2095 19.28 51.2308C19.8247 51.2336 19.9712 51.0758 19.9669 50.5396C19.9442 47.0195 19.9541 43.4995 19.957 39.9794C19.957 39.0237 20.2428 38.7392 21.1943 38.7392C24.4114 38.7378 27.63 38.7378 30.8471 38.7392C31.9138 38.7392 32.1726 38.9938 32.1726 40.0534C32.1741 43.5549 32.1826 47.0579 32.1627 50.5595C32.1598 51.0601 32.2878 51.2322 32.8141 51.2308C37.6312 51.2123 42.4498 51.2123 47.2669 51.2308C47.7974 51.2322 47.9183 51.053 47.9169 50.5567C47.9041 41.9876 47.9041 33.4186 47.9183 24.8496C47.9197 24.3191 47.7718 24.1413 47.2271 24.1427C42.0359 24.1598 36.8447 24.1583 31.6535 24.1441C31.1415 24.1427 30.9794 24.3063 30.9851 24.8168C31.0064 27.2162 30.995 29.6169 30.995 32.0163C30.995 32.2822 31.005 32.5496 30.8898 32.8028C30.7262 33.1612 30.4574 33.366 30.0592 33.3617C29.6425 33.3574 29.3594 33.1526 29.2073 32.7587C29.1148 32.5169 29.129 32.2694 29.129 32.0219C29.1276 29.6041 29.1191 27.1863 29.1361 24.7685C29.139 24.3077 28.9982 24.1086 28.5274 24.1498C28.2273 24.1754 27.9215 24.1768 27.6214 24.1498C27.1222 24.1029 26.9274 24.2764 26.9416 24.8055C26.9757 26.0129 26.953 27.2233 26.953 28.4322C26.953 30.3693 26.9573 32.3078 26.9501 34.2449C26.9473 34.9404 26.4751 35.3827 25.8948 35.2604C25.4127 35.1594 25.1752 34.811 25.1752 34.1724C25.1723 31.3279 25.1738 28.4834 25.1738 25.6389C25.1738 24.1413 25.1738 24.1626 23.6861 24.1441C23.1499 24.137 22.9807 24.302 22.9863 24.8424C23.0119 27.2247 22.9977 29.607 22.9963 31.9892C22.9963 32.1841 23.0077 32.3846 22.9693 32.5738C22.874 33.0403 22.5995 33.3432 22.1003 33.3617C21.5997 33.3802 21.3024 33.0957 21.1829 32.6335C21.1303 32.4315 21.1346 32.2111 21.1346 31.9992C21.1317 29.6354 21.1332 27.2702 21.1317 24.9064C21.1317 24.1583 21.1303 24.1555 20.4007 24.1555C15.2451 24.1541 10.0894 24.1541 4.93378 24.1555C4.23119 24.1555 4.21981 24.1683 4.21839 24.8709C4.21839 29.1348 4.21981 33.4015 4.21981 37.6683ZM26.0684 22.3123C30.2085 22.3123 34.3501 22.3052 38.4902 22.3222C38.9895 22.3236 39.1658 22.2013 39.1615 21.6723C39.1374 18.8818 39.1374 16.0914 39.1615 13.3023C39.1658 12.769 38.9795 12.6538 38.4846 12.6538C30.2028 12.6666 21.9211 12.6666 13.6408 12.6538C13.1387 12.6524 12.9652 12.7832 12.9695 13.308C12.9936 16.0629 12.9808 18.8164 12.9808 21.5713C12.9808 22.3094 12.9823 22.3108 13.6991 22.3108C17.8222 22.3123 21.9453 22.3123 26.0684 22.3123ZM25.1752 45.8746C25.1752 44.276 25.161 42.6774 25.1837 41.0802C25.1908 40.6294 25.033 40.4943 24.5992 40.5099C23.8368 40.5383 23.0717 40.527 22.3094 40.5142C21.9851 40.5085 21.8187 40.5981 21.8187 40.9608C21.8258 44.2277 21.8258 47.496 21.8187 50.7629C21.8173 51.1128 21.9581 51.2294 22.2951 51.2223C23.0759 51.2066 23.8582 51.1967 24.639 51.2265C25.0714 51.2422 25.1866 51.08 25.1823 50.669C25.1652 49.0718 25.1752 47.4732 25.1752 45.8746ZM26.9558 45.8675C26.9558 47.4832 26.9629 49.0988 26.9501 50.7145C26.9473 51.0687 27.0426 51.2336 27.4294 51.2237C28.2273 51.2024 29.028 51.2038 29.8259 51.2237C30.2085 51.2336 30.3123 51.0729 30.3123 50.7174C30.3038 47.486 30.3024 44.2533 30.3138 41.0219C30.3152 40.6152 30.1559 40.5014 29.7747 40.5127C29.0295 40.5341 28.2814 40.5455 27.5375 40.5085C27.0511 40.4843 26.9388 40.6735 26.9445 41.1257C26.9701 42.7059 26.9558 44.2874 26.9558 45.8675ZM29.6908 1.79921C28.9285 1.79921 28.1647 1.80632 27.4024 1.79494C27.0938 1.79067 26.9487 1.89023 26.9516 2.22161C26.9629 3.30394 26.9601 4.38485 26.953 5.46718C26.9516 5.75163 27.0483 5.89243 27.3512 5.89101C28.9114 5.88532 30.473 5.88532 32.0333 5.89243C32.3689 5.89385 32.3988 5.77012 32.2423 5.51269C32.0404 5.17988 31.854 4.8357 31.6478 4.50574C31.3748 4.06911 31.3662 3.6467 31.6492 3.21007C31.8228 2.94269 31.9764 2.66109 32.1342 2.38517C32.467 1.80205 32.467 1.80063 31.8185 1.79921C31.1088 1.79636 30.4005 1.79778 29.6908 1.79921Z" fill="#783A35"/>
<path d="M17.8876 37.6868C17.8876 40.8485 17.889 44.0116 17.8862 47.1732C17.8862 48.0764 17.5761 48.3964 16.6773 48.3978C13.6038 48.402 10.5303 48.402 7.45685 48.3978C6.63763 48.3964 6.34038 48.119 6.25931 47.3027C6.23656 47.0737 6.23514 46.8418 6.23514 46.6114C6.23371 40.6423 6.23371 34.6731 6.23514 28.7054C6.23514 27.0925 6.41718 26.9133 8.04423 26.9133C10.8517 26.9133 13.6578 26.9133 16.4654 26.9133C17.6231 26.9133 17.8876 27.1736 17.8876 28.3071C17.8876 31.4332 17.8876 34.5607 17.8876 37.6868ZM9.58879 31.8187C9.94293 31.8187 10.2985 31.8087 10.6526 31.8215C10.9869 31.8343 11.1433 31.7006 11.1376 31.3564C11.1277 30.6467 11.1305 29.937 11.1362 29.2287C11.139 28.9215 11.0182 28.7736 10.6953 28.7779C9.96853 28.7879 9.24034 28.7893 8.51358 28.7765C8.19926 28.7708 8.05846 28.8888 8.07126 29.2117C8.0869 29.5829 8.0741 29.9569 8.0741 30.3296C8.0741 31.8201 8.0741 31.8201 9.58879 31.8187ZM16.0387 30.2969C16.0387 29.9598 16.0273 29.6227 16.0415 29.2856C16.0557 28.9343 15.9334 28.7637 15.5523 28.7722C14.844 28.7907 14.1343 28.785 13.4246 28.7736C13.1145 28.7694 12.9709 28.876 12.9766 29.2046C12.9894 29.9313 12.9894 30.6581 12.9766 31.3849C12.9709 31.712 13.1131 31.8286 13.4232 31.8187C13.7958 31.8073 14.1684 31.8172 14.5396 31.8172C16.0401 31.8201 16.0401 31.8201 16.0387 30.2969ZM9.60302 33.6861C9.23039 33.6861 8.85776 33.6946 8.48655 33.6832C8.19499 33.6747 8.06983 33.7956 8.07268 34.0928C8.08263 34.8381 8.08263 35.5819 8.07268 36.3272C8.06841 36.6344 8.22059 36.7268 8.50077 36.724C9.22754 36.7169 9.95431 36.7154 10.6811 36.724C10.9925 36.7282 11.1419 36.6031 11.1362 36.2859C11.1291 35.9318 11.1376 35.5762 11.1376 35.2221C11.1376 33.6846 11.1376 33.6846 9.60302 33.6861ZM14.5012 36.7211C14.8739 36.7211 15.2465 36.7155 15.6177 36.7226C15.9078 36.7283 16.0387 36.596 16.0373 36.3073C16.033 35.5634 16.0358 34.8182 16.0358 34.0743C16.0358 33.8141 15.9164 33.6846 15.6476 33.6861C14.8852 33.6903 14.1229 33.6903 13.3606 33.6846C13.0904 33.6832 12.9752 33.8041 12.9808 34.0715C12.988 34.4441 12.9808 34.8153 12.9808 35.188C12.9808 36.724 12.9809 36.724 14.5012 36.7211ZM9.59022 38.5914C9.21759 38.5914 8.84496 38.5957 8.47233 38.59C8.21633 38.5857 8.07126 38.6767 8.0741 38.9583C8.07979 39.7207 8.07979 40.483 8.0741 41.2467C8.07126 41.5184 8.19357 41.6307 8.45953 41.6293C9.20479 41.625 9.95004 41.6222 10.6939 41.6307C11.0153 41.635 11.1419 41.4885 11.1362 41.1799C11.1291 40.8257 11.1362 40.4702 11.1376 40.116C11.1376 38.59 11.1376 38.59 9.59022 38.5914ZM14.5027 38.5914C14.13 38.5914 13.7574 38.5985 13.3862 38.5885C13.0889 38.58 12.9766 38.7137 12.9794 39.0053C12.9894 39.7491 12.9865 40.4944 12.9808 41.2396C12.9794 41.5056 13.0889 41.6307 13.3592 41.6293C14.1215 41.625 14.8838 41.625 15.6461 41.6279C15.9135 41.6293 16.0358 41.4999 16.0358 41.2396C16.0373 40.867 16.0401 40.4944 16.0401 40.1232C16.0401 38.59 16.0401 38.59 14.5027 38.5914ZM9.59022 46.5318C9.96284 46.5318 10.3355 46.5261 10.7067 46.5332C10.9925 46.5389 11.1362 46.418 11.1348 46.1265C11.1319 45.3812 11.1319 44.6374 11.1348 43.8921C11.1362 43.5934 10.9755 43.4925 10.6967 43.4953C9.96995 43.501 9.24319 43.5053 8.51642 43.4939C8.2021 43.4896 8.05988 43.6062 8.0741 43.9305C8.08975 44.2846 8.07695 44.6402 8.07695 44.9943C8.0741 46.5346 8.0741 46.5346 9.59022 46.5318ZM16.0387 45.0157C16.0387 44.6786 16.0273 44.3415 16.0415 44.0059C16.0557 43.6546 15.932 43.4839 15.5523 43.4939C14.844 43.5124 14.1343 43.5067 13.426 43.4953C13.116 43.491 12.9723 43.5977 12.978 43.9262C12.9908 44.653 12.9908 45.3798 12.978 46.1065C12.9723 46.4351 13.116 46.5474 13.426 46.5375C13.7972 46.5247 14.1698 46.5361 14.5425 46.5361C16.0401 46.5346 16.0401 46.5346 16.0387 45.0157Z" fill="#783A35"/>
<path d="M33.8153 37.6555C33.8153 34.4739 33.8139 31.291 33.8168 28.1094C33.8168 27.2404 34.1268 26.9176 35.0001 26.9161C38.075 26.9104 41.1513 26.9104 44.2262 26.9161C45.0966 26.9176 45.4081 27.2432 45.4081 28.1137C45.4095 34.4782 45.4095 40.8413 45.4081 47.2059C45.4081 48.0749 45.0952 48.3963 44.2219 48.3977C41.147 48.4034 38.0707 48.4034 34.9958 48.3977C34.124 48.3963 33.8168 48.0763 33.8168 47.2016C33.8153 44.0201 33.8153 40.8371 33.8153 37.6555ZM37.1647 28.7807C36.775 28.7807 36.3839 28.785 35.9942 28.7793C35.7368 28.775 35.596 28.8703 35.5974 29.1491C35.6031 29.9114 35.6031 30.6737 35.5974 31.436C35.5946 31.7077 35.7197 31.82 35.9828 31.8186C36.7622 31.8143 37.543 31.8143 38.3224 31.8186C38.5799 31.82 38.7207 31.7247 38.7192 31.446C38.7135 30.6837 38.7135 29.9213 38.7207 29.159C38.7235 28.8874 38.5998 28.7736 38.3338 28.7779C37.9441 28.785 37.5544 28.7807 37.1647 28.7807ZM42.0388 31.82C42.0743 31.82 42.1099 31.82 42.1454 31.82C43.6246 31.82 43.6246 31.82 43.6246 30.348C43.6246 28.7779 43.6246 28.7779 42.0345 28.7779C40.5027 28.7779 40.5027 28.7779 40.5027 30.2997C40.5027 31.82 40.5027 31.82 42.0388 31.82ZM37.1533 36.7211C37.543 36.7211 37.9327 36.7168 38.3224 36.7225C38.5784 36.7254 38.7221 36.6329 38.7207 36.3527C38.715 35.5904 38.715 34.8281 38.7221 34.0658C38.7249 33.7941 38.6026 33.6832 38.3366 33.6846C37.5573 33.6903 36.7764 33.6889 35.9971 33.6846C35.7396 33.6832 35.5974 33.7728 35.5988 34.053C35.6045 34.8153 35.6045 35.5776 35.5988 36.3399C35.596 36.6116 35.7197 36.7254 35.9843 36.7225C36.3725 36.7168 36.7622 36.7211 37.1533 36.7211ZM42.0302 36.7239C42.0658 36.7239 42.1013 36.7239 42.1369 36.7239C43.6246 36.7239 43.6246 36.7239 43.6246 35.2619C43.6246 33.686 43.6246 33.686 42.0416 33.686C40.5027 33.686 40.5027 33.686 40.5027 35.1993C40.5027 36.7239 40.5027 36.7239 42.0302 36.7239ZM37.1548 41.6293C37.5274 41.6293 37.9 41.6207 38.2712 41.6321C38.5784 41.6421 38.7292 41.5354 38.7235 41.204C38.7107 40.4772 38.7107 39.7505 38.7235 39.0237C38.7292 38.6994 38.5941 38.5828 38.2798 38.5885C37.5359 38.5999 36.7907 38.5985 36.0468 38.5885C35.7396 38.5842 35.5889 38.6852 35.5946 39.0166C35.6074 39.7434 35.6074 40.4701 35.5946 41.1969C35.5889 41.5198 35.724 41.6435 36.0383 41.6335C36.4095 41.6193 36.7821 41.6293 37.1548 41.6293ZM42.0686 38.5913C41.6789 38.5913 41.2892 38.5956 40.8995 38.5899C40.6435 38.5857 40.4999 38.6781 40.5027 38.9597C40.5084 39.722 40.5084 40.4844 40.5027 41.2453C40.5013 41.5155 40.6208 41.6307 40.8867 41.6293C41.6661 41.625 42.4455 41.625 43.2263 41.6293C43.4838 41.6307 43.626 41.5368 43.6231 41.2581C43.6189 40.4957 43.6189 39.7334 43.6231 38.9725C43.6246 38.7023 43.5051 38.5857 43.2377 38.5899C42.8494 38.597 42.4583 38.5913 42.0686 38.5913ZM37.1462 46.5318C37.5359 46.5318 37.927 46.5246 38.3167 46.5346C38.614 46.5417 38.7263 46.4094 38.7235 46.1179C38.7135 45.374 38.7164 44.6288 38.7221 43.8849C38.7235 43.6176 38.6126 43.4953 38.3423 43.4981C37.5629 43.5024 36.7821 43.5052 36.0027 43.4967C35.7055 43.4938 35.5931 43.6233 35.596 43.9134C35.6045 44.6572 35.6031 45.4025 35.5974 46.1463C35.596 46.4123 35.7069 46.5374 35.9771 46.5332C36.3668 46.5275 36.7565 46.5318 37.1462 46.5318ZM40.5027 45.0156C40.5027 46.5346 40.5027 46.5346 42.0359 46.5346C42.0715 46.5346 42.107 46.5346 42.1426 46.5346C43.6246 46.5346 43.6246 46.5346 43.6246 45.0683C43.6246 43.4967 43.6246 43.4967 42.0359 43.4967C40.5027 43.4967 40.5027 43.4967 40.5027 45.0156Z" fill="#783A35"/>
<path d="M29.4078 17.4809C29.4078 18.2262 29.4106 18.9714 29.4064 19.7167C29.4021 20.5103 29.0977 20.836 28.2714 20.8516C27.118 20.8744 25.9645 20.8601 24.8111 20.8601C24.4385 20.8601 24.063 20.8758 23.6946 20.8417C23.0006 20.7762 22.7261 20.4662 22.7232 19.7664C22.719 18.2219 22.7175 16.6787 22.7232 15.1342C22.7261 14.4444 23.0418 14.1102 23.7231 14.1045C25.2847 14.0931 26.8463 14.0931 28.408 14.1045C29.0864 14.1102 29.3993 14.4458 29.4049 15.137C29.4135 15.9193 29.4078 16.7001 29.4078 17.4809ZM26.0556 19.0055C26.4453 19.0055 26.8364 18.9999 27.2261 19.007C27.4821 19.0112 27.6286 18.9231 27.6257 18.6414C27.62 17.8791 27.62 17.1168 27.6257 16.3531C27.6271 16.0857 27.5091 15.9619 27.2431 15.9634C26.4623 15.9662 25.6829 15.9676 24.9021 15.9619C24.6034 15.9591 24.4968 16.1027 24.501 16.3886C24.5096 17.1339 24.5082 17.8777 24.5025 18.623C24.501 18.8918 24.6148 19.0127 24.885 19.007C25.2762 18.9999 25.6659 19.0055 26.0556 19.0055Z" fill="#783A35"/>
<path d="M21.1943 17.4326C21.1943 18.1779 21.1972 18.9231 21.1943 19.6684C21.1915 20.5189 20.8772 20.8446 19.9968 20.8559C18.7722 20.8716 17.5491 20.8645 16.3245 20.8602C15.9889 20.8588 15.6476 20.8659 15.3176 20.8133C14.7586 20.7237 14.5154 20.4364 14.5126 19.8689C14.5026 18.2717 14.5026 16.676 14.5112 15.0788C14.514 14.4558 14.8397 14.1145 15.4598 14.1088C17.057 14.0946 18.6528 14.0946 20.2499 14.1088C20.8601 14.1145 21.1829 14.4658 21.1915 15.0902C21.2028 15.871 21.1943 16.6518 21.1943 17.4326ZM17.8378 19.0056C18.2275 19.0056 18.6172 18.9999 19.0083 19.007C19.2657 19.0113 19.4108 18.9217 19.4094 18.6415C19.4051 17.8792 19.4051 17.1169 19.4094 16.3545C19.4108 16.09 19.297 15.962 19.0297 15.962C18.2503 15.9648 17.4694 15.9663 16.6901 15.9606C16.3914 15.9577 16.2847 16.1 16.289 16.3858C16.2975 17.1297 16.2961 17.8749 16.2904 18.6188C16.2876 18.8861 16.3985 19.0099 16.6701 19.0042C17.057 18.9999 17.4481 19.0056 17.8378 19.0056Z" fill="#783A35"/>
<path d="M37.6241 17.4412C37.6241 18.222 37.6298 19.0028 37.6227 19.7836C37.6156 20.4592 37.3539 20.8162 36.6897 20.8318C35.0769 20.8702 33.4612 20.8688 31.8484 20.829C31.2183 20.8133 30.9424 20.4435 30.9395 19.8092C30.9324 18.2476 30.9324 16.686 30.9395 15.1258C30.9438 14.4445 31.2709 14.1117 31.955 14.1074C33.5166 14.0975 35.0783 14.0961 36.6385 14.1089C37.2927 14.1145 37.6127 14.4473 37.6212 15.1002C37.6312 15.8795 37.6241 16.6604 37.6241 17.4412ZM34.279 19.0056C34.6687 19.0056 35.0584 19 35.4495 19.0071C35.7098 19.0113 35.8463 18.9146 35.8434 18.6359C35.8378 17.8735 35.8378 17.1112 35.8434 16.3489C35.8463 16.0787 35.7226 15.962 35.4594 15.962C34.68 15.9649 33.8992 15.9649 33.1198 15.962C32.861 15.9606 32.723 16.0644 32.7245 16.3389C32.7287 17.1013 32.7287 17.8636 32.723 18.6259C32.7216 18.8961 32.8411 19.0113 33.1085 19.0071C33.4982 19 33.8879 19.0056 34.279 19.0056Z" fill="#783A35"/>
</g>
<defs>
<clipPath id="clip0_1850_11242">
<rect width="52.1296" height="53" fill="white"/>
</clipPath>
</defs>
</svg>
