<svg width="27" height="27" viewBox="0 0 27 27" fill="none" xmlns="http://www.w3.org/2000/svg">
<g opacity="0.6" clip-path="url(#clip0_1850_11850)">
<path d="M26.9897 26.2202C26.9897 20.7919 26.9705 15.362 27 9.93368C27.0118 7.81462 25.7276 6.5417 24.247 5.35591C24.0005 5.15803 23.8426 5.36625 23.6846 5.51096C23.0277 6.11493 22.3044 6.65098 21.6963 7.61379C21.8276 5.31899 20.5729 4.02245 19.1322 2.82485C18.8709 2.60777 18.6864 2.60629 18.4458 2.83666C17.7963 3.45983 17.0568 3.99292 16.4855 4.85974C16.4442 4.44626 16.4235 4.12434 16.3777 3.80685C16.1342 2.11012 14.9208 1.10449 13.7192 0.091472C13.4786 -0.112313 13.3236 0.0604613 13.1524 0.200748C11.7028 1.38506 10.4496 2.68308 10.581 4.92471C9.95655 4.02688 9.25391 3.46721 8.59555 2.86472C8.40365 2.68899 8.23685 2.55756 7.97115 2.78054C6.52158 3.99292 5.17239 5.25993 5.3141 7.59016C4.74579 6.7322 4.08596 6.23898 3.51912 5.65273C3.09252 5.21119 2.81796 5.29832 2.37954 5.66454C1.26801 6.59634 0.351333 7.63446 0.0132975 9.08753C0.0132975 14.8732 0.0206782 20.6604 1.22712e-05 26.4476C-0.00146386 26.9231 0.129912 27.0014 0.569801 26.9999C9.32771 26.9866 18.0856 26.9896 26.8435 26.9896C27.0384 26.7607 26.9897 26.4845 26.9897 26.2202ZM2.58915 9.59552C2.86076 9.32676 3.04676 9.31938 3.30213 9.59995C3.57964 9.90563 3.73021 10.2453 3.73316 10.6543C3.73611 11.2878 3.7243 11.9228 3.74054 12.5563C3.74792 12.8738 3.6874 13.0274 3.30803 13.0436C2.15074 13.0938 2.15222 13.1145 2.15222 11.4783C2.18322 10.8596 2.02379 10.1567 2.58915 9.59552ZM4.77826 13.6092C5.19601 13.6003 5.31853 13.7244 5.30082 14.1364C5.26834 14.8688 5.29196 15.6027 5.29196 16.3352C5.29196 17.0676 5.28015 17.7528 5.29639 18.4616C5.30377 18.7954 5.27572 18.9918 4.84321 18.9844C4.41809 18.977 4.29261 18.8382 4.31476 18.4291C4.34428 17.868 4.33099 17.3054 4.31919 16.7428C4.30295 15.8641 3.5265 14.6074 2.98033 14.5543C2.44745 14.5026 1.58538 15.8302 1.56767 16.7428C1.55734 17.3054 1.54257 17.868 1.5721 18.4291C1.59424 18.8367 1.47024 18.9755 1.04364 18.9844C0.605228 18.9932 0.591943 18.788 0.594895 18.4587C0.605228 17.0174 0.615561 15.5747 0.590466 14.1334C0.583086 13.717 0.702653 13.6003 1.11597 13.6092C2.33674 13.6358 3.5575 13.6373 4.77826 13.6092ZM2.77072 18.9903C2.24374 19.0065 2.10498 18.8234 2.14189 18.3258C2.18912 17.6967 2.13893 17.0602 2.18026 16.4297C2.21422 15.9158 2.49173 15.3591 2.97885 15.3724C3.3966 15.3842 3.67559 15.932 3.70954 16.4297C3.73464 16.793 3.71397 17.1592 3.71397 17.5239C3.72135 17.5239 3.72725 17.5239 3.73464 17.5239C3.73464 17.6937 3.73759 17.865 3.73464 18.0349C3.70954 19.1306 3.92358 18.9549 2.77072 18.9903ZM3.47926 26.4137C2.02084 26.5067 2.02232 26.5215 2.02232 25.0758C2.02232 24.1499 2.01199 23.224 2.02675 22.2981C2.03856 21.5981 2.37364 21.2216 2.95819 21.2482C3.63426 21.2777 3.87192 21.703 3.86749 22.3262C3.86306 22.9109 3.86749 23.4957 3.86749 24.0805C3.86749 24.714 3.85568 25.3475 3.87339 25.981C3.88077 26.2763 3.8173 26.393 3.48222 26.4137H3.47926ZM5.29639 25.9308C5.29639 26.2306 5.29344 26.427 4.8875 26.4166C4.51994 26.4063 4.44318 26.2763 4.44613 25.9411C4.45794 24.6475 4.46237 23.3525 4.4358 22.0589C4.42104 21.3368 3.99739 20.8805 3.31984 20.6929C2.65263 20.5069 1.96475 20.8229 1.62524 21.4047C1.44367 21.7163 1.43629 22.0544 1.43629 22.397C1.43629 23.4721 1.45548 24.5471 1.42153 25.6207C1.41267 25.9027 1.70938 26.3915 1.02888 26.4137C0.341 26.4373 0.621465 25.947 0.611132 25.6635C0.580134 24.7849 0.599323 23.9062 0.599323 23.0261C0.599323 22.05 0.615561 21.0724 0.591943 20.0963C0.583086 19.705 0.659845 19.5337 1.10416 19.5455C2.32345 19.5765 3.54421 19.5706 4.7635 19.547C5.16796 19.5396 5.30672 19.643 5.30229 20.0712C5.28015 22.0249 5.28901 23.9786 5.29639 25.9323V25.9308ZM5.29934 10.2571C5.24915 11.0102 5.28015 11.7707 5.29639 12.5282C5.30229 12.8649 5.26982 13.0554 4.83731 13.0495C4.40333 13.0436 4.29557 12.89 4.31623 12.4943C4.3428 11.9582 4.30147 11.4192 4.32804 10.8832C4.3679 10.0282 3.99739 9.39469 3.37003 8.84978C3.03495 8.5574 2.815 8.60318 2.49763 8.87341C1.85994 9.41831 1.51896 10.0666 1.56176 10.9157C1.58538 11.403 1.56767 11.8918 1.56619 12.3806C1.56619 12.7099 1.66362 13.0436 1.09235 13.054C0.537326 13.0643 0.593419 12.766 0.599323 12.419C0.606704 11.9553 0.600799 11.4916 0.599323 11.0264C0.617037 10.2231 0.531421 9.41536 0.77646 8.6268C1.11302 7.53995 1.94408 6.85476 2.74267 6.13561C2.9139 5.98203 3.01723 6.03224 3.1737 6.15776C4.49485 7.20769 5.41891 8.44812 5.29934 10.2571ZM16.4486 6.89316C16.5047 5.35591 17.5144 4.38867 18.5964 3.47755C18.8783 3.24127 18.9772 3.5248 19.1293 3.63998C20.5892 4.73127 21.3125 6.15924 21.1279 8.00807C21.1043 8.25024 21.125 8.49538 21.125 8.74051C21.125 9.35039 21.1014 9.96322 21.1338 10.5716C21.1545 10.9762 20.9464 10.9836 20.6452 10.9851C20.3323 10.9851 20.136 10.9467 20.1507 10.5583C20.1744 9.92482 20.1685 9.28837 20.1522 8.65338C20.1301 7.79985 19.3477 6.59929 18.8089 6.5609C18.2716 6.52398 17.4258 7.77327 17.4037 8.6652C17.3874 9.30018 17.383 9.93516 17.4051 10.5701C17.4199 10.9703 17.1985 10.9762 16.9003 10.9851C16.577 10.9954 16.4176 10.9437 16.425 10.5569C16.4515 9.3371 16.4043 8.11439 16.4486 6.89463V6.89316ZM18.0162 8.3861C18.0487 7.89141 18.3248 7.35979 18.7691 7.35241C19.2193 7.34503 19.4909 7.87516 19.5352 8.3669C19.5706 8.7538 19.5426 9.1466 19.5426 9.53645C19.5514 9.53645 19.5603 9.53645 19.5691 9.53645C19.5691 9.75648 19.5396 9.98094 19.575 10.1936C19.6828 10.8404 19.4304 10.9925 18.7883 11.0043C18.0812 11.0191 17.9188 10.7739 17.9764 10.1389C18.0295 9.5586 17.9793 8.96792 18.0162 8.38462V8.3861ZM8.76088 26.4092C7.2995 26.517 7.30098 26.5244 7.30098 25.0787V24.0554H7.30541C7.30541 23.4219 7.28917 22.7884 7.30984 22.1549C7.3305 21.5789 7.64787 21.2437 8.23242 21.2496C8.81845 21.2555 9.12991 21.6011 9.13582 22.1755C9.15205 23.4662 9.13582 24.7583 9.1491 26.0504C9.15205 26.3546 9.02068 26.3915 8.76088 26.4107V26.4092ZM10.5691 21.9939C10.5691 23.289 10.5691 24.5826 10.5691 25.8776C10.5691 26.1715 10.6282 26.4373 10.1455 26.4225C9.67313 26.4078 9.72775 26.1464 9.72922 25.851C9.73218 24.6785 9.73956 23.506 9.72775 22.335C9.71594 21.2836 9.13877 20.6545 8.21618 20.6575C7.29655 20.6604 6.72676 21.2895 6.71643 22.3468C6.70462 23.5193 6.71053 24.6918 6.71643 25.8629C6.71791 26.17 6.7489 26.4151 6.28687 26.4225C5.80123 26.4299 5.87798 26.1523 5.87798 25.8643C5.87798 23.2506 5.88832 20.6383 5.86913 18.0245C5.86618 17.6051 5.98869 17.4855 6.40201 17.4944C7.6213 17.5195 8.84207 17.5224 10.0614 17.4944C10.4983 17.4841 10.5854 17.6421 10.578 18.0408C10.5559 19.3595 10.5691 20.6782 10.5691 21.9969V21.9939ZM7.45597 14.3697C7.48107 13.8735 7.75711 13.3212 8.18371 13.3124C8.67379 13.302 8.93654 13.8617 8.98377 14.3756C9.02068 14.761 8.99115 15.1538 8.99115 15.5437H9.0133C9.0133 15.6899 9.01625 15.8361 9.0133 15.9823C8.98968 17.0942 9.19043 16.9008 8.0479 16.9377C7.51502 16.9554 7.38512 16.7634 7.42055 16.2673C7.46631 15.6367 7.42497 15.0002 7.45597 14.3682V14.3697ZM10.1219 16.9244C9.77794 16.9155 9.57128 16.8742 9.59194 16.4489C9.62147 15.8154 9.59047 15.1774 9.59785 14.5425C9.60966 13.6594 9.07234 13.1086 8.45236 12.6021C8.29589 12.4751 8.15271 12.4721 7.99476 12.6006C7.37331 13.1056 6.836 13.6564 6.84485 14.538C6.85076 15.1494 6.82271 15.7607 6.85076 16.3721C6.86847 16.7752 6.75776 16.9244 6.32525 16.9318C5.89422 16.9377 5.8647 16.7442 5.87208 16.409C5.88832 15.6766 5.87651 14.9427 5.87651 14.2087C5.87651 13.4748 5.89422 12.7409 5.86913 12.0084C5.85732 11.6585 5.96065 11.5507 6.3164 11.5566C7.58587 11.5773 8.85683 11.5773 10.1263 11.5566C10.4791 11.5507 10.5795 11.6555 10.575 12.007C10.5573 13.4984 10.5544 14.9899 10.575 16.4814C10.581 16.8476 10.4629 16.9347 10.1189 16.9259L10.1219 16.9244ZM7.43236 8.63714C7.43236 8.51605 7.44564 8.39201 7.47221 8.27387C7.57406 7.82643 7.81025 7.33617 8.25013 7.3465C8.63098 7.35536 8.90554 7.82643 8.96163 8.26058C9.01772 8.69325 9.00887 9.13627 9.02953 9.57337C9.02363 9.57337 9.01772 9.57337 9.01182 9.57337C9.01182 9.74467 8.98673 9.91892 9.01625 10.0843C9.15205 10.8286 8.85535 11.0471 8.11581 10.9969C7.60359 10.9629 7.35855 10.898 7.41612 10.3176C7.47074 9.76239 7.42645 9.19681 7.43088 8.63566L7.43236 8.63714ZM10.5691 8.67553C10.5691 9.26178 10.5514 9.84804 10.575 10.4328C10.5913 10.8094 10.5337 10.994 10.0776 10.994C9.59342 10.994 9.58604 10.7503 9.59489 10.4003C9.60818 9.81407 9.61113 9.22782 9.59489 8.64305C9.57128 7.79247 8.77711 6.586 8.24275 6.5609C7.70101 6.53432 6.86847 7.78065 6.84633 8.67406C6.83157 9.26031 6.82566 9.84656 6.84928 10.4313C6.86552 10.8182 6.77843 10.991 6.33411 10.994C5.90603 10.9954 5.86765 10.8138 5.87208 10.4742C5.88537 9.32676 5.86618 8.17936 5.88241 7.03197C5.90455 5.42532 6.92161 4.41525 8.0479 3.47459C8.33132 3.23832 8.42727 3.53662 8.58079 3.64737C10.3182 4.89666 10.8319 6.63326 10.5691 8.67701V8.67553ZM14.4219 25.0861C14.4219 26.4698 14.4219 26.458 13.0284 26.4122C12.6933 26.4019 12.5634 26.3354 12.5693 25.9707C12.5914 24.7273 12.5737 23.4854 12.5811 22.242C12.5841 21.641 12.866 21.2511 13.4963 21.2496C14.1237 21.2482 14.41 21.6321 14.4189 22.2346C14.4278 22.8445 14.4204 23.4529 14.4219 24.0628C14.4219 24.4039 14.4219 24.745 14.4219 25.0861ZM15.8552 26.0017C15.8567 26.3192 15.7681 26.4107 15.4478 26.4151C15.0817 26.4211 14.999 26.2852 15.002 25.9456C15.0153 24.652 15.0226 23.3569 14.9916 22.0633C14.9739 21.3442 14.4661 20.7963 13.8107 20.6767C13.0845 20.5453 12.4202 20.8893 12.1206 21.5346C11.9921 21.8123 11.9951 22.1032 11.9951 22.3941C11.9907 23.5415 11.9848 24.6889 11.998 25.8378C12.0025 26.1922 11.9951 26.427 11.5153 26.4196C10.981 26.4107 11.167 26.0548 11.1626 25.8141C11.1463 24.8617 11.1552 23.9092 11.1552 22.9567C11.1552 22.0042 11.1699 21.0518 11.1478 20.0993C11.1389 19.7124 11.2068 19.5337 11.6556 19.5441C12.8985 19.5751 14.1443 19.5647 15.3887 19.5485C15.7268 19.5441 15.8581 19.6282 15.8552 19.993C15.8389 21.9954 15.8419 23.9978 15.8552 26.0002V26.0017ZM11.1493 8.1011C11.1463 7.77179 11.2113 7.62412 11.5862 7.63151C12.8542 7.65366 14.1222 7.65809 15.3887 7.63003C15.8094 7.62117 15.8626 7.79837 15.8537 8.14688C15.8345 8.87784 15.8478 9.61029 15.8478 10.3427C15.8478 11.0988 15.8271 11.8563 15.8567 12.6109C15.8714 12.9978 15.7076 13.0525 15.3828 13.0392C15.092 13.0274 14.8573 13.0392 14.8721 12.6301C14.8957 11.9966 14.8632 11.3617 14.8795 10.7267C14.9016 9.85542 14.4307 9.26769 13.8048 8.75232C13.6041 8.58693 13.421 8.56626 13.2173 8.73313C12.5959 9.24406 12.0999 9.81998 12.1191 10.6957C12.1324 11.3055 12.1058 11.9169 12.1265 12.5253C12.1383 12.8856 12.0527 13.0495 11.6467 13.0436C11.2806 13.0377 11.1404 12.9639 11.1463 12.5637C11.1699 11.0752 11.164 9.58666 11.1493 8.09814V8.1011ZM13.176 3.60307C13.4299 3.36236 13.5864 3.35055 13.8255 3.60602C14.1074 3.90579 14.2787 4.23952 14.2846 4.64857C14.2934 5.30718 14.2801 5.96727 14.2964 6.62735C14.3038 6.92121 14.2403 7.04526 13.9037 7.06593C12.7081 7.14124 12.7095 7.15749 12.7095 5.54641C12.742 4.90847 12.5723 4.17898 13.1775 3.60602L13.176 3.60307ZM12.742 10.4239C12.776 9.93221 13.0609 9.40207 13.5096 9.41093C13.951 9.41979 14.2255 9.94845 14.2624 10.4446C14.292 10.833 14.2683 11.2243 14.2683 11.6142H14.292C14.292 11.8091 14.2683 12.0084 14.2964 12.1989C14.3864 12.8339 14.1945 13.0761 13.4904 13.0613C12.8498 13.048 12.6269 12.9004 12.6977 12.2506C12.7627 11.6467 12.7022 11.0309 12.7435 10.4239H12.742ZM12.8985 15.8981C13.2956 15.2026 13.6735 15.1922 14.0853 15.8641C14.2447 16.1255 14.2846 16.409 14.289 16.7014C14.2949 17.14 14.2905 17.5771 14.2905 18.0157C14.2905 18.9327 13.7724 19.2782 12.9059 18.9681C12.6697 18.884 12.714 18.723 12.7095 18.565C12.7022 18.2239 12.7081 17.8842 12.7081 17.4649C12.7509 16.9923 12.5988 16.4208 12.8985 15.8981ZM15.8567 18.5561C15.8626 18.9489 15.6913 18.9844 15.3799 18.9755C15.0817 18.9667 14.8558 18.9608 14.8721 18.5561C14.8972 17.9463 14.8603 17.3334 14.8824 16.7236C14.9149 15.8169 14.4204 15.2173 13.7709 14.6916C13.5937 14.5484 13.4447 14.5174 13.2557 14.6709C12.6106 15.1966 12.091 15.7814 12.1191 16.6911C12.1383 17.3009 12.0984 17.9138 12.1294 18.5237C12.1516 18.9681 11.9006 18.9549 11.5803 18.9785C11.1965 19.0065 11.1404 18.8411 11.1493 18.5118C11.1699 17.7794 11.1552 17.0455 11.1552 16.313C11.1552 15.5806 11.1714 14.8467 11.1478 14.1142C11.136 13.7554 11.2068 13.6003 11.6187 13.6107C12.8631 13.6402 14.1089 13.6328 15.3548 13.6136C15.7179 13.6077 15.864 13.6786 15.8567 14.0862C15.8316 15.5762 15.833 17.0676 15.8567 18.5591V18.5561ZM15.8522 5.35148C15.8168 5.71475 15.8389 6.08392 15.8493 6.45015C15.8581 6.8016 15.9009 7.0866 15.3533 7.07479C14.7879 7.06298 14.8765 6.73958 14.878 6.40585C14.878 5.86833 14.8632 5.33081 14.8809 4.79476C14.9119 3.89102 14.4204 3.29001 13.7635 2.76873C13.5805 2.62401 13.4373 2.60777 13.2483 2.75839C12.5929 3.27819 12.0925 3.87183 12.1176 4.77704C12.1353 5.38692 12.094 5.99975 12.1294 6.60815C12.1545 7.05264 11.9139 7.04378 11.5906 7.06445C11.2245 7.0866 11.1227 6.95961 11.1493 6.61111C11.1773 6.22273 11.1552 5.82993 11.1552 5.44008C10.9042 3.54843 11.6866 2.12932 13.1391 0.989306C13.4225 0.766324 13.5509 0.742697 13.8521 0.977493C15.2854 2.09683 16.0338 3.50265 15.8522 5.35443V5.35148ZM19.7005 25.3711C19.7005 26.4033 19.699 26.3664 18.682 26.4166C18.0532 26.4476 17.7948 26.3177 17.8391 25.6118C17.9085 24.5191 17.848 23.4204 17.8613 22.3232C17.8686 21.6114 18.189 21.2496 18.7676 21.2437C19.3522 21.2378 19.6813 21.5996 19.6976 22.2996C19.7123 22.9331 19.7005 23.5666 19.7005 24.2001C19.7005 24.5899 19.7005 24.9798 19.7005 25.3696V25.3711ZM20.694 26.4151C20.0696 26.3989 20.3028 25.9692 20.2969 25.693C20.2747 24.5707 20.2969 23.447 20.2836 22.3232C20.2718 21.2733 19.6887 20.6472 18.7632 20.656C17.845 20.6634 17.2826 21.2925 17.2723 22.3542C17.2619 23.5267 17.2649 24.6992 17.2723 25.8702C17.2752 26.1892 17.2841 26.4137 16.8324 26.4196C16.3349 26.4255 16.4338 26.1287 16.4338 25.8525C16.4338 23.2639 16.4486 20.6752 16.4205 18.0865C16.4146 17.583 16.5785 17.4796 17.039 17.4914C18.1845 17.521 19.333 17.5254 20.4784 17.49C20.9729 17.4752 21.156 17.583 21.1383 18.1205C21.0969 19.4141 21.125 20.7092 21.125 22.0028C21.125 23.224 21.1397 24.4452 21.1132 25.6665C21.1073 25.95 21.3804 26.4329 20.6925 26.4166L20.694 26.4151ZM18.0207 14.3298C18.0532 13.841 18.3321 13.305 18.7779 13.3124C19.2163 13.3198 19.4909 13.8528 19.5352 14.3431C19.5706 14.73 19.5426 15.1213 19.5426 15.5112C19.5514 15.5112 19.5603 15.5112 19.5691 15.5112C19.5691 15.681 19.5691 15.8523 19.5691 16.0221C19.5691 16.9524 19.5677 16.9111 18.6362 16.9421C18.0605 16.9613 17.9351 16.7487 17.9764 16.2289C18.0251 15.5983 17.9779 14.9619 18.0207 14.3313V14.3298ZM21.1235 13.6771C21.1309 14.606 21.1117 15.5363 21.1324 16.4637C21.1398 16.8048 21.0659 16.948 20.694 16.9244C20.3692 16.9037 20.1271 16.9067 20.1478 16.4651C20.1773 15.8316 20.1448 15.1937 20.1552 14.5587C20.1699 13.6771 19.643 13.1204 19.0215 12.6124C18.8695 12.4884 18.7292 12.4588 18.5654 12.5917C17.9424 13.0938 17.3977 13.6402 17.4037 14.5218C17.4066 15.1568 17.38 15.7947 17.4081 16.4282C17.4258 16.8254 17.2708 16.9155 16.8988 16.9273C16.4944 16.9392 16.4146 16.7871 16.4265 16.4238C16.4515 15.6662 16.4338 14.9087 16.4338 13.9902C16.4988 13.3035 16.0707 12.1709 16.5844 11.691C17.0331 11.2716 18.158 11.5551 18.9831 11.5699C19.6813 11.5817 20.6113 11.2612 21.0113 11.6998C21.3567 12.0793 21.1191 12.9964 21.1235 13.6771ZM24.591 26.4137C23.134 26.5067 23.134 26.5215 23.134 25.0758C23.134 24.1499 23.1237 23.224 23.1384 22.2981C23.1502 21.5981 23.4853 21.2216 24.0699 21.2482C24.746 21.2792 24.9836 21.703 24.9792 22.3262C24.9748 22.9109 24.9792 23.4957 24.9792 24.0805C24.9792 24.714 24.9674 25.3475 24.9851 25.981C24.9925 26.2763 24.9275 26.393 24.5924 26.4137H24.591ZM25.9756 26.4196C25.422 26.4048 25.5711 26.0519 25.5682 25.7713C25.5578 24.6239 25.5741 23.4765 25.5608 22.3276C25.549 21.2777 24.9688 20.6501 24.0463 20.6545C23.1266 20.6604 22.5613 21.2895 22.5509 22.3468C22.5406 23.5193 22.5436 24.6918 22.5509 25.8629C22.5524 26.1744 22.5746 26.4122 22.117 26.4181C21.6269 26.4255 21.711 26.1405 21.711 25.8584C21.711 23.9299 21.7243 21.9998 21.7022 20.0712C21.6977 19.6459 21.8335 19.5381 22.2395 19.5455C23.4588 19.5692 24.6795 19.5736 25.8988 19.5441C26.3417 19.5337 26.4214 19.7006 26.4125 20.0934C26.3889 21.0695 26.4051 22.0471 26.4051 23.0232C26.4051 23.9993 26.4081 24.8794 26.4051 25.8067C26.4051 26.1006 26.5262 26.4329 25.9785 26.4181L25.9756 26.4196ZM24.8478 17.583V17.9477C24.8478 19.008 24.5703 19.2162 23.5296 18.977C23.3097 18.9268 23.261 18.8249 23.2639 18.6315C23.2742 17.902 23.2536 17.171 23.292 16.443C23.3185 15.9261 23.6005 15.3709 24.0802 15.3724C24.5024 15.3724 24.7829 15.9217 24.8198 16.4164C24.8493 16.8033 24.8257 17.1931 24.8257 17.583H24.8478ZM26.4125 18.5547C26.4184 18.9445 26.2516 18.9859 25.9372 18.9755C25.642 18.9667 25.4117 18.9652 25.4279 18.5576C25.453 17.9477 25.4161 17.3349 25.4383 16.725C25.4722 15.8183 24.9777 15.2188 24.3282 14.6916C24.1525 14.5484 24.002 14.5144 23.813 14.6695C23.168 15.1952 22.6484 15.7799 22.6749 16.6896C22.6941 17.2995 22.6543 17.9123 22.6853 18.5222C22.7074 18.9652 22.4609 18.9563 22.1391 18.9785C21.7583 19.0051 21.6963 18.8456 21.7066 18.5133C21.7287 17.7809 21.714 17.047 21.714 16.3145C21.714 15.5821 21.7287 14.8481 21.7081 14.1157C21.6977 13.7598 21.7612 13.6003 22.176 13.6092C23.4204 13.6387 24.6662 13.6313 25.9121 13.6121C26.2723 13.6062 26.4228 13.6727 26.4169 14.0817C26.3918 15.5717 26.3933 17.0632 26.4169 18.5547H26.4125ZM23.2669 10.7385C23.2669 10.641 23.2772 10.5436 23.289 10.4476C23.3495 9.95288 23.6034 9.42274 24.0463 9.41241C24.4965 9.40207 24.771 9.93221 24.8153 10.4225C24.8508 10.8094 24.8227 11.2022 24.8227 11.592H24.8493C24.8493 11.812 24.8198 12.0365 24.8552 12.2492C24.96 12.89 24.7194 13.054 24.0714 13.0628C23.3731 13.0717 23.1901 12.8457 23.2565 12.2019C23.3052 11.719 23.2654 11.2273 23.2683 10.74L23.2669 10.7385ZM26.4037 11.1077C26.4037 11.5964 26.3889 12.0852 26.4096 12.5725C26.4228 12.8989 26.3564 13.0658 25.977 13.0407C25.6612 13.02 25.4058 13.0421 25.4279 12.5932C25.4589 11.9597 25.4486 11.3233 25.4309 10.6883C25.4073 9.83918 24.5998 8.62828 24.0684 8.61499C23.5444 8.6017 22.7104 9.81555 22.6838 10.6661C22.6646 11.3011 22.6543 11.9376 22.6867 12.5711C22.7089 12.9978 22.5037 13.0318 22.1583 13.0421C21.8025 13.054 21.6963 12.9447 21.7051 12.5903C21.7287 11.5891 21.6933 10.5879 21.7228 9.58666C21.7701 8.01397 22.7886 7.03049 23.8913 6.1046C24.1348 5.89934 24.2411 6.12675 24.3695 6.24341C25.7497 7.48679 26.5498 8.00807 26.4051 11.1062L26.4037 11.1077Z" fill="#783A35"/>
</g>
<defs>
<clipPath id="clip0_1850_11850">
<rect width="27" height="27" fill="white"/>
</clipPath>
</defs>
</svg>
