<svg width="23" height="23" viewBox="0 0 23 23" fill="none" xmlns="http://www.w3.org/2000/svg">
<g clip-path="url(#clip0_1850_11917)">
<path d="M10.4179 8.74117H10.418C10.5553 8.74115 10.6883 8.78934 10.7938 8.87732L11.1141 8.4934L10.7938 8.87732C10.8992 8.9653 10.9704 9.08751 10.995 9.22263L11.1224 9.92253L11.7378 9.56566C11.9389 9.44901 12.1469 9.34451 12.3606 9.25273C13.0018 8.97881 13.9621 8.83352 14.8033 9.09718C15.2385 9.23532 15.6567 9.4865 15.9638 9.90261L15.9644 9.90344C16.2385 10.2733 16.3971 10.735 16.4303 11.282L16.4364 11.5072V15.8456C16.4363 15.995 16.379 16.1388 16.2764 16.2475C16.1738 16.3562 16.0336 16.4216 15.8844 16.4303C15.7352 16.4391 15.5883 16.3905 15.4736 16.2946C15.3622 16.2013 15.2895 16.0701 15.2693 15.9265L15.2636 15.8312V11.5004C15.2636 11.0543 15.153 10.7788 15.0236 10.602L15.0169 10.593L15.0099 10.5842C14.864 10.4027 14.664 10.2725 14.4393 10.2123C13.924 10.0545 13.2624 10.1431 12.8216 10.3311L12.821 10.3313C12.2124 10.5918 11.6631 10.9954 11.285 11.3723L11.2785 11.3788L11.2722 11.3855L11.1385 11.529L11.0043 11.673V11.8698V15.8456C11.0042 15.995 10.9469 16.1388 10.8443 16.2475C10.7417 16.3562 10.6015 16.4216 10.4523 16.4303C10.3031 16.4391 10.1562 16.3905 10.0415 16.2946C9.9301 16.2013 9.85738 16.0701 9.8372 15.9265L9.8315 15.8312V9.32759C9.8315 9.17207 9.89328 9.02291 10.0033 8.91293C10.1132 8.80296 10.2624 8.74117 10.4179 8.74117ZM6.744 6.74009L6.39045 6.38654L6.744 6.74009C6.85398 6.63012 7.00313 6.56834 7.15866 6.56834C7.31419 6.56834 7.46335 6.63012 7.57332 6.74009C7.6833 6.85007 7.74508 6.99923 7.74508 7.15475C7.74508 7.31028 7.6833 7.45944 7.57332 7.56942C7.46335 7.67939 7.31419 7.74117 7.15866 7.74117C7.00313 7.74117 6.85398 7.67939 6.744 7.56942C6.63402 7.45944 6.57224 7.31028 6.57224 7.15475C6.57224 6.99923 6.63402 6.85007 6.744 6.74009ZM18.0229 2.22266C18.7547 2.22266 19.4565 2.51336 19.9739 3.03083C20.4914 3.54829 20.7821 4.25011 20.7821 4.98192V18.019C20.7821 18.7508 20.4914 19.4526 19.9739 19.97C19.4565 20.4875 18.7547 20.7782 18.0229 20.7782H4.98582C4.25402 20.7782 3.55219 20.4875 3.03473 19.97C2.51727 19.4526 2.22656 18.7508 2.22656 18.019V4.98192C2.22656 4.25011 2.51727 3.54829 3.03473 3.03082C3.55219 2.51336 4.25402 2.22266 4.98582 2.22266H18.0229ZM18.0229 3.3955H4.98582C4.56508 3.3955 4.16156 3.56264 3.86405 3.86015C3.56654 4.15766 3.3994 4.56117 3.3994 4.98192V18.019C3.3994 18.4397 3.56654 18.8432 3.86405 19.1407C4.16157 19.4382 4.56508 19.6054 4.98582 19.6054H18.0229C18.4436 19.6054 18.8471 19.4382 19.1446 19.1407C19.4421 18.8432 19.6093 18.4397 19.6093 18.019V4.98192C19.6093 4.56117 19.4421 4.15766 19.1446 3.86015C18.8471 3.56264 18.4436 3.3955 18.0229 3.3955ZM6.744 9.99935C6.85397 9.88938 7.00313 9.82759 7.15866 9.82759C7.30227 9.82763 7.44088 9.88036 7.5482 9.97579C7.65249 10.0685 7.72019 10.1953 7.73936 10.3333L7.74508 10.429L7.74508 15.8456C7.74508 15.8457 7.74508 15.8458 7.74508 15.8459C7.74483 15.9952 7.6876 16.1389 7.58508 16.2475C7.48247 16.3562 7.34224 16.4216 7.19303 16.4303C7.04382 16.4391 6.89689 16.3905 6.78228 16.2946C6.67084 16.2013 6.59812 16.0701 6.57794 15.9265L6.57224 15.8312V10.414C6.57224 10.2585 6.63402 10.1093 6.744 9.99935Z" fill="white" stroke="white"/>
</g>
<defs>
<clipPath id="clip0_1850_11917">
<rect width="22" height="22" fill="white" transform="translate(0.5 0.5)"/>
</clipPath>
</defs>
</svg>
