<svg width="23" height="24" viewBox="0 0 23 24" fill="none" xmlns="http://www.w3.org/2000/svg">
<ellipse cx="11.5" cy="12" rx="11.5" ry="12" fill="#783A35"/>
<path d="M11.9258 4C12.1221 4.06987 12.3183 4.06987 12.5146 4.10481C14.7268 4.55898 16.4038 6.23589 16.7962 8.41939C16.9925 9.45 16.8319 10.4457 16.493 11.4239C16.0826 12.6117 15.4761 13.6947 14.7981 14.7428C14.0131 15.9655 13.139 17.1184 12.2826 18.3062C12.1221 18.5333 11.9615 18.7779 11.8009 19.005C11.6047 19.267 11.2479 19.267 11.0516 19.005C10.0526 17.5202 8.94648 16.1053 7.9831 14.603C7.30517 13.5375 6.69859 12.4545 6.32394 11.2492C6.05634 10.3933 5.91362 9.5024 6.05634 8.61154C6.28826 7.10929 7.01972 5.90401 8.26855 5.01314C9.03568 4.45417 9.89202 4.13974 10.8376 4.03494C10.8732 4.03494 10.9089 4.0524 10.9268 4C10.9624 4 11.016 4 11.0516 4C11.0695 4.01747 11.0873 4.01747 11.1052 4C11.3192 4 11.5512 4 11.7653 4C11.7831 4.01747 11.8009 4.01747 11.8188 4C11.8723 4 11.8901 4 11.9258 4Z" fill="#FAF3ED"/>
<path d="M9.625 9.3452C9.625 8.367 10.4457 7.56348 11.4447 7.56348C12.4438 7.56348 13.2644 8.367 13.2644 9.3452C13.2644 10.3234 12.4438 11.1269 11.4626 11.1269C10.4457 11.1269 9.625 10.3234 9.625 9.3452Z" fill="#783A35"/>
</svg>
