<svg width="23" height="23" viewBox="0 0 23 23" fill="none" xmlns="http://www.w3.org/2000/svg">
<path d="M7.64479 2.83203H15.3448C18.002 2.83203 20.1615 4.99151 20.1615 7.6487V15.3487C20.1615 16.6262 19.654 17.8513 18.7507 18.7546C17.8474 19.6579 16.6223 20.1654 15.3448 20.1654H7.64479C4.9876 20.1654 2.82812 18.0059 2.82812 15.3487V7.6487C2.82812 6.37124 3.33559 5.1461 4.23889 4.2428C5.14219 3.3395 6.36733 2.83203 7.64479 2.83203ZM7.46146 3.66536C6.45364 3.66536 5.48709 4.06572 4.77445 4.77836C4.06181 5.491 3.66146 6.45754 3.66146 7.46537V15.532C3.66146 17.6323 5.36115 19.332 7.46146 19.332H15.5281C16.5359 19.332 17.5025 18.9317 18.2151 18.219C18.9278 17.5064 19.3281 16.5399 19.3281 15.532V7.46537C19.3281 5.36506 17.6284 3.66536 15.5281 3.66536H7.46146ZM16.3073 6.04036C16.4786 6.04036 16.6429 6.10841 16.764 6.22953C16.8851 6.35064 16.9531 6.51491 16.9531 6.6862C16.9531 6.85749 16.8851 7.02176 16.764 7.14287C16.6429 7.26399 16.4786 7.33203 16.3073 7.33203C16.136 7.33203 15.9717 7.26399 15.8506 7.14287C15.7295 7.02175 15.6615 6.85749 15.6615 6.6862C15.6615 6.51491 15.7295 6.35064 15.8506 6.22953C15.9717 6.10841 16.136 6.04036 16.3073 6.04036ZM11.4948 7.41537C12.5778 7.41537 13.6164 7.84557 14.3821 8.61135C15.1479 9.37712 15.5781 10.4157 15.5781 11.4987C15.5781 12.5817 15.1479 13.6203 14.3821 14.3861C13.6164 15.1518 12.5778 15.582 11.4948 15.582C10.4118 15.582 9.37321 15.1518 8.60744 14.3861C7.84167 13.6203 7.41146 12.5817 7.41146 11.4987C7.41146 10.4157 7.84167 9.37712 8.60744 8.61135C9.37321 7.84557 10.4118 7.41537 11.4948 7.41537ZM11.4948 8.2487C10.6328 8.2487 9.80619 8.59111 9.1967 9.2006C8.5872 9.81009 8.24479 10.6367 8.24479 11.4987C8.24479 12.3607 8.5872 13.1873 9.1967 13.7968C9.80619 14.4063 10.6328 14.7487 11.4948 14.7487C12.3567 14.7487 13.1834 14.4063 13.7929 13.7968C14.4024 13.1873 14.7448 12.3607 14.7448 11.4987C14.7448 10.6367 14.4024 9.81009 13.7929 9.2006C13.1834 8.59111 12.3567 8.2487 11.4948 8.2487Z" fill="white" stroke="white"/>
</svg>
