<svg width="47" height="28" viewBox="0 0 47 28" fill="none" xmlns="http://www.w3.org/2000/svg">
<g opacity="0.75">
<path d="M40.8854 15.5119C39.6603 11.9561 32.343 9.21948 23.4705 9.21948C14.5981 9.21948 7.2808 11.9561 6.05566 15.5119H40.8826H40.8854Z" stroke="#783A35" stroke-width="0.7" stroke-miterlimit="10"/>
<path d="M5.94637 15.4372H0C0 15.4372 0.150993 18.525 4.53527 18.4518L1.21069 27.5846H4.46115L6.65191 19.5307C6.65191 19.5307 7.33275 18.5955 7.78573 19.5307L5.94637 27.5846H8.23871L9.75138 20.1054C9.75138 20.1054 11.5303 17.2292 12.6806 20.1054V27.5846H14.1329L15.9476 19.9618C15.9476 19.9618 18.2152 17.1561 20.104 19.9618V27.5846H21.3284V20.0062C21.3284 20.0062 22.7752 17.4617 24.2961 20.061V27.582H26.0256V19.9591C27.9144 17.1535 30.1821 19.9591 30.1821 19.9591L31.9967 27.582H33.449V20.1028C34.5993 17.2266 36.3782 20.1028 36.3782 20.1028L37.8909 27.582H40.1833L38.3439 19.5281C38.7969 18.5929 39.4777 19.5281 39.4777 19.5281L41.6685 27.582H44.9189L41.5944 18.4492C45.9786 18.5224 46.1296 15.4346 46.1296 15.4346H40.186" stroke="#783A35" stroke-width="0.7" stroke-miterlimit="10"/>
<path d="M22.3603 3.28158V2.6048H21.8008C21.8008 2.6048 21.7813 1.80718 22.4973 1.92803V1.18143C22.4973 1.18143 22.8637 0.773215 23.233 1.18143V1.93071C23.949 1.80986 23.9294 2.60749 23.9294 2.60749H23.37V3.28426" stroke="#783A35" stroke-width="0.7" stroke-miterlimit="10"/>
<path d="M19.5407 4.19997C19.3393 4.19997 19.1743 3.99587 19.1743 3.74073C19.1743 3.48829 19.3393 3.28149 19.5407 3.28149H26.1867C26.3881 3.28149 26.5531 3.4856 26.5531 3.74073C26.5531 3.99318 26.3881 4.19997 26.1867 4.19997" stroke="#783A35" stroke-width="0.7" stroke-miterlimit="10"/>
<path d="M17.7116 4.19995H28.0134C28.6539 4.19995 29.177 4.69948 29.177 5.31717C29.177 5.41385 29.0959 5.49173 28.9952 5.49173H16.7326C16.6319 5.49173 16.5508 5.41385 16.5508 5.31717C16.5508 4.70216 17.071 4.19995 17.7144 4.19995H17.7116Z" stroke="#783A35" stroke-width="0.7" stroke-miterlimit="10"/>
<path d="M17.98 5.48926V9.58482" stroke="#783A35" stroke-width="0.7" stroke-miterlimit="10"/>
<path d="M19.334 5.48926V9.42368" stroke="#783A35" stroke-width="0.7" stroke-miterlimit="10"/>
<path d="M20.3325 5.48926V9.33774" stroke="#783A35" stroke-width="0.7" stroke-miterlimit="10"/>
<path d="M21.686 5.48926V9.22495" stroke="#783A35" stroke-width="0.7" stroke-miterlimit="10"/>
<path d="M24.0386 5.48926V9.22495" stroke="#783A35" stroke-width="0.7" stroke-miterlimit="10"/>
<path d="M25.3926 5.48926V9.22495" stroke="#783A35" stroke-width="0.7" stroke-miterlimit="10"/>
<path d="M26.3911 5.48926V9.32163" stroke="#783A35" stroke-width="0.7" stroke-miterlimit="10"/>
<path d="M27.7446 5.48926V9.43711" stroke="#783A35" stroke-width="0.7" stroke-miterlimit="10"/>
</g>
</svg>
