<svg width="86" height="85" viewBox="0 0 86 85" fill="none" xmlns="http://www.w3.org/2000/svg">
<path d="M84.4667 71.7491V9.69887C84.4667 9.69887 84.183 0.834543 72.0941 1.00235V66.3496C73.1075 66.0239 74.2018 65.8462 75.3367 65.8462C80.6566 65.8462 84.9632 69.7256 84.9632 74.5032C84.9632 79.2809 80.6465 83.1602 75.3367 83.1602H71.0606H1V9.69887H71.8307" stroke="#783A35" stroke-width="2" stroke-miterlimit="10"/>
<path d="M9.60303 37.2198V55.1261" stroke="#783A35" stroke-width="2" stroke-miterlimit="10" stroke-linecap="round"/>
<path d="M9.98682 26.4189V16.6361H38.9868" stroke="#783A35" stroke-width="2" stroke-miterlimit="10" stroke-linecap="round"/>
<path d="M46.4575 16.6361H72.1045" stroke="#783A35" stroke-width="2" stroke-miterlimit="10" stroke-linecap="round"/>
<path d="M38.9868 45.9846V16.6361" stroke="#783A35" stroke-width="2" stroke-miterlimit="10" stroke-linecap="round"/>
<path d="M51.1895 46.4197V17.3392" stroke="#783A35" stroke-width="2" stroke-miterlimit="10" stroke-linecap="round"/>
<path d="M9.60303 46.1729H38.6852" stroke="#783A35" stroke-width="2" stroke-miterlimit="10" stroke-linecap="round"/>
<path d="M51.1895 46.4197H63.3695" stroke="#783A35" stroke-width="2" stroke-miterlimit="10" stroke-linecap="round"/>
<path d="M38.6851 53.5664V74.6513" stroke="#783A35" stroke-width="2" stroke-miterlimit="10" stroke-linecap="round"/>
<path d="M63.3694 58.275H38.6851" stroke="#783A35" stroke-width="2" stroke-miterlimit="10" stroke-linecap="round"/>
<path d="M63.3696 58.275V74.6513" stroke="#783A35" stroke-width="2" stroke-miterlimit="10" stroke-linecap="round"/>
<path d="M81.1329 74.6513H9.60303V65.4415" stroke="#783A35" stroke-width="2" stroke-miterlimit="10" stroke-linecap="round"/>
</svg>
