<svg width="60" height="60" viewBox="0 0 60 60" fill="none" xmlns="http://www.w3.org/2000/svg">
<path d="M48.1449 35.4077C45.897 36.7741 43.3153 37.4927 40.6847 37.4842C38.4809 37.4667 36.3021 37.016 34.2722 36.1577C32.7078 38.3662 31.8706 41.0074 31.8769 43.7139V50.6256C31.8775 50.8827 31.8252 51.1371 31.7233 51.3731C31.6214 51.609 31.4721 51.8215 31.2846 51.9974C31.0971 52.1732 30.8755 52.3086 30.6334 52.3952C30.3914 52.4818 30.1342 52.5177 29.8777 52.5006C29.3958 52.4587 28.9475 52.2361 28.6228 51.8775C28.2981 51.5189 28.121 51.0508 28.1269 50.567V47.6514L19.0754 38.5999C17.7298 39.1018 16.3068 39.3644 14.8707 39.3756C12.8936 39.3805 10.9536 38.8396 9.26442 37.8124C4.15739 34.7092 1.40817 27.5678 1.9402 18.7014C1.96699 18.2427 2.16128 17.8098 2.48619 17.4849C2.81109 17.16 3.24399 16.9657 3.7027 16.9389C12.5691 16.4163 19.7105 19.1561 22.8043 24.2631C24.0198 26.2649 24.5504 28.608 24.316 30.9381C24.3014 31.1187 24.2348 31.2911 24.1244 31.4346C24.0139 31.5781 23.8642 31.6866 23.6933 31.7468C23.5225 31.8071 23.3379 31.8165 23.1618 31.7741C22.9858 31.7317 22.8257 31.6391 22.7011 31.5077L18.2011 26.7967C17.8466 26.4599 17.3746 26.275 16.8857 26.2812C16.3968 26.2875 15.9296 26.4845 15.5839 26.8302C15.2381 27.176 15.0411 27.6431 15.0348 28.1321C15.0286 28.621 15.2136 29.093 15.5504 29.4475L28.1785 42.3967C28.1925 42.2139 28.209 42.0311 28.2277 41.8506C28.6377 38.3743 30.1717 35.1269 32.5965 32.6022L44.4535 20.0725C44.8053 19.721 45.0031 19.2441 45.0033 18.7468C45.0035 18.2494 44.8062 17.7724 44.4547 17.4206C44.1031 17.0687 43.6263 16.871 43.1289 16.8707C42.6316 16.8705 42.1545 17.0679 41.8027 17.4194L30.3183 29.5647C30.2034 29.6865 30.0579 29.7752 29.897 29.8217C29.7362 29.8682 29.5658 29.8708 29.4036 29.8292C29.2414 29.7876 29.0933 29.7032 28.9747 29.585C28.8561 29.4668 28.7714 29.319 28.7293 29.1569C27.6183 25.06 28.1082 20.9819 30.2293 17.4803C34.4152 10.5709 44.1558 6.87251 56.2871 7.58501C56.7458 7.6118 57.1787 7.80609 57.5036 8.13099C57.8285 8.4559 58.0228 8.8888 58.0496 9.34751C58.7527 21.4811 55.0543 31.2217 48.1449 35.4077Z" fill="white"/>
</svg>
