<svg width="54" height="54" viewBox="0 0 54 54" fill="none" xmlns="http://www.w3.org/2000/svg">
<path d="M30.7687 0.852539C31.2657 1.10943 31.3825 1.54278 31.3812 2.06566C31.3734 6.14873 31.3773 10.2305 31.3773 14.3136C31.3773 14.5186 31.3773 14.7236 31.3773 15.0025C31.6174 15.0025 31.8172 15.0025 32.017 15.0025C36.0658 15.0025 40.1145 15.0012 44.1632 15.0051C44.4202 15.0051 44.72 14.9766 44.9237 15.0947C45.1625 15.2322 45.3714 15.4904 45.4895 15.7434C45.5829 15.9445 45.5284 16.2195 45.5284 16.4609C45.5297 26.0101 45.5323 35.5593 45.5193 45.1073C45.5193 45.538 45.6374 45.7716 46.0189 46.0012C48.0887 47.2481 49.0762 49.1164 49.0633 51.5219C49.062 51.7282 49.0438 51.9345 49.0308 52.2251C49.2397 52.2251 49.4214 52.2251 49.6031 52.2251C50.6062 52.2264 51.6106 52.2173 52.6137 52.2329C53.1769 52.242 53.4961 52.5728 53.5013 53.0996C53.5065 53.6263 53.1847 53.9559 52.6319 53.9896C52.528 53.9961 52.4242 53.9922 52.3204 53.9922C35.3988 53.9922 18.4784 53.9909 1.55678 54C1.05588 54 0.643218 53.9079 0.352539 53.4758C0.352539 53.2332 0.352539 52.9919 0.352539 52.7493C0.638027 52.3146 1.04939 52.2069 1.55159 52.2186C2.6053 52.2445 3.66031 52.2264 4.71531 52.2264C5.01897 52.2264 5.32262 52.2264 5.65483 52.2264C5.65483 51.9267 5.65483 51.7035 5.65483 51.4816C5.65483 35.0442 5.65613 18.6056 5.64834 2.16815C5.64834 1.64139 5.7236 1.18469 6.16741 0.852539C14.3661 0.852539 22.5674 0.852539 30.7687 0.852539ZM7.48974 2.64043C7.48974 19.1881 7.48974 35.6943 7.48974 52.1952C8.32414 52.2666 8.30987 52.2627 8.53566 51.5297C8.66673 51.1028 8.86267 50.6954 9.00542 50.2724C9.09106 50.0207 9.17022 49.7547 9.1832 49.4927C9.21175 48.9231 9.17022 48.3496 9.20526 47.7813C9.2377 47.2481 9.53876 46.9639 10.0085 46.9328C10.5445 46.8965 10.8196 47.1092 10.9584 47.6607C10.9831 47.7567 11.0246 47.8501 11.0194 47.8345C11.8642 47.5607 12.6791 47.3013 13.4928 47.034C13.5823 47.0041 13.703 46.9484 13.7315 46.8757C14.0157 46.1387 14.2882 45.3966 14.5478 44.6519C14.5841 44.5494 14.527 44.4157 14.527 44.2977C14.5283 43.6593 14.4907 43.0158 14.5517 42.3826C14.6114 41.7586 15.1616 41.4018 15.7027 41.6755C16.0297 41.8416 16.2283 42.2633 16.5138 42.6045C17.6051 41.8805 18.9222 41.4887 20.3704 41.6249C21.8238 41.7612 23.0826 42.3515 24.2492 43.4284C24.2492 43.1027 24.2492 42.9029 24.2492 42.7044C24.2492 33.9168 24.2492 25.1291 24.2492 16.3415C24.2492 15.2659 24.5139 15.0038 25.6026 15.0025C26.7277 15.0012 27.8515 15.0038 28.9766 15.0012C29.1596 15.0012 29.3438 14.9857 29.5242 14.9779C29.5242 10.8338 29.5242 6.74686 29.5242 2.63913C22.1664 2.64043 14.8514 2.64043 7.48974 2.64043ZM38.2718 47.2494C38.739 46.7083 39.3593 46.4008 39.4475 45.6172C39.4981 45.1683 40.1794 45.0437 40.6751 45.2474C40.8905 45.3369 41.1552 45.346 41.394 45.3317C42.0104 45.2941 42.6255 45.2215 43.2406 45.1696C43.4028 45.1553 43.5676 45.167 43.7091 45.167C43.7091 35.6761 43.7091 26.2579 43.7091 16.8566C37.8111 16.8566 31.9548 16.8566 26.101 16.8566C26.101 26.2086 26.101 35.5204 26.101 44.8854C26.2748 44.8076 26.3955 44.7505 26.5188 44.6999C28.3511 43.9474 30.1017 44.1199 31.751 45.2007C32.0404 45.3901 32.2649 45.4057 32.5971 45.3343C33.6586 45.106 34.7149 44.9957 35.7829 45.4433C36.7484 45.8468 37.5516 46.4346 38.2718 47.2494ZM30.452 46.4657C29.994 46.3217 29.6462 46.1673 29.2815 46.1063C27.8943 45.8754 26.7861 46.4021 25.8803 47.4297C25.5949 47.7541 25.273 48.0239 24.8033 47.8579C24.3647 47.7022 24.1843 47.3376 24.1181 46.9003C24.1051 46.816 24.0688 46.7343 24.0493 46.6512C23.4187 44.007 20.3795 42.5967 17.9386 43.8111C16.3541 44.6 15.5781 45.9039 15.4198 47.636C15.3407 48.491 15.133 48.6519 14.2753 48.6986C12.3132 48.8037 10.5263 50.3581 10.2525 52.2108C16.4774 52.2108 22.7011 52.2108 28.9753 52.2108C28.3394 50.0506 28.8287 48.1744 30.452 46.4657ZM39.0984 52.2277C41.6393 52.2277 44.1814 52.2251 46.7223 52.2316C47.0272 52.2329 47.2621 52.2225 47.2816 51.8242C47.362 50.0934 46.8118 48.6286 45.3325 47.6736C43.8648 46.7252 42.2972 46.6435 40.7166 47.4842C39.9549 47.889 39.454 48.517 38.9985 49.2306C38.822 49.5069 38.434 49.7392 38.1044 49.8066C37.7138 49.8871 37.4647 49.5471 37.3141 49.1878C37.2544 49.045 37.1857 48.9049 37.1078 48.77C35.7972 46.4917 32.7969 46.611 31.3955 48.1537C30.4417 49.2046 30.356 50.4748 30.8842 51.7891C31.0165 52.1187 31.2086 52.2381 31.5797 52.2355C34.0842 52.2186 36.5913 52.2277 39.0984 52.2277Z" fill="#783A35"/>
<path d="M16.3502 6.19405C16.3165 6.57161 16.3139 6.95435 16.2399 7.32153C16.153 7.75748 15.8221 7.92874 15.3977 7.92355C14.9695 7.91836 14.6139 7.73153 14.5841 7.29429C14.5335 6.54306 14.5348 5.78405 14.5841 5.03283C14.6139 4.5904 14.9838 4.40227 15.4003 4.39708C15.8169 4.39189 16.1569 4.57483 16.2412 5.01207C16.3139 5.39871 16.3152 5.79703 16.3502 6.19405Z" fill="#783A35"/>
<path d="M16.3373 38.1218C16.3166 38.4383 16.314 38.7848 16.2647 39.1234C16.192 39.619 15.8403 39.824 15.381 39.8123C14.9449 39.802 14.5894 39.5918 14.5647 39.1156C14.5297 38.4137 14.5271 37.7066 14.5608 37.0047C14.5855 36.5025 14.9592 36.282 15.4134 36.282C15.8715 36.282 16.2115 36.5207 16.2725 37.0111C16.3179 37.3705 16.3166 37.7338 16.3373 38.1218Z" fill="#783A35"/>
<path d="M16.3438 27.4309C16.3153 27.8085 16.3165 28.1731 16.2543 28.526C16.1738 28.9814 15.8585 29.1903 15.4017 29.1851C14.9462 29.1799 14.6023 28.9723 14.5725 28.5091C14.5271 27.7916 14.5284 27.0663 14.5699 26.3488C14.5971 25.8831 14.9397 25.6729 15.3926 25.6638C15.8455 25.656 16.1712 25.8571 16.2517 26.3151C16.3178 26.6862 16.3165 27.0676 16.3438 27.4309Z" fill="#783A35"/>
<path d="M16.3411 11.4761C16.3164 11.8407 16.3151 12.2053 16.2632 12.5608C16.1906 13.0577 15.8311 13.2563 15.3743 13.242C14.937 13.229 14.5866 13.0136 14.5646 12.5375C14.5321 11.8355 14.5282 11.1284 14.5659 10.4265C14.5918 9.9244 14.972 9.71032 15.4249 9.71291C15.8545 9.71551 16.1983 9.92829 16.2632 10.3993C16.3112 10.7561 16.3164 11.1181 16.3411 11.4761Z" fill="#783A35"/>
<path d="M16.3462 22.075C16.3164 22.4876 16.3138 22.8509 16.2567 23.2064C16.1827 23.6696 15.8505 23.8811 15.4093 23.8785C14.9707 23.8759 14.6022 23.6735 14.5749 23.2012C14.5334 22.4655 14.5321 21.7247 14.5814 20.9903C14.6112 20.5518 14.959 20.3611 15.3886 20.3533C15.8129 20.3455 16.149 20.5116 16.2372 20.9462C16.3151 21.3303 16.3151 21.7299 16.3462 22.075Z" fill="#783A35"/>
<path d="M16.3437 32.7283C16.3164 33.1253 16.3177 33.473 16.2632 33.8103C16.1854 34.2943 15.857 34.5071 15.3808 34.4954C14.9253 34.4837 14.5918 34.2657 14.5685 33.8C14.5308 33.0812 14.5308 32.3572 14.5762 31.6397C14.6074 31.1674 14.9772 30.9702 15.4171 30.9702C15.8337 30.9689 16.1685 31.1622 16.2451 31.6008C16.3138 31.9874 16.3164 32.3857 16.3437 32.7283Z" fill="#783A35"/>
<path d="M16.3346 16.7943C16.3177 17.1563 16.3294 17.4871 16.2788 17.8076C16.2022 18.2993 15.844 18.603 15.3911 18.5705C14.9331 18.5368 14.5762 18.3201 14.5554 17.8206C14.5256 17.1355 14.5243 16.4453 14.558 15.7602C14.5827 15.2594 14.9422 15.0389 15.4028 15.035C15.8661 15.0311 16.2061 15.2542 16.2697 15.7473C16.3177 16.1028 16.3164 16.4661 16.3346 16.7943Z" fill="#783A35"/>
<path d="M9.21432 27.4023C9.21432 27.0754 9.17928 26.7432 9.2221 26.4215C9.28958 25.9167 9.62049 25.6586 10.1045 25.6612C10.6002 25.665 10.9182 25.9103 10.9532 26.4409C10.9973 27.1078 10.9843 27.7825 10.9467 28.4507C10.9195 28.9385 10.5937 29.1746 10.111 29.1837C9.62568 29.1941 9.31424 28.9528 9.23767 28.4818C9.17928 28.1276 9.19226 27.7617 9.17279 27.401C9.18706 27.4036 9.20004 27.4023 9.21432 27.4023Z" fill="#783A35"/>
<path d="M11.0194 11.4877C10.9973 11.8277 10.9869 12.1728 10.9519 12.514C10.9013 13.0174 10.5639 13.2341 10.1045 13.2419C9.63994 13.2497 9.27011 13.0213 9.23766 12.5335C9.19225 11.8316 9.19225 11.1218 9.24026 10.4199C9.2727 9.93208 9.65162 9.70114 10.1097 9.71022C10.5639 9.7193 10.9026 9.94895 10.9519 10.4511C10.9869 10.7949 10.9986 11.1387 11.0194 11.4877Z" fill="#783A35"/>
<path d="M11.0194 38.0607C10.9974 38.4007 10.987 38.7445 10.9519 39.087C10.9013 39.5917 10.5626 39.8071 10.1046 39.8149C9.64 39.8227 9.27016 39.5943 9.23902 39.1065C9.1936 38.4045 9.1949 37.6948 9.24161 36.9929C9.27535 36.5051 9.65427 36.2741 10.1124 36.2845C10.5665 36.2949 10.9052 36.5232 10.9545 37.0254C10.987 37.3666 10.9987 37.7117 11.0194 38.0607Z" fill="#783A35"/>
<path d="M9.21174 43.3609C9.21174 43.034 9.178 42.7018 9.21953 42.38C9.28311 41.8753 9.61662 41.6016 10.0903 41.5977C10.5678 41.5951 10.9182 41.8611 10.9519 42.3697C10.996 43.0365 10.9805 43.7112 10.9532 44.3807C10.9338 44.8815 10.5847 45.1008 10.1279 45.1423C9.67242 45.1825 9.32464 44.8776 9.22212 44.3937C9.21174 44.3431 9.19877 44.2912 9.19877 44.2406C9.19617 43.9474 9.19747 43.6541 9.19747 43.3609C9.20136 43.3609 9.20655 43.3609 9.21174 43.3609Z" fill="#783A35"/>
<path d="M9.20142 16.8034C9.20142 16.4933 9.17547 16.1806 9.20661 15.8731C9.26112 15.3373 9.58813 15.0363 10.0761 15.0259C10.5692 15.0155 10.926 15.2971 10.9611 15.8355C11.0039 16.4868 11 17.1446 10.952 17.7947C10.9144 18.2981 10.5523 18.5796 10.0903 18.5757C9.63614 18.5718 9.30264 18.2721 9.2131 17.7843C9.20402 17.7337 9.19493 17.6818 9.19493 17.6312C9.19364 17.3548 9.19364 17.0798 9.19364 16.8034C9.19623 16.8034 9.19883 16.8034 9.20142 16.8034Z" fill="#783A35"/>
<path d="M9.21161 6.15647C9.21161 5.82952 9.17787 5.49737 9.21939 5.1756C9.28168 4.68257 9.63205 4.39324 10.0914 4.39064C10.5612 4.38805 10.9167 4.66181 10.9505 5.16911C10.9959 5.836 10.9842 6.51068 10.9505 7.17886C10.9258 7.66541 10.6079 7.90803 10.1252 7.9236C9.62816 7.93917 9.3271 7.69136 9.21939 7.18924C9.20901 7.13864 9.19604 7.08804 9.19474 7.03614C9.19214 6.74292 9.19344 6.4497 9.19344 6.15647C9.20123 6.15647 9.20642 6.15647 9.21161 6.15647Z" fill="#783A35"/>
<path d="M9.20011 32.7412C9.20011 32.4311 9.17415 32.1184 9.2053 31.8109C9.2585 31.2906 9.60628 30.9714 10.0773 30.9624C10.5614 30.9533 10.9273 31.2439 10.9585 31.7785C10.9987 32.4466 10.9818 33.12 10.9403 33.7882C10.9117 34.254 10.5912 34.4772 10.1357 34.494C9.65948 34.5122 9.32468 34.3033 9.24163 33.8219C9.18064 33.4677 9.18972 33.1032 9.16766 32.7425C9.18064 32.7425 9.19102 32.7425 9.20011 32.7412Z" fill="#783A35"/>
<path d="M9.17407 22.0748C9.19224 21.7375 9.18316 21.3885 9.23766 21.0511C9.31552 20.575 9.63215 20.3427 10.1136 20.3531C10.5937 20.3622 10.9246 20.5957 10.9493 21.0849C10.9843 21.7699 10.983 22.4602 10.948 23.1452C10.9233 23.6422 10.5717 23.8705 10.1058 23.8783C9.63475 23.8861 9.30903 23.6409 9.23636 23.1634C9.18186 22.8079 9.19224 22.442 9.17407 22.0748Z" fill="#783A35"/>
<path d="M19.859 6.15907C19.859 5.83211 19.8421 5.50385 19.8629 5.17819C19.8941 4.68387 20.2042 4.44384 20.6701 4.39713C21.1255 4.35172 21.5564 4.65013 21.5888 5.11462C21.6368 5.81654 21.6394 6.52884 21.5862 7.22946C21.5486 7.71211 21.1593 7.95344 20.6571 7.91971C20.1731 7.88727 19.8941 7.62519 19.8616 7.13864C19.8409 6.81298 19.8577 6.48473 19.8577 6.15777C19.8577 6.15907 19.859 6.15907 19.859 6.15907Z" fill="#783A35"/>
<path d="M19.8604 22.0984C19.8604 21.7714 19.8409 21.4432 19.8656 21.1175C19.9019 20.6297 20.1952 20.3806 20.6766 20.3559C21.1542 20.3313 21.5357 20.544 21.5746 21.0176C21.6343 21.752 21.6278 22.498 21.5681 23.2324C21.5331 23.6657 21.0867 23.9317 20.6507 23.8798C20.2121 23.8279 19.9019 23.6021 19.8682 23.1312C19.8435 22.7886 19.863 22.4435 19.863 22.0984C19.8617 22.0984 19.8617 22.0984 19.8604 22.0984Z" fill="#783A35"/>
<path d="M21.6212 32.7191C21.6212 33.0292 21.6407 33.3419 21.6174 33.6494C21.5732 34.2034 21.2371 34.5057 20.709 34.4979C20.2003 34.4901 19.8837 34.2073 19.8577 33.6611C19.8292 33.0422 19.8292 32.4194 19.8603 31.8005C19.8876 31.2673 20.2288 30.9663 20.722 30.9637C21.2008 30.9598 21.5641 31.2802 21.6122 31.7888C21.6407 32.0963 21.6174 32.409 21.6174 32.7191C21.6186 32.7191 21.6199 32.7191 21.6212 32.7191Z" fill="#783A35"/>
<path d="M26.9198 6.16556C26.9198 6.49251 26.9406 6.82207 26.9146 7.14773C26.8757 7.65114 26.5188 7.94177 26.0037 7.9249C25.5183 7.90933 25.1887 7.61611 25.1719 7.12178C25.1498 6.48473 25.1485 5.84509 25.1719 5.20934C25.19 4.70722 25.565 4.38545 26.0543 4.39194C26.5435 4.39843 26.89 4.72539 26.9185 5.23528C26.9367 5.54408 26.9224 5.85547 26.9224 6.16556C26.9211 6.16556 26.9198 6.16556 26.9198 6.16556Z" fill="#783A35"/>
<path d="M21.615 11.5216C21.615 11.8316 21.6409 12.1443 21.6085 12.4518C21.5553 12.9617 21.188 13.2653 20.6988 13.2485C20.2161 13.2329 19.8865 12.95 19.8631 12.4466C19.8333 11.794 19.8424 11.1375 19.8644 10.4836C19.8813 9.98148 20.2239 9.75961 20.6768 9.70771C21.1232 9.65711 21.5345 9.9724 21.5929 10.4369C21.6383 10.7924 21.602 11.1596 21.602 11.5216C21.6072 11.5216 21.6111 11.5216 21.615 11.5216Z" fill="#783A35"/>
<path d="M26.9211 11.4904C26.9224 11.8005 26.9367 12.1119 26.9185 12.4207C26.8874 12.9293 26.5357 13.2536 26.0452 13.2549C25.5521 13.2562 25.1874 12.9331 25.1718 12.4271C25.1511 11.7901 25.1498 11.1504 25.1744 10.5134C25.1939 10.023 25.5897 9.68563 26.0659 9.6999C26.5266 9.71287 26.8848 10.0385 26.9172 10.5069C26.938 10.8339 26.9198 11.1634 26.9211 11.4904Z" fill="#783A35"/>
<path d="M21.6174 38.0206C21.6174 38.3476 21.642 38.6784 21.6122 39.0028C21.5642 39.5218 21.2138 39.828 20.7207 39.8228C20.2224 39.8189 19.8837 39.5205 19.859 38.9885C19.8305 38.3528 19.8318 37.7131 19.8655 37.0774C19.8915 36.5843 20.2392 36.2859 20.7077 36.2742C21.1593 36.2626 21.5434 36.5688 21.6005 37.0397C21.6394 37.3628 21.6083 37.6937 21.6083 38.0206C21.6109 38.0206 21.6135 38.0206 21.6174 38.0206Z" fill="#783A35"/>
<path d="M21.6199 16.8229C21.6199 17.1161 21.6381 17.4106 21.6161 17.7025C21.5745 18.241 21.206 18.5848 20.7129 18.5757C20.2263 18.5666 19.8837 18.2553 19.8577 17.7259C19.8279 17.107 19.8279 16.4842 19.8577 15.8654C19.8837 15.3308 20.2172 15.0337 20.7155 15.0272C21.2073 15.0207 21.5616 15.3256 21.6109 15.8433C21.6407 16.1677 21.6161 16.4985 21.6161 16.8255C21.6174 16.8229 21.6187 16.8229 21.6199 16.8229Z" fill="#783A35"/>
<path d="M21.6213 27.3972C21.6213 27.7072 21.6395 28.0186 21.6174 28.3274C21.5759 28.8827 21.2411 29.1902 20.7181 29.1863C20.2068 29.1825 19.885 28.9022 19.8591 28.3573C19.8292 27.7215 19.8305 27.0819 19.8656 26.4461C19.8928 25.9401 20.2224 25.669 20.7129 25.6625C21.1944 25.656 21.5447 25.9297 21.6031 26.415C21.6421 26.7381 21.6109 27.0689 21.6109 27.3959C21.6135 27.3972 21.6174 27.3972 21.6213 27.3972Z" fill="#783A35"/>
<path d="M39.2775 36.3041C39.3099 35.9161 39.319 35.536 39.3787 35.1636C39.4553 34.69 39.8121 34.5032 40.2417 34.5123C40.6491 34.5214 41.0216 34.7134 41.0475 35.1636C41.089 35.9148 41.0916 36.6725 41.041 37.4238C41.0099 37.8714 40.6323 38.0387 40.217 38.0387C39.8018 38.0387 39.4631 37.8701 39.3852 37.4238C39.319 37.0527 39.3099 36.6725 39.2775 36.3041Z" fill="#783A35"/>
<path d="M41.154 31.0066C41.1203 31.3686 41.1177 31.75 41.0437 32.1185C40.9568 32.5519 40.6376 32.7283 40.2067 32.7244C39.7746 32.7205 39.4217 32.535 39.3905 32.1003C39.3373 31.3504 39.3386 30.5914 39.3879 29.8402C39.4165 29.4003 39.7785 29.2057 40.199 29.2005C40.6428 29.1953 40.9776 29.3926 41.0541 29.8583C41.1164 30.2294 41.1216 30.6109 41.154 31.0066Z" fill="#783A35"/>
<path d="M41.1514 20.3338C41.1215 20.7152 41.1111 21.0772 41.0592 21.4327C40.9892 21.905 40.6492 22.1087 40.2145 22.1074C39.7797 22.1074 39.406 21.9024 39.3788 21.4288C39.3372 20.6944 39.3333 19.9523 39.3865 19.2192C39.4203 18.7483 39.8005 18.5718 40.2443 18.5809C40.6686 18.5887 40.984 18.7794 41.0553 19.2231C41.1124 19.5955 41.1215 19.9757 41.1514 20.3338Z" fill="#783A35"/>
<path d="M41.1564 25.6417C41.1214 26.04 41.1162 26.4214 41.0487 26.7912C40.9682 27.2271 40.6464 27.4153 40.2208 27.4166C39.7952 27.4192 39.4253 27.2349 39.3942 26.8003C39.3397 26.0335 39.3371 25.2563 39.3994 24.4895C39.4344 24.0601 39.8068 23.8875 40.2377 23.8927C40.649 23.8979 40.9553 24.0769 41.0396 24.4804C41.1188 24.8645 41.1214 25.2654 41.1564 25.6417Z" fill="#783A35"/>
<path d="M41.1489 41.5717C41.1216 41.9466 41.1112 42.3086 41.0671 42.6654C41.0087 43.1416 40.67 43.3557 40.2405 43.3634C39.7889 43.3712 39.3983 43.1636 39.371 42.6628C39.3321 41.944 39.336 41.2214 39.3775 40.5026C39.4061 40.0225 39.7902 39.8318 40.2171 39.8318C40.6441 39.8318 40.9957 40.0251 41.0606 40.5052C41.1099 40.862 41.1216 41.2227 41.1489 41.5717Z" fill="#783A35"/>
<path d="M30.4572 25.6869C30.4572 25.997 30.4741 26.3084 30.4533 26.6172C30.4196 27.1128 30.1017 27.4047 29.6163 27.419C29.1141 27.4333 28.7339 27.1322 28.7105 26.6288C28.6807 25.9749 28.6794 25.3171 28.7118 24.6645C28.7378 24.1598 29.1128 23.8769 29.6293 23.8951C30.1172 23.912 30.4222 24.2 30.4533 24.7034C30.4741 25.0304 30.4585 25.3586 30.4572 25.6869Z" fill="#783A35"/>
<path d="M28.7002 30.9573C28.7002 30.6472 28.6833 30.3358 28.7041 30.027C28.7391 29.5158 29.0882 29.1979 29.58 29.1953C30.0809 29.194 30.4351 29.5028 30.4533 30.0179C30.4754 30.6549 30.4767 31.2946 30.4507 31.9316C30.4313 32.4312 30.1068 32.714 29.615 32.7244C29.0972 32.7361 28.7508 32.4519 28.7079 31.9407C28.6807 31.6151 28.7028 31.2855 28.7028 30.9586C28.7015 30.9573 28.7015 30.9573 28.7002 30.9573Z" fill="#783A35"/>
<path d="M34.0025 25.6092C34.0025 25.3328 33.9857 25.0565 34.0051 24.7814C34.0467 24.2144 34.3646 23.9004 34.8785 23.894C35.417 23.8862 35.7414 24.1599 35.7713 24.7412C35.8037 25.3756 35.7881 26.0153 35.7583 26.651C35.7349 27.1428 35.4196 27.3854 34.9447 27.4165C34.4632 27.4477 34.1284 27.1765 34.0246 26.6926C34.0142 26.642 34.0025 26.5901 34.0025 26.5395C34.0025 26.2294 34.0038 25.9193 34.0025 25.6092Z" fill="#783A35"/>
<path d="M30.456 20.3934C30.456 20.7035 30.4742 21.0149 30.4521 21.3237C30.4171 21.8012 30.0693 22.11 29.5969 22.1178C29.1389 22.1242 28.7392 21.8129 28.7158 21.3471C28.6821 20.6763 28.6808 20.0016 28.7158 19.3308C28.7418 18.8508 29.1116 18.5705 29.5995 18.577C30.0875 18.5835 30.4184 18.8715 30.4521 19.3594C30.4755 19.7019 30.456 20.0483 30.456 20.3934Z" fill="#783A35"/>
<path d="M34.009 41.5796C34.009 41.2695 33.9831 40.9568 34.0142 40.6493C34.0674 40.1342 34.4256 39.819 34.9044 39.8215C35.3949 39.8241 35.7375 40.1213 35.7674 40.6584C35.8011 41.2942 35.7998 41.9338 35.7609 42.5682C35.7297 43.0768 35.3949 43.3597 34.9213 43.374C34.4671 43.3869 34.0895 43.0911 34.0285 42.6111C33.9856 42.2724 34.0207 41.9234 34.0207 41.5783C34.0168 41.5796 34.0129 41.5796 34.009 41.5796Z" fill="#783A35"/>
<path d="M34.009 30.9508C34.009 30.6407 33.9831 30.328 34.0142 30.0205C34.0674 29.5002 34.4165 29.194 34.9018 29.1953C35.3988 29.1966 35.7362 29.4846 35.7661 30.0257C35.8011 30.6601 35.7998 31.3011 35.7609 31.9355C35.7284 32.4597 35.4183 32.714 34.9226 32.7218C34.41 32.7309 34.0947 32.4571 34.0116 31.9316C34.0064 31.8979 34.0012 31.8629 34.0012 31.8291C33.9999 31.5359 34.0012 31.2427 34.0012 30.9495C34.0038 30.9508 34.0064 30.9508 34.009 30.9508Z" fill="#783A35"/>
<path d="M30.4598 36.2951C30.4585 36.6052 30.4741 36.9166 30.4559 37.2254C30.4261 37.7262 30.1224 38.0181 29.6371 38.0414C29.1297 38.0661 28.7404 37.7768 28.7144 37.2747C28.6794 36.622 28.6833 35.9642 28.7118 35.3103C28.7339 34.8186 29.1388 34.4864 29.6137 34.5033C30.1081 34.5202 30.4313 34.8406 30.4585 35.3635C30.4728 35.6736 30.4598 35.9837 30.4598 36.2951Z" fill="#783A35"/>
<path d="M30.4573 41.6276C30.4573 41.9377 30.4728 42.2491 30.4534 42.5579C30.4222 43.0405 30.0913 43.3519 29.619 43.3727C29.144 43.3934 28.734 43.0639 28.7106 42.5734C28.6808 41.9195 28.6808 41.2617 28.7119 40.6091C28.734 40.1368 29.1155 39.8216 29.5775 39.8177C30.0667 39.8138 30.4235 40.1394 30.4534 40.6454C30.4741 40.9711 30.4573 41.3006 30.4573 41.6276Z" fill="#783A35"/>
<path d="M34.0051 36.2534C34.0051 35.9601 33.9843 35.6656 34.0103 35.375C34.0583 34.8353 34.4255 34.494 34.9148 34.5031C35.4014 34.5122 35.7401 34.8119 35.7686 35.3529C35.8024 35.9874 35.7998 36.6283 35.7595 37.2628C35.7271 37.7792 35.404 38.04 34.9122 38.0451C34.4229 38.0503 34.1115 37.787 34.0194 37.2874C34.0103 37.2368 34.0025 37.1849 34.0025 37.133C34.0012 36.8398 34.0012 36.5466 34.0012 36.2534C34.0025 36.2534 34.0038 36.2534 34.0051 36.2534Z" fill="#783A35"/>
<path d="M35.8126 20.3546C35.7944 20.6906 35.7892 21.0357 35.7555 21.3783C35.7101 21.8531 35.3922 22.0802 34.9574 22.1074C34.4955 22.136 34.0971 21.9206 34.0582 21.4405C33.9985 20.7075 33.9985 19.9614 34.0607 19.2271C34.1023 18.7431 34.5007 18.5563 34.9704 18.5848C35.4246 18.6121 35.7127 18.8469 35.7581 19.314C35.7918 19.6565 35.7957 20.0017 35.8126 20.3546Z" fill="#783A35"/>
</svg>
