<svg width="18" height="18" viewBox="0 0 18 18" fill="none" xmlns="http://www.w3.org/2000/svg">
<path d="M8.49422 3.90334L1.42078 12.9596C1.40215 12.9833 1.39057 13.0117 1.38738 13.0416C1.38418 13.0716 1.3895 13.1018 1.40272 13.1289C1.41593 13.156 1.43651 13.1788 1.4621 13.1946C1.48768 13.2105 1.51723 13.2189 1.54735 13.2187L3.10025 13.2187C3.19869 13.2187 3.2931 13.1725 3.35337 13.0962L9.00047 5.86406L14.6476 13.0962C14.7078 13.1746 14.8023 13.2187 14.9007 13.2187L16.4536 13.2187C16.5882 13.2187 16.6625 13.0641 16.5802 12.9596L9.50672 3.90334C9.44668 3.82637 9.36988 3.76411 9.28215 3.72128C9.19443 3.67845 9.09809 3.65619 9.00047 3.65619C8.90285 3.65619 8.80651 3.67845 8.71879 3.72128C8.63107 3.76411 8.55426 3.82637 8.49422 3.90334Z" fill="#783A35" fill-opacity="0.95"/>
</svg>
