<svg width="204" height="189" viewBox="0 0 204 189" fill="none" xmlns="http://www.w3.org/2000/svg">
<g clip-path="url(#clip0_1850_12617)">
<path d="M191.93 155.33L153.179 122.379C149.171 118.77 144.887 117.124 141.431 117.277C151.715 105.218 156.933 89.6473 155.992 73.8269C155.05 58.0066 148.021 43.1646 136.379 32.4111C124.736 21.6575 109.383 15.8269 93.5371 16.141C77.6908 16.4551 62.5811 22.8895 51.3739 34.096C40.1667 45.3024 33.7319 60.4112 33.4178 76.2565C33.1037 92.1017 38.9347 107.454 49.6889 119.095C60.4432 130.737 75.286 137.765 91.1074 138.707C106.929 139.649 122.501 134.431 134.56 124.147C134.397 127.603 136.053 131.887 139.662 135.895L172.616 174.643C178.26 180.91 187.472 181.442 193.096 175.819C198.719 170.196 198.187 160.974 191.92 155.34L191.93 155.33ZM94.7561 118.361C83.9093 118.361 73.5067 114.052 65.8368 106.383C58.1669 98.7133 53.858 88.3114 53.858 77.4652C53.858 66.619 58.1669 56.2171 65.8368 48.5477C73.5067 40.8783 83.9093 36.5697 94.7561 36.5697C105.603 36.5697 116.006 40.8783 123.675 48.5477C131.345 56.2171 135.654 66.619 135.654 77.4652C135.654 88.3114 131.345 98.7133 123.675 106.383C116.006 114.052 105.603 118.361 94.7561 118.361Z" fill="#23A6A4"/>
<circle cx="95.038" cy="99.6485" r="5.184" fill="#23A6A4"/>
<path d="M85.2486 73.7289C85.2486 78.1825 81.6382 81.7929 77.1846 81.7929C72.731 81.7929 69.1206 78.1825 69.1206 73.7289" stroke="#23A6A4" stroke-width="3.456"/>
<path d="M120.961 73.7289C120.961 78.1825 117.35 81.7929 112.897 81.7929C108.443 81.7929 104.833 78.1825 104.833 73.7289" stroke="#23A6A4" stroke-width="3.456"/>
<circle cx="126.144" cy="159.553" r="4.32" stroke="#DDDD97" stroke-width="1.728"/>
<g clip-path="url(#clip1_1850_12617)">
<path d="M184.997 124.397L185.902 126.025C186.067 126.323 186.507 126.274 186.604 125.949L187.137 124.166L188.967 123.806C189.301 123.74 189.39 123.305 189.111 123.114L187.579 122.056L187.799 120.209C187.84 119.875 187.453 119.653 187.186 119.859L185.707 120.982L184.019 120.197C183.712 120.053 183.383 120.351 183.495 120.672L184.113 122.432L182.846 123.795C182.615 124.044 182.796 124.448 183.137 124.439L184.997 124.397Z" fill="#3985A7"/>
</g>
</g>
<circle cx="46.6533" cy="24.7682" r="1.728" fill="#ADADB5"/>
<circle cx="58.7521" cy="1.15212" r="1.152" fill="#D9D9D9"/>
<circle cx="1.728" cy="67.3925" r="1.728" fill="#ECEBEB"/>
<circle cx="202.173" cy="143.426" r="1.728" fill="#D9D9D9"/>
<circle cx="20.1596" cy="12.0969" r="1.728" fill="#B5C6A0"/>
<circle cx="3.45473" cy="24.1923" r="1.152" fill="#D9D9D9"/>
<circle cx="16.7045" cy="45.5042" r="4.32" stroke="#23A5A3" stroke-width="1.728"/>
<path d="M83.102 11.4634L85.7974 12.1974C86.2911 12.3321 86.6987 11.8084 86.4519 11.3637L85.0964 8.92331L86.6263 6.58173C86.9057 6.15454 86.5324 5.6022 86.0339 5.70257L83.2939 6.23915L81.5419 4.06769C81.2255 3.67281 80.583 3.85622 80.5227 4.35862L80.1795 7.12219L77.5691 8.11295C77.0928 8.29085 77.0673 8.95703 77.5301 9.17235L80.0656 10.3534L80.2026 13.1416C80.2278 13.6496 80.8504 13.8792 81.1987 13.5042L83.102 11.4634Z" fill="#E1E065"/>
<g clip-path="url(#clip2_1850_12617)">
<path d="M201.026 187.313L202.022 187.916C202.204 188.026 202.427 187.863 202.379 187.656L202.115 186.524L202.996 185.76C203.157 185.621 203.071 185.357 202.859 185.34L201.7 185.242L201.247 184.172C201.165 183.977 200.887 183.977 200.805 184.172L200.351 185.24L199.192 185.338C198.981 185.355 198.895 185.619 199.055 185.758L199.936 186.521L199.672 187.654C199.624 187.86 199.847 188.024 200.03 187.913L201.026 187.313Z" fill="#7EC51D"/>
</g>
<g clip-path="url(#clip3_1850_12617)">
<path d="M15.054 88.2685C15.0274 88.1839 15.0275 88.0931 15.0544 88.0085C15.0812 87.9239 15.1334 87.8497 15.2039 87.7958C15.2744 87.7419 15.3597 87.7111 15.4484 87.7074C15.537 87.7038 15.6246 87.7275 15.6993 87.7754L16.7126 88.4212C17.5069 88.9279 18.4021 89.255 19.3359 89.3799C20.2697 89.5047 21.2195 89.4242 22.119 89.144L23.2656 88.7876C23.3503 88.761 23.441 88.7611 23.5256 88.7879C23.6102 88.8148 23.6845 88.867 23.7383 88.9375C23.7922 89.008 23.8231 89.0933 23.8267 89.182C23.8304 89.2706 23.8066 89.3582 23.7587 89.4329L23.1136 90.4457C22.6069 91.2399 22.2798 92.1352 22.1549 93.069C22.0301 94.0028 22.1106 94.9526 22.3908 95.852L22.7472 96.9987C22.7738 97.0833 22.7737 97.1741 22.7469 97.2587C22.72 97.3433 22.6678 97.4175 22.5974 97.4714C22.5269 97.5253 22.4415 97.5561 22.3528 97.5598C22.2642 97.5634 22.1766 97.5397 22.1019 97.4918L21.0891 96.8467C20.2949 96.34 19.3996 96.0128 18.4658 95.888C17.532 95.7632 16.5822 95.8436 15.6828 96.1238L14.5354 96.4808C14.4508 96.5074 14.36 96.5073 14.2754 96.4804C14.1909 96.4536 14.1166 96.4014 14.0627 96.3309C14.0089 96.2604 13.978 96.1751 13.9744 96.0864C13.9707 95.9978 13.9944 95.9102 14.0423 95.8355L14.6881 94.8222C15.1948 94.0279 15.522 93.1327 15.6468 92.1989C15.7717 91.2651 15.6912 90.3153 15.411 89.4158L15.054 88.2685Z" fill="#71BA2D"/>
</g>
<defs>
<clipPath id="clip0_1850_12617">
<rect width="167.04" height="167.04" fill="white" transform="translate(33.4058 16.1289)"/>
</clipPath>
<clipPath id="clip1_1850_12617">
<rect width="9.216" height="9.216" fill="white" transform="translate(184.287 116.353) rotate(29.7676)"/>
</clipPath>
<clipPath id="clip2_1850_12617">
<rect width="5.76" height="5.76" fill="white" transform="translate(198.143 183.169)"/>
</clipPath>
<clipPath id="clip3_1850_12617">
<rect width="13.824" height="13.824" fill="white" transform="translate(9.21387 91.337) rotate(-37.3848)"/>
</clipPath>
</defs>
</svg>
