<svg width="58" height="52" viewBox="0 0 58 52" fill="none" xmlns="http://www.w3.org/2000/svg">
<g clip-path="url(#clip0_1850_16630)">
<path d="M31.2529 51.3988C28.1596 51.3988 25.067 51.3994 21.9744 51.3988C20.8523 51.3988 20.5352 51.0899 20.5319 49.9517C20.5246 47.3876 20.4928 44.8234 20.5452 42.2606C20.5691 41.084 20.1638 40.1522 19.3275 39.3843C18.5031 38.6277 17.6496 37.9028 16.8079 37.1648C15.2096 35.7633 14.0516 34.1013 13.7107 31.9558C13.6106 31.3242 13.6119 30.688 13.6457 30.053C13.7266 28.5339 13.7697 27.0107 13.9216 25.4982C14.1929 22.7925 15.9683 20.7773 18.6749 19.9896C19.5729 19.7284 19.5941 19.7277 19.5676 18.7985C19.5331 17.5915 19.6843 16.4559 20.52 15.4989C21.6786 14.1715 23.6132 13.7932 25.1579 14.6431C25.5207 14.8428 25.7097 14.8647 26.0048 14.4989C27.7836 12.2933 30.981 12.5737 32.3492 15.0498C32.5627 15.4368 32.7232 15.4599 33.1039 15.2959C34.8747 14.5313 36.8631 15.1722 37.8426 16.817C38.0356 17.1411 38.1557 17.231 38.5377 17.0465C41.1077 15.8065 43.9874 17.5948 43.9887 20.4334C43.9894 22.2244 43.9668 24.018 43.9681 25.8077C43.9688 27.024 44.3283 28.2389 44.5133 29.4571C44.8549 31.7051 45.1593 33.9538 44.8442 36.2375C44.5511 38.3645 43.671 40.217 42.2809 41.8354C42.011 42.1495 41.8995 42.467 41.9022 42.8797C41.9175 45.289 41.9115 47.6991 41.9088 50.1084C41.9082 51.1256 41.6276 51.3994 40.5903 51.3994C37.4779 51.3994 34.3654 51.3981 31.2529 51.3988ZM31.5347 40.8321C31.5347 40.8301 31.5347 40.8281 31.5347 40.8261C34.3368 40.8261 37.139 40.8248 39.9404 40.8281C40.2786 40.8287 40.5777 40.801 40.8178 40.5027C41.7642 39.3274 42.4692 38.0391 42.7624 36.5477C43.295 33.8374 42.7657 31.184 42.3386 28.5233C42.2749 28.1278 42.0806 28.2568 41.8511 28.3546C40.3668 28.9909 38.9847 28.8308 37.7372 27.7859C37.5057 27.5921 37.3499 27.5564 37.0972 27.766C35.7296 28.8989 34.2473 29.0398 32.6868 28.1946C32.4082 28.0438 32.2517 28.0643 32.0653 28.3229C31.5526 29.0339 30.8695 29.5272 30.0166 29.7508C29.7082 29.8315 29.6592 29.9816 29.7374 30.2521C30.0956 31.4909 30.0916 32.7633 30.0717 34.0358C30.0604 34.7481 29.7135 35.1681 29.1286 35.1939C28.5549 35.2197 28.1563 34.8314 28.0999 34.1125C28.0475 33.4412 28.0628 32.7647 28.0349 32.0914C27.9388 29.7693 26.7516 28.4294 24.4529 28.0246C23.1715 27.7991 21.8789 27.7812 20.5843 27.8037C20.1459 27.811 19.7805 27.6946 19.559 27.2912C19.1889 26.6172 19.6591 25.8805 20.4935 25.8732C22.2516 25.8566 24.0105 25.8719 25.7687 25.8633C26.3271 25.8606 26.8876 25.9096 27.4447 25.8011C28.6391 25.567 29.3057 24.6933 29.2022 23.4764C29.1133 22.4347 28.2379 21.6629 27.0991 21.6576C24.9543 21.6483 22.8094 21.645 20.6646 21.6616C19.49 21.6708 18.4262 22.0485 17.4924 22.7641C16.5029 23.522 15.9603 24.5081 15.9013 25.7726C15.8376 27.1371 15.7322 28.5008 15.6168 29.8626C15.4822 31.4578 15.7959 32.9274 16.7615 34.2296C17.4811 35.1998 18.4149 35.9518 19.3335 36.719C20.524 37.713 21.7131 38.7196 22.2424 40.2421C22.4088 40.7209 22.6582 40.8446 23.1278 40.842C25.9305 40.8235 28.7326 40.8321 31.5347 40.8321ZM31.2807 42.8314C31.2807 42.832 31.2807 42.8327 31.2807 42.834C28.5768 42.834 25.8728 42.842 23.1689 42.8261C22.7073 42.8234 22.5176 42.9412 22.5249 43.4385C22.5494 45.2487 22.5501 47.0595 22.5249 48.8697C22.5176 49.375 22.7205 49.4755 23.1749 49.4742C28.5635 49.4623 33.9515 49.4596 39.3402 49.4775C39.8688 49.4795 39.9888 49.2943 39.9822 48.8055C39.9576 47.0727 39.9729 45.3386 39.9722 43.6058C39.9722 42.8347 39.9709 42.8327 39.2188 42.832C36.5726 42.8314 33.9263 42.8314 31.2807 42.8314ZM36.3955 21.8706C36.3955 20.8507 36.4061 19.8316 36.3928 18.8117C36.3782 17.7357 35.6155 16.9506 34.6001 16.9381C33.6186 16.9262 32.8347 17.7363 32.8267 18.821C32.8121 20.8408 32.8121 22.8606 32.8267 24.8805C32.8353 26.0147 33.5377 26.7158 34.6101 26.7144C35.6706 26.7131 36.3802 25.9896 36.3935 24.8719C36.4054 23.8712 36.3961 22.8706 36.3955 21.8706ZM38.417 22.653C38.417 23.4228 38.4037 24.1926 38.4203 24.9625C38.4409 25.9201 39.1008 26.6298 40.012 26.7052C41.0347 26.7898 41.8511 26.2475 41.9612 25.2422C42.1476 23.5399 42.1469 21.8216 41.9619 20.1193C41.8531 19.1186 41.034 18.5736 40.012 18.651C39.1246 18.7185 38.4395 19.4592 38.4196 20.401C38.4044 21.1517 38.417 21.9023 38.417 22.653ZM30.8065 21.9129C30.8065 20.0525 30.837 18.3653 30.7946 16.6795C30.7707 15.7297 29.9218 14.9804 29.0012 14.9738C28.0601 14.9672 27.2291 15.7403 27.186 16.7205C27.1502 17.5452 27.1847 18.3732 27.1708 19.1993C27.1654 19.522 27.3206 19.6272 27.6138 19.6728C28.9661 19.8845 30.0193 20.5558 30.8065 21.9129ZM23.3606 19.6398C23.785 19.6398 24.2101 19.6285 24.6339 19.6431C24.9914 19.655 25.1791 19.5267 25.1672 19.1464C25.1519 18.6847 25.1791 18.2218 25.1466 17.7621C25.0809 16.8402 24.3521 16.2046 23.3931 16.2006C22.4354 16.1967 21.6839 16.827 21.6097 17.7357C21.5705 18.2138 21.6043 18.6973 21.5898 19.1781C21.5791 19.5346 21.7562 19.6517 22.0878 19.6424C22.511 19.6305 22.9361 19.6398 23.3606 19.6398ZM28.1908 27.6992C29.0251 28.0636 29.6253 27.9241 30.1672 27.4816C30.6871 27.057 30.8854 26.4109 30.7183 25.7356C30.1373 26.6536 29.3561 27.3037 28.1908 27.6992Z" fill="#4F2205"/>
<path d="M30.2934 3.64788C30.2934 4.41903 30.304 5.18953 30.29 5.96003C30.2774 6.66637 29.9107 7.07708 29.3164 7.09163C28.7142 7.10684 28.301 6.71399 28.2911 6.01227C28.2679 4.43226 28.2672 2.85159 28.2911 1.27223C28.3017 0.571841 28.7175 0.180971 29.3211 0.198828C29.916 0.216024 30.2774 0.625412 30.29 1.33506C30.304 2.10622 30.294 2.87738 30.2934 3.64788Z" fill="#4F2205"/>
<path d="M54.313 30.2145C53.5596 30.2145 52.8055 30.2231 52.0521 30.2119C51.308 30.2006 50.8855 29.8316 50.8828 29.2172C50.8802 28.6213 51.2788 28.2251 51.9877 28.2152C53.5529 28.194 55.1182 28.194 56.6834 28.2145C57.3943 28.2238 57.7956 28.6166 57.7962 29.2105C57.7969 29.8243 57.3718 30.2006 56.6316 30.2119C55.859 30.2238 55.0856 30.2145 54.313 30.2145Z" fill="#4F2205"/>
<path d="M3.66874 29.6285C2.91532 29.6285 2.1619 29.6391 1.40915 29.6259C0.623897 29.6113 0.186172 29.233 0.195457 28.6073C0.204742 27.979 0.635835 27.6259 1.43369 27.6226C2.92063 27.616 4.40823 27.6146 5.89517 27.6232C6.68109 27.6279 7.11351 27.9995 7.10886 28.6325C7.10422 29.235 6.67711 29.6087 5.92833 29.6245C5.17558 29.6404 4.42216 29.6278 3.66874 29.6285Z" fill="#4F2205"/>
<path d="M5.0322 13.8027C5.30147 13.8166 5.50906 13.9112 5.71134 14.0283C7.0285 14.7882 8.35029 15.5402 9.6648 16.3054C10.3167 16.685 10.5071 17.2068 10.2139 17.7313C9.91284 18.271 9.32523 18.3827 8.66134 18.0044C7.30639 17.2326 5.95342 16.4575 4.60907 15.6678C4.17201 15.4112 3.94585 15.0177 4.10635 14.4992C4.24828 14.0435 4.59183 13.8265 5.0322 13.8027Z" fill="#4F2205"/>
<path d="M44.1534 5.03735C44.1428 5.25362 44.0718 5.45005 43.9644 5.63589C43.1838 6.9831 42.4111 8.33495 41.6219 9.67621C41.2505 10.3072 40.6941 10.4791 40.1734 10.1603C39.68 9.85808 39.5653 9.29724 39.9075 8.69804C40.6888 7.32966 41.4786 5.96526 42.2778 4.60746C42.5345 4.17096 42.9245 3.93882 43.4444 4.09225C43.9021 4.22651 44.1275 4.56513 44.1534 5.03735Z" fill="#4F2205"/>
<path d="M48.6505 39.5859C48.888 39.6031 49.0989 39.6931 49.3018 39.8101C50.6236 40.572 51.9494 41.3267 53.2672 42.0958C53.9112 42.4722 54.1022 43.0185 53.8031 43.535C53.506 44.0469 52.917 44.1626 52.2823 43.8028C50.9214 43.031 49.5671 42.2486 48.2141 41.4636C47.7678 41.2043 47.5403 40.8207 47.6988 40.2996C47.8374 39.8439 48.177 39.617 48.6505 39.5859Z" fill="#4F2205"/>
<path d="M48.8659 18.7582C48.4912 18.7192 48.1423 18.5221 48.0143 18.0883C47.8757 17.6187 48.0031 17.1987 48.4428 16.9362C49.287 16.4315 50.1413 15.9441 50.9935 15.4521C51.5612 15.124 52.1236 14.7847 52.704 14.4798C53.2743 14.1809 53.8427 14.3376 54.106 14.8277C54.3587 15.2973 54.2115 15.8667 53.6935 16.1729C52.2987 16.9977 50.8894 17.7966 49.4834 18.6015C49.3156 18.6981 49.1325 18.7649 48.8659 18.7582Z" fill="#4F2205"/>
<path d="M18.8213 8.9957C18.7596 9.49503 18.56 9.83696 18.1163 9.95336C17.6415 10.0784 17.2269 9.94476 16.965 9.5076C16.4802 8.69808 16.0093 7.87996 15.5357 7.06317C15.1882 6.46331 14.8301 5.86874 14.5051 5.25631C14.2192 4.71729 14.3671 4.17298 14.8334 3.89454C15.2937 3.62008 15.8852 3.7464 16.1903 4.25764C17.0386 5.68024 17.8583 7.12005 18.6801 8.55787C18.7636 8.70337 18.7862 8.88326 18.8213 8.9957Z" fill="#4F2205"/>
<path d="M4.83424 43.5245C4.32886 43.4941 3.97338 43.3076 3.83145 42.879C3.66896 42.3883 3.80492 41.9551 4.26586 41.6806C5.1108 41.1773 5.96569 40.6899 6.81793 40.1985C7.38631 39.8711 7.94872 39.5325 8.52904 39.2269C9.07022 38.9425 9.62136 39.09 9.89394 39.5536C10.1639 40.0126 10.0345 40.6092 9.52851 40.9094C8.1185 41.7461 6.69192 42.5549 5.26798 43.3671C5.12009 43.4518 4.945 43.4855 4.83424 43.5245Z" fill="#4F2205"/>
<path d="M26.4434 46.1721C26.4248 46.8996 25.7112 47.5748 24.9956 47.5424C24.2707 47.51 23.6386 46.8559 23.6406 46.1416C23.6426 45.393 24.3052 44.7402 25.054 44.7481C25.7941 44.7554 26.462 45.4399 26.4434 46.1721Z" fill="#4F2205"/>
</g>
<defs>
<clipPath id="clip0_1850_16630">
<rect width="57.6" height="51.2" fill="white" transform="translate(0.195312 0.199219)"/>
</clipPath>
</defs>
</svg>
