<svg width="61" height="60" viewBox="0 0 61 60" fill="none" xmlns="http://www.w3.org/2000/svg">
<path fill-rule="evenodd" clip-rule="evenodd" d="M44.751 1.19959C44.975 0.839945 45.3005 0.554761 45.6865 0.380076C46.0725 0.20539 46.5016 0.149045 46.9196 0.21816L57.9381 2.05673C58.4984 2.15018 58.9986 2.46223 59.3289 2.9243C59.6592 3.38638 59.7925 3.96069 59.6996 4.52102L57.8653 15.5439C57.7953 15.9617 57.603 16.3494 57.3127 16.658C57.0224 16.9666 56.6472 17.1822 56.2344 17.2776C55.8216 17.373 55.3898 17.3439 54.9936 17.194C54.5973 17.0441 54.2544 16.7801 54.0081 16.4353L51.0339 12.2782L35.7167 22.0667C35.0635 22.4847 34.2813 22.6524 33.5141 22.539C32.747 22.4256 32.0467 22.0387 31.5424 21.4496L23.001 11.4639L7.02815 19.671C6.27001 20.0609 5.38804 20.1336 4.57628 19.8732C3.76452 19.6128 3.08944 19.0406 2.69958 18.2824C2.30971 17.5243 2.23698 16.6423 2.49739 15.8306C2.75779 15.0188 3.33001 14.3437 4.08815 13.9539L22.3239 4.58102C22.9677 4.25027 23.7043 4.1465 24.4144 4.2865C25.1245 4.4265 25.7666 4.80209 26.2367 5.35244L34.611 15.1453L47.2967 7.03673L44.8239 3.57816C44.578 3.23327 44.4399 2.82326 44.4269 2.39992C44.4139 1.97657 44.5267 1.55888 44.751 1.19959ZM16.6967 22.2424L4.25958 29.3567C3.76825 29.6374 3.35971 30.0428 3.07526 30.5319C2.7908 31.021 2.64051 31.5766 2.63958 32.1424V56.7853C2.63958 58.5596 4.07958 59.9996 5.85386 59.9996H16.6967V22.2424ZM22.0539 59.9996H37.7739V30.8053L30.7067 34.3367L23.6439 21.9767C23.2872 21.3482 22.7283 20.8588 22.0581 20.5882L22.0539 59.9996ZM55.1396 59.9996H43.131V28.1267L53.7039 22.8382C54.1939 22.5935 54.7383 22.4781 55.2855 22.503C55.8326 22.5279 56.3644 22.6921 56.8302 22.9802C57.2961 23.2683 57.6805 23.6707 57.9472 24.1491C58.2139 24.6275 58.3538 25.1662 58.3539 25.7139V56.7853C58.3539 57.6378 58.0152 58.4553 57.4124 59.0581C56.8096 59.6609 55.9921 59.9996 55.1396 59.9996Z" fill="white"/>
</svg>
