<svg width="29" height="27" viewBox="0 0 29 27" fill="none" xmlns="http://www.w3.org/2000/svg">
<path opacity="0.75" d="M28.7501 26.6318C28.4548 26.6318 28.1595 26.6173 27.8642 26.6376C27.6171 26.655 27.5433 26.5739 27.5462 26.3158C27.5518 21.5322 27.5518 16.7486 27.5518 11.9649C27.5518 11.8316 27.5689 11.7156 27.6455 11.5938C27.8699 11.2285 27.4581 10.3965 27.0379 10.3414C27.0152 10.3385 26.9924 10.3414 26.9697 10.3443C26.5182 10.4429 26.1945 11.2082 26.4018 11.6373C26.5069 11.8577 26.5921 12.1041 26.24 12.2317C26.0355 12.3041 25.9361 12.4926 25.9248 12.7158C25.9191 12.8376 25.9049 12.9159 25.7516 12.9188C25.5869 12.9188 25.5642 12.8434 25.5528 12.7013C25.5301 12.3795 25.3484 12.194 25.0303 12.1766C24.7322 12.1592 24.5334 12.3505 24.4823 12.71C24.4653 12.8289 24.4653 12.913 24.3119 12.9188C24.1501 12.9246 24.1245 12.8521 24.1103 12.7071C24.0734 12.3795 23.8917 12.1708 23.5538 12.1766C23.2329 12.1853 23.0625 12.3911 23.0256 12.7013C23.0086 12.8405 22.9944 12.9217 22.8269 12.9188C22.6423 12.9159 22.6679 12.7999 22.6508 12.6781C22.6082 12.3592 22.4265 12.1708 22.1056 12.1795C21.7876 12.1853 21.6059 12.3766 21.5775 12.6984C21.5661 12.8376 21.5548 12.9188 21.3844 12.9217C21.197 12.9217 21.2169 12.8086 21.2055 12.6868C21.1885 12.51 21.1033 12.3679 20.9585 12.2664C20.5836 12.0026 20.5751 11.9707 20.8023 11.5243C20.9641 11.2024 20.4871 10.3588 20.1293 10.3385C20.1066 10.3385 20.0839 10.3472 20.0612 10.353C19.5898 10.4864 19.303 11.2024 19.5132 11.6576C19.6069 11.8606 19.7119 12.1128 19.3598 12.2288C19.1667 12.2925 19.0588 12.4578 19.0333 12.6665C19.0191 12.797 19.0503 12.9275 18.8402 12.9217C18.6215 12.9188 18.667 12.7738 18.667 12.652C18.6613 9.74996 18.6613 6.84789 18.6528 3.94582C18.6528 3.73418 18.6954 3.62691 18.9254 3.6588C19.0532 3.67619 19.1752 3.6385 19.1724 3.47615C19.1696 3.31959 19.0475 3.27901 18.9197 3.2964C18.6812 3.33409 18.6528 3.20943 18.6556 3.00648C18.667 2.44114 18.6613 1.87291 18.6556 1.30757C18.6499 0.736431 18.4228 0.194285 17.8889 0.0957134C17.7725 0.0754192 17.6817 0.0435283 17.5993 0.0116374C15.5009 -0.00575766 13.4025 0.0116374 11.3041 0.0116374C11.2984 0.0116374 11.2956 0.00873821 11.2899 0.00873821C10.6879 0.153697 10.3216 0.626262 10.316 1.33076C10.3103 1.86131 10.3074 2.39186 10.316 2.92241C10.3216 3.16304 10.316 3.35438 9.99509 3.2964C9.87299 3.27611 9.78212 3.35728 9.78496 3.48195C9.7878 3.60951 9.88435 3.6472 10.0064 3.6617C10.1143 3.67329 10.3301 3.57762 10.3018 3.78926C10.2734 4.0009 10.5005 4.29372 10.1314 4.43288C9.95533 4.49956 9.94965 4.6996 10.1229 4.74599C10.3699 4.80977 10.3245 4.96632 10.3245 5.12578C10.3245 6.72902 10.3245 8.32936 10.3245 9.93261C10.3245 10.8487 10.3245 11.7649 10.3245 12.681C10.3245 12.7999 10.3443 12.9188 10.1569 12.9217C9.99509 12.9217 9.96101 12.8579 9.95817 12.71C9.95533 12.4868 9.84459 12.3012 9.63731 12.2346C9.28521 12.1215 9.38175 11.8693 9.47545 11.6663C9.68558 11.2024 9.41582 10.5095 8.93879 10.3559C8.84224 10.324 8.77693 10.3646 8.7173 10.4226C8.62076 10.5124 8.52989 10.6081 8.43903 10.7009C8.05569 11.0952 8.0557 11.1532 8.28286 11.6692C8.35668 11.8345 8.44755 12.0693 8.19767 12.1824C7.94495 12.2983 7.79162 12.4665 7.7831 12.7506C7.78026 12.8753 7.73483 12.9188 7.61557 12.9159C7.49063 12.9159 7.42248 12.8927 7.4168 12.739C7.40829 12.3998 7.23223 12.1969 6.89717 12.1766C6.5905 12.1563 6.41445 12.336 6.3463 12.7448C6.32643 12.8608 6.30087 12.9159 6.17877 12.9188C6.05667 12.9188 5.98569 12.9043 5.97717 12.7477C5.95445 12.3998 5.7784 12.1737 5.42062 12.1795C5.08272 12.1853 4.91235 12.4056 4.88963 12.7361C4.87827 12.8782 4.83 12.9188 4.69655 12.9188C4.55173 12.9188 4.52617 12.8463 4.51766 12.7187C4.49494 12.3795 4.31321 12.1766 3.97531 12.1795C3.64024 12.1853 3.45851 12.3911 3.44432 12.7303C3.43864 12.8724 3.39037 12.9159 3.25691 12.9188C3.11209 12.9217 3.08086 12.8579 3.07518 12.7245C3.0695 12.5187 2.97296 12.3592 2.79975 12.249C2.47036 12.0432 2.44481 11.933 2.65209 11.559C2.78271 11.3213 2.76567 11.1039 2.60098 10.8893C2.08703 10.2167 1.96209 10.2138 1.41406 10.8372C1.20678 11.0749 1.16702 11.3271 1.34591 11.5909C1.41974 11.6982 1.4453 11.7997 1.4453 11.9243C1.4453 16.7312 1.4453 21.538 1.44814 26.3477C1.44814 26.5623 1.39986 26.6521 1.1727 26.6376C0.880232 26.6173 0.582083 26.6347 0.286773 26.6347C0.153315 26.6347 -1.85459e-05 26.626 -0.00569758 26.8087C-0.0113766 26.9855 0.133439 27.0029 0.272575 27.0029C0.366279 27.0029 0.462823 27.0029 0.556527 27.0029C5.1963 27.0029 9.83323 27.0029 14.473 27.0029C19.1355 27.0029 23.798 27.0029 28.4605 27.0029C28.5542 27.0029 28.6507 27.0029 28.7444 27.0029C28.875 27.0058 28.9943 26.9681 28.9971 26.8174C28.9971 26.6608 28.8779 26.6318 28.7473 26.6347L28.7501 26.6318ZM6.89717 12.5477C7.02779 12.5564 7.06754 12.6578 7.0647 12.7796C7.07322 12.9362 6.95964 12.9043 6.87162 12.9101C6.76088 12.9188 6.68989 12.8869 6.70408 12.7535C6.71544 12.6288 6.76655 12.539 6.89717 12.5477ZM5.42914 12.5419C5.58247 12.5419 5.61939 12.6607 5.62223 12.7883C5.62223 12.9391 5.50297 12.9014 5.43482 12.9101C5.31272 12.9159 5.22753 12.8927 5.24457 12.7564C5.25877 12.6433 5.29852 12.539 5.43198 12.539L5.42914 12.5419ZM3.98951 12.5477C4.12012 12.5535 4.15988 12.652 4.15988 12.7738C4.17123 12.9275 4.06333 12.9043 3.97247 12.9101C3.86741 12.9159 3.7879 12.8985 3.79926 12.7564C3.81062 12.6317 3.86173 12.5419 3.98951 12.5477ZM3.34777 13.287C4.90383 13.287 6.45705 13.2928 8.0131 13.2812C8.28002 13.2812 8.34817 13.3536 8.34249 13.6233C8.32829 14.4089 8.34249 14.4089 7.57298 14.4089C6.85458 14.4089 6.13618 14.4089 5.41778 14.4089C4.54605 14.4089 3.67432 14.4031 2.80259 14.4147C2.58394 14.4176 2.52715 14.348 2.52715 14.1306C2.52147 13.2899 2.51296 13.2899 3.34777 13.2899V13.287ZM6.57063 17.111C6.42581 17.1602 6.35766 17.3284 6.3463 17.4937C6.33779 17.6125 6.3605 17.7343 6.17309 17.7372C6.0084 17.7372 5.98853 17.6589 5.97149 17.5197C5.93458 17.2095 5.76136 17.0066 5.4405 17.0037C5.1026 17.0008 4.92655 17.2095 4.88679 17.5371C4.87259 17.6618 4.85272 17.7372 4.70506 17.7372C4.56877 17.7372 4.51766 17.6879 4.51482 17.5487C4.51482 17.2762 4.37 17.0994 4.11728 17.0182C4.04913 16.995 3.99234 16.9747 3.96111 16.8935C3.82765 16.5137 4.00938 15.8237 4.31889 15.5657C5.30704 14.7336 5.32692 14.7394 6.36334 15.4497C6.74952 15.7136 6.91137 16.0615 6.85174 16.534C6.89149 16.7892 6.87446 17.0095 6.56495 17.111H6.57063ZM6.88013 24.4517C6.45421 24.2081 6.06235 23.9907 5.67902 23.7588C5.50581 23.6544 5.36099 23.6515 5.18778 23.7588C4.80729 23.9907 4.41543 24.2052 3.98667 24.4517C3.98667 24.1038 3.98951 23.7849 3.98667 23.463C3.98667 23.3065 4.07469 23.292 4.19395 23.292C5.02025 23.292 5.84655 23.2949 6.67285 23.292C6.8205 23.292 6.88865 23.3384 6.88297 23.4978C6.8773 23.8081 6.88297 24.1154 6.88297 24.4546L6.88013 24.4517ZM6.34347 22.5353C6.44853 22.5353 6.55643 22.5411 6.66149 22.5353C6.80063 22.5266 6.88581 22.5643 6.88297 22.7325C6.88013 22.8774 6.80915 22.9122 6.68421 22.9122C5.84655 22.9122 5.01173 22.9093 4.17407 22.9122C4.03778 22.9122 3.98667 22.8571 3.98667 22.7209C3.98667 22.5788 4.05481 22.5295 4.18259 22.5382C4.26494 22.544 4.35012 22.5498 4.42963 22.5382C4.60568 22.5063 4.91519 22.6542 4.90667 22.3498C4.89815 22.0627 4.59148 22.2048 4.40975 22.1758C4.34161 22.1642 4.26778 22.1758 4.19679 22.1758C4.08889 22.1758 3.98667 22.1845 3.98383 22.0164C3.98383 21.8569 4.0463 21.8105 4.19395 21.8134C4.61704 21.8192 5.04297 21.8134 5.46605 21.8134C5.86643 21.8134 6.2668 21.8163 6.66717 21.8134C6.80631 21.8134 6.89149 21.8366 6.88581 22.0077C6.88013 22.1613 6.79779 22.1816 6.67853 22.1758C6.57347 22.1729 6.46556 22.1758 6.3605 22.1758C6.21569 22.1758 6.03964 22.1642 6.03112 22.3556C6.01976 22.5614 6.20149 22.544 6.34347 22.544V22.5353ZM4.7079 21.2597C4.70506 21.0132 4.86408 21.077 4.99185 21.0712C5.11679 21.0683 5.24741 21.0393 5.25025 21.251C5.25309 21.4974 5.09124 21.4278 4.98334 21.4394C4.83852 21.4394 4.71074 21.4713 4.7079 21.2597ZM5.61655 21.251C5.61655 21.0393 5.75001 21.0683 5.87495 21.0712C6.00272 21.0741 6.16174 21.0132 6.1589 21.2597C6.1589 21.4742 6.02828 21.4394 5.88914 21.4394C5.77556 21.4278 5.61371 21.4974 5.61655 21.251ZM6.69841 21.4481C6.56779 21.4481 6.50816 21.4075 6.50532 21.2626C6.50248 21.0944 6.57915 21.0625 6.72112 21.0625C6.86594 21.0625 6.90569 21.1379 6.89433 21.2655C6.91137 21.4162 6.82618 21.4423 6.70124 21.4452L6.69841 21.4481ZM6.63878 20.7088C6.22705 20.6972 5.81248 20.7059 5.40075 20.7059C5.01173 20.7059 4.62272 20.6972 4.2337 20.7088C4.05481 20.7146 3.98951 20.6624 3.98099 20.4682C3.95827 19.9782 4.11444 19.6129 4.55457 19.3636C5.43766 18.8592 5.4263 18.8592 6.30655 19.3607C6.74384 19.61 6.90853 19.9695 6.88581 20.4624C6.8773 20.648 6.82902 20.7146 6.64161 20.7088H6.63878ZM6.88013 19.2853C6.4826 19.0534 6.11062 18.8592 5.7642 18.6272C5.52284 18.4678 5.32124 18.4736 5.09124 18.633C4.96062 18.7229 4.82716 18.836 4.64827 18.8331C4.49778 19.0592 4.21667 19.0795 3.98667 19.3346C3.98667 18.92 3.98951 18.5982 3.98667 18.2793C3.98667 18.1286 4.06049 18.1025 4.18259 18.1025C5.02025 18.1025 5.85507 18.1054 6.69273 18.1025C6.82618 18.1025 6.88297 18.146 6.88013 18.288C6.87446 18.6069 6.88013 18.9287 6.88013 19.2824V19.2853ZM5.24173 17.5835C5.25025 17.4676 5.29852 17.3748 5.43198 17.3719C5.5626 17.3719 5.61655 17.4618 5.62507 17.5777C5.63643 17.7314 5.5342 17.7488 5.42062 17.7401C5.30704 17.7488 5.23321 17.7053 5.24173 17.5806V17.5835ZM3.60617 16.8819C3.64592 17.1631 3.4074 17.3632 3.43012 17.6415C3.43864 17.7575 3.31654 17.7314 3.23987 17.7372C3.14333 17.743 3.08654 17.7082 3.08086 17.598C3.0695 17.3023 2.93604 17.0936 2.64641 17.0182C2.51579 16.9834 2.53283 16.8877 2.53283 16.7921C2.53283 16.1919 2.53567 15.5889 2.53283 14.9888C2.53283 14.838 2.56975 14.7742 2.72876 14.7742C3.38469 14.78 4.04062 14.7742 4.77605 14.7742C4.68235 14.8612 4.65963 14.8931 4.63124 14.9076C3.81913 15.3106 3.48691 15.9774 3.61185 16.8819H3.60617ZM2.00468 26.6289C1.73493 26.6405 1.81159 26.4405 1.81159 26.3042C1.80875 23.6689 1.80875 21.0335 1.81159 18.3982C1.81159 18.2706 1.74629 18.0996 1.99332 18.1025C2.24036 18.1054 2.16937 18.2822 2.16937 18.4069C2.17221 19.7434 2.16937 21.077 2.16937 22.4135C2.16937 23.7124 2.16937 25.0141 2.16653 26.3129C2.16653 26.4347 2.25172 26.6202 2.00468 26.6289ZM1.80875 12.3418C1.80875 12.223 1.81159 12.1041 1.80875 11.9852C1.80308 11.8693 1.83999 11.8084 1.96777 11.8113C2.08135 11.8142 2.17505 11.8142 2.17221 11.9765C2.16653 12.2259 2.16653 12.4781 2.17221 12.7274C2.17505 12.8608 2.1353 12.9217 1.99332 12.9217C1.85987 12.9217 1.80024 12.8782 1.80875 12.7361C1.81727 12.6056 1.80875 12.4752 1.80875 12.3418ZM1.80875 13.4406C1.80875 13.3072 1.88258 13.2841 1.99048 13.2841C2.09839 13.2841 2.17221 13.3072 2.16937 13.4435C2.16369 13.7073 2.16369 13.9741 2.16937 14.2379C2.16937 14.3596 2.12394 14.4089 2.00468 14.4118C1.8769 14.4118 1.80024 14.3828 1.80592 14.235C1.81159 14.1016 1.80592 13.9712 1.80592 13.8378C1.80592 13.7044 1.80592 13.574 1.80592 13.4406H1.80875ZM2.16937 17.4966C2.16937 17.6154 2.18925 17.7343 2.00184 17.743C1.80024 17.7517 1.80592 17.6299 1.80592 17.4908C1.80592 16.6587 1.80592 15.8295 1.80592 14.9975C1.80592 14.8641 1.81443 14.7713 1.99048 14.7713C2.16937 14.7713 2.16937 14.8728 2.16937 15.0033C2.16937 15.4236 2.16937 15.8469 2.16937 16.2673C2.16937 16.6761 2.16937 17.0849 2.16937 17.4966ZM1.99616 11.4489C1.83147 11.4286 1.59863 11.5069 1.61283 11.2488C1.62419 11.0372 1.83147 10.8285 1.99048 10.8343C2.14382 10.84 2.35962 11.043 2.3653 11.2575C2.36814 11.5098 2.13246 11.4257 1.99616 11.4489ZM2.54135 12.5129C2.7174 12.6317 2.76283 12.7332 2.69468 12.8724C2.68333 12.8927 2.6237 12.913 2.60382 12.9014C2.45616 12.8115 2.54419 12.681 2.54135 12.5129ZM2.55271 17.3748C2.72308 17.4502 2.74012 17.5574 2.69752 17.6792C2.68333 17.7256 2.6237 17.7546 2.58394 17.7227C2.48172 17.6299 2.53283 17.511 2.55271 17.3748ZM3.26827 26.6347C2.52999 26.6173 2.52999 26.6347 2.52999 25.8839V22.3788C2.52999 21.0538 2.53567 19.7289 2.52431 18.404C2.52431 18.1692 2.58678 18.1025 2.81962 18.1025C3.61469 18.1025 3.61469 18.0938 3.61469 18.9026C3.61469 21.3611 3.60901 23.8167 3.62037 26.2752C3.62037 26.5594 3.54938 26.6434 3.26827 26.6376V26.6347ZM3.79926 17.5951C3.8021 17.4705 3.84753 17.3806 3.97531 17.3748C4.10309 17.3719 4.15988 17.4589 4.15988 17.5951C4.17123 17.7198 4.09173 17.7401 3.98383 17.7372C3.88444 17.7372 3.79358 17.7372 3.79642 17.5922L3.79926 17.5951ZM4.18259 21.0625C4.32741 21.0625 4.36716 21.135 4.35296 21.2655C4.37 21.4162 4.28481 21.4423 4.15988 21.4452C4.02926 21.4452 3.96963 21.4046 3.96679 21.2597C3.96395 21.0944 4.04062 21.0567 4.18259 21.0596V21.0625ZM4.19963 26.626C4.05765 26.626 3.98099 26.5913 3.98099 26.4289C3.98099 26.2868 4.0321 26.2376 4.16556 26.2405C4.29901 26.2405 4.40407 26.2579 4.37852 26.4318C4.39272 26.571 4.33593 26.626 4.19963 26.626ZM5.03445 26.6231C4.90667 26.6116 4.74482 26.6753 4.73914 26.4376C4.73346 26.2376 4.84988 26.2289 4.98618 26.2463C5.11395 26.2636 5.3042 26.1709 5.29568 26.4434C5.29 26.655 5.15655 26.6173 5.03445 26.6231ZM5.93457 26.6289C5.80964 26.6144 5.64494 26.6869 5.6421 26.4434C5.63927 26.2173 5.77272 26.226 5.91754 26.2318C6.04816 26.2376 6.20717 26.1825 6.21285 26.4202C6.21853 26.6463 6.08507 26.6347 5.93457 26.626V26.6289ZM6.72396 26.6202C6.60754 26.6347 6.55927 26.5768 6.56211 26.455C6.56211 26.3448 6.55359 26.2347 6.71544 26.2376C6.82902 26.2376 6.89149 26.281 6.88865 26.4028C6.88865 26.5159 6.88865 26.6289 6.72396 26.6173V26.6202ZM6.30939 25.8694C6.01408 25.8694 5.72161 25.8694 5.4263 25.8694C5.02593 25.8694 4.62556 25.8607 4.22518 25.8723C4.03778 25.8781 3.98951 25.8085 3.98099 25.6229C3.96111 25.1301 4.15988 24.817 4.56025 24.5183C5.1821 24.0603 5.71877 24.0429 6.31223 24.5328C6.50532 24.6923 6.71828 24.817 6.81767 25.0663C7.03915 25.6403 6.89717 25.8694 6.31223 25.8694H6.30939ZM6.90285 17.7372C6.81199 17.7314 6.70692 17.7575 6.70124 17.6096C6.69841 17.4908 6.72964 17.3893 6.8631 17.3777C6.99372 17.3632 7.05335 17.4444 7.07322 17.6531C7.0789 17.6908 7.02495 17.7459 6.90285 17.7372ZM6.68705 15.2352C6.49964 15.0989 6.30939 14.9685 6.0368 14.7742C6.81483 14.7742 7.49063 14.7742 8.16928 14.7742C8.32261 14.7742 8.33681 14.8583 8.33681 14.9801C8.33681 15.5831 8.33681 16.1832 8.33681 16.7863C8.33681 16.8993 8.33681 16.9863 8.19199 17.0269C7.93644 17.0965 7.80298 17.2907 7.79162 17.5574C7.78594 17.7024 7.72631 17.743 7.59569 17.7401C7.47927 17.7401 7.4594 17.6792 7.41964 17.5719C7.24643 17.1168 7.22088 16.65 7.21804 16.1716C7.2152 15.7744 7.00223 15.4671 6.68989 15.2352H6.68705ZM8.03014 26.6318C7.25211 26.626 7.25211 26.6376 7.25211 25.8433C7.25211 23.3848 7.25779 20.9292 7.24359 18.4707C7.24359 18.1663 7.32026 18.088 7.61557 18.0967C8.33397 18.117 8.33397 18.1025 8.33397 18.8273C8.33397 20.0072 8.33397 21.1872 8.33397 22.3701C8.33397 23.6834 8.32829 24.9967 8.33965 26.31C8.33965 26.5594 8.28002 26.6347 8.03014 26.6347V26.6318ZM8.26298 17.7372C8.18347 17.7372 8.14656 17.6966 8.14088 17.6328C8.13236 17.5342 8.15224 17.4357 8.25162 17.398C8.33113 17.369 8.34249 17.4473 8.33681 17.5052C8.33113 17.5893 8.3794 17.6995 8.26298 17.7401V17.7372ZM8.27718 12.8985C8.26014 12.913 8.16928 12.884 8.16076 12.8608C8.11816 12.7245 8.1494 12.6114 8.31125 12.539C8.33397 12.6781 8.3936 12.7999 8.27718 12.8985ZM9.05521 22.3382C9.05521 23.6631 9.05521 24.988 9.05521 26.3129C9.05521 26.4405 9.12335 26.6202 8.87916 26.6202C8.64064 26.6202 8.69743 26.4492 8.69743 26.3158C8.69743 23.6776 8.69743 21.0422 8.69743 18.404C8.69743 18.2764 8.62928 18.1025 8.87632 18.1025C9.12335 18.1025 9.05521 18.2764 9.05521 18.4011C9.05804 19.7144 9.05521 21.0248 9.05521 22.3382ZM9.05521 12.3882C9.05521 12.5071 9.05237 12.6259 9.05521 12.7448C9.06088 12.8608 9.02397 12.9217 8.89619 12.9188C8.78261 12.9159 8.68891 12.913 8.69175 12.7535C8.69743 12.5042 8.69743 12.2519 8.69175 12.0026C8.68891 11.8693 8.72866 11.8084 8.87064 11.8084C9.00409 11.8084 9.06372 11.8519 9.05521 11.991C9.04669 12.1215 9.05521 12.2519 9.05521 12.3853V12.3882ZM8.87348 13.2812C9.01261 13.2812 9.06088 13.342 9.05521 13.4754C9.04953 13.6088 9.05521 13.7392 9.05521 13.8726C9.05521 13.9943 9.05521 14.1132 9.05521 14.235C9.05521 14.3509 9.01829 14.4118 8.89051 14.4118C8.76841 14.4118 8.68607 14.3886 8.68891 14.235C8.69459 13.9828 8.69459 13.7305 8.68891 13.4783C8.68607 13.342 8.7315 13.2841 8.87064 13.2841L8.87348 13.2812ZM8.69459 16.2644C8.69459 15.844 8.69459 15.4207 8.69459 15.0004C8.69459 14.867 8.70027 14.7713 8.87632 14.7713C9.05521 14.7713 9.05805 14.8699 9.05805 15.0004C9.05805 15.844 9.05805 16.6877 9.05805 17.5284C9.05805 17.6415 9.05805 17.7401 8.89619 17.743C8.74002 17.743 8.69175 17.6821 8.69459 17.5313C8.70027 17.111 8.69459 16.6877 8.69459 16.2673V16.2644ZM8.88484 11.4489C8.7315 11.4315 8.5015 11.5098 8.49866 11.2633C8.49866 11.0488 8.71446 10.8458 8.87064 10.8372C9.03249 10.8285 9.23694 11.0372 9.25113 11.2459C9.27101 11.5069 9.03533 11.4286 8.88484 11.4489ZM18.3206 12.8695C18.3234 12.9188 18.2212 12.9101 18.1275 12.913C18.0224 12.9159 17.9401 12.9014 17.9514 12.7622C17.9599 12.6404 18.0025 12.5419 18.1331 12.5506C18.2581 12.5564 18.3064 12.6549 18.3206 12.8724V12.8695ZM18.312 8.49172C18.312 9.6224 18.3092 10.756 18.3149 11.8867C18.3149 12.0838 18.295 12.1795 18.0593 12.1882C17.7782 12.1969 17.6192 12.3998 17.5936 12.6868C17.5823 12.8173 17.5794 12.9188 17.4034 12.9188C17.2359 12.9188 17.2217 12.8289 17.2075 12.6926C17.1762 12.3708 16.9945 12.1824 16.6765 12.1795C16.5061 12.1795 16.4891 12.107 16.4891 11.9649C16.4891 9.65429 16.4947 7.34075 16.4891 5.03011C16.4891 4.80687 16.5799 4.77498 16.7645 4.77788C17.1762 4.78658 17.5908 4.79527 18.0025 4.77788C18.2496 4.76628 18.3234 4.84456 18.3206 5.09969C18.3064 6.23036 18.3149 7.36394 18.3149 8.49462L18.312 8.49172ZM16.8525 12.7564C16.8639 12.8927 16.7872 12.9159 16.6793 12.9101C16.5884 12.9043 16.4834 12.9217 16.4891 12.7738C16.4947 12.652 16.543 12.5709 16.6651 12.5448C16.7957 12.5535 16.844 12.6346 16.8525 12.7593V12.7564ZM17.1961 4.40099C16.915 4.40099 16.8071 4.3488 16.8156 4.02989C16.8241 3.74287 16.8724 3.62981 17.1819 3.6443C17.4517 3.6559 17.6306 3.67909 17.5397 4.0125C17.6164 4.31981 17.4886 4.40099 17.1961 4.40099ZM18.312 4.02119C18.2893 4.18645 18.3887 4.41548 18.0849 4.39809C17.7725 4.37779 17.923 4.13716 17.9088 3.9951C17.8946 3.85594 17.8151 3.6443 18.1019 3.6472C18.4171 3.6472 18.2666 3.88783 18.3092 4.02119H18.312ZM10.8469 0.719036C11.0315 0.45811 11.2842 0.321849 11.6023 0.321849C13.5246 0.321849 15.4441 0.321849 17.3665 0.321849C17.6987 0.321849 17.9599 0.461009 18.1417 0.742229C18.1928 0.820507 18.2751 0.907482 18.2325 1.00026C18.1843 1.11042 18.065 1.05244 17.9798 1.05244C16.8128 1.05534 15.6457 1.05244 14.4787 1.05244C13.323 1.05244 12.1673 1.05244 11.0116 1.05244C10.9236 1.05244 10.8043 1.10173 10.7532 1.00315C10.6936 0.892986 10.7873 0.797313 10.8469 0.713237V0.719036ZM10.6737 2.87892C10.6993 2.49623 10.6936 2.10774 10.6737 1.72505C10.6624 1.49311 10.7447 1.44673 10.9548 1.44673C13.3145 1.45253 15.6713 1.45253 18.0309 1.44673C18.2552 1.44673 18.312 1.52501 18.3064 1.73954C18.2922 2.15992 18.2865 2.5832 18.3064 3.00358C18.3177 3.25581 18.2183 3.2993 17.9997 3.2964C16.8213 3.2877 15.64 3.2906 14.4616 3.2906C13.3287 3.2906 12.1986 3.27611 11.0656 3.2993C10.7248 3.308 10.651 3.19203 10.6709 2.87892H10.6737ZM15.234 12.1795C14.916 12.1795 14.7314 12.3621 14.6917 12.681C14.6746 12.8028 14.6916 12.9159 14.5099 12.9188C14.3112 12.9246 14.3254 12.8028 14.3055 12.6665C14.2657 12.365 14.0868 12.1853 13.7858 12.1795C13.4678 12.1737 13.2804 12.365 13.2378 12.6781C13.2179 12.8202 13.2265 12.9275 13.0305 12.9188C12.8062 12.9101 12.8715 12.7506 12.8715 12.6375C12.8687 10.1095 12.8715 7.58138 12.863 5.0562C12.863 4.82426 12.9368 4.77788 13.1441 4.77788C14.0528 4.78947 14.9586 4.78947 15.8672 4.77788C16.1 4.77498 16.1341 4.86195 16.1341 5.07069C16.1256 6.33473 16.1313 7.59877 16.1313 8.86281C16.1313 10.1153 16.1313 11.3677 16.1284 12.6172C16.1284 12.7245 16.2193 12.8927 15.9921 12.9188C15.782 12.942 15.782 12.8231 15.7621 12.6665C15.7196 12.3708 15.5378 12.1853 15.2368 12.1824L15.234 12.1795ZM15.4129 12.8057C15.4214 12.9188 15.3192 12.9072 15.2255 12.9101C15.1233 12.913 15.0381 12.9014 15.0494 12.7593C15.0579 12.6375 15.1005 12.5419 15.2312 12.5448C15.3561 12.5506 15.4072 12.6462 15.4129 12.8028V12.8057ZM13.9505 12.7767C13.9676 12.9101 13.8739 12.913 13.7716 12.913C13.6751 12.913 13.5786 12.913 13.5871 12.768C13.5956 12.6462 13.6439 12.5506 13.7688 12.5477C13.8994 12.5448 13.9449 12.6433 13.9477 12.7767H13.9505ZM12.5081 8.49462C12.5081 9.62529 12.5052 10.7589 12.5109 11.8896C12.5109 12.0867 12.4939 12.1824 12.2553 12.1882C11.9771 12.1969 11.8152 12.3998 11.7897 12.6868C11.7783 12.8173 11.7726 12.9159 11.5994 12.9159C11.429 12.9159 11.4205 12.8231 11.4063 12.6897C11.3723 12.3708 11.1934 12.1795 10.8725 12.1795C10.6993 12.1795 10.6851 12.1041 10.6851 11.9649C10.6851 9.65429 10.6879 7.34075 10.6851 5.03011C10.6851 4.84456 10.739 4.77498 10.9264 4.77788C11.3637 4.78658 11.7982 4.79237 12.2355 4.77788C12.4541 4.76918 12.5166 4.84166 12.5137 5.0649C12.5024 6.21007 12.5081 7.35234 12.5081 8.49752V8.49462ZM12.5081 12.7709C12.5166 12.9188 12.4172 12.9101 12.3065 12.9101C12.2184 12.9159 12.1361 12.9014 12.1474 12.7593C12.156 12.6375 12.1986 12.539 12.3292 12.5477C12.4513 12.5535 12.5024 12.6462 12.5081 12.7709ZM11.0514 12.7796C11.0684 12.9014 10.9804 12.9159 10.8753 12.913C10.7816 12.9101 10.6794 12.9188 10.6879 12.7738C10.6936 12.652 10.7419 12.5564 10.8668 12.5506C11.0003 12.5448 11.0429 12.6433 11.0514 12.7825V12.7796ZM11.3779 4.0038C11.3637 3.67909 11.4887 3.59791 11.7698 3.6646C12.1162 3.57182 12.102 3.78926 12.1219 4.04439C12.1474 4.38069 11.9913 4.38939 11.7329 4.40388C11.4063 4.42418 11.3893 4.27342 11.3808 4.0067L11.3779 4.0038ZM12.4626 4.02409C12.4314 3.67619 12.5904 3.653 12.8658 3.6443C13.181 3.6327 13.2605 3.76027 13.1981 4.04439C13.3003 4.44157 13.0305 4.37489 12.7949 4.40099C12.4797 4.43867 12.4825 4.26762 12.4598 4.02409H12.4626ZM13.9392 4.40099C13.6666 4.39519 13.5445 4.3575 13.5558 4.03569C13.5672 3.75447 13.6041 3.62111 13.9193 3.6472C14.1692 3.66749 14.3878 3.653 14.2771 3.998C14.3537 4.31111 14.243 4.40678 13.942 4.40099H13.9392ZM14.9983 4.40099C14.6888 4.41838 14.6434 4.29662 14.6349 4.0125C14.6292 3.69939 14.7399 3.6472 15.0154 3.6443C15.3163 3.6414 15.4299 3.73418 15.3561 4.03569C15.447 4.37489 15.2567 4.38939 14.9955 4.40099H14.9983ZM16.1171 4.40099C15.8672 4.38939 15.7025 4.39229 15.7196 4.05019C15.7309 3.76027 15.765 3.61241 16.1001 3.6472C16.4635 3.68199 16.4663 3.6559 16.4692 4.05019C16.5317 4.31111 16.4209 4.41548 16.1199 4.40099H16.1171ZM10.8583 3.6559C11.1536 3.6617 11.0173 3.89943 11.0202 4.02989C11.0202 4.16035 11.1508 4.39809 10.8498 4.39229C10.5516 4.38649 10.7305 4.14586 10.6681 4.02119C10.7248 3.89073 10.5602 3.6501 10.8583 3.6559ZM10.1456 13.2841C13.1555 13.2841 16.1625 13.287 19.1724 13.2783C19.4791 13.2783 19.6069 13.3275 19.5927 13.6841C19.5643 14.406 19.5841 14.406 18.8913 14.406H14.5014C12.9311 14.406 11.3637 14.4002 9.79348 14.4118C9.51521 14.4118 9.40163 14.3625 9.41014 14.0436C9.43002 13.2841 9.41298 13.2841 10.1484 13.2841H10.1456ZM16.6765 17.0066C16.3386 17.0066 16.1597 17.2153 16.1341 17.5487C16.1256 17.685 16.0915 17.7401 15.9496 17.7401C15.8104 17.7401 15.7735 17.6879 15.765 17.5487C15.7423 17.2153 15.5634 17.0037 15.2255 17.0066C14.8876 17.0066 14.7087 17.2124 14.6888 17.5516C14.6803 17.6908 14.6292 17.7372 14.4929 17.7372C14.3481 17.7372 14.3197 17.6647 14.3083 17.54C14.2828 17.2008 14.0982 17.0008 13.7603 17.0066C13.4224 17.0124 13.2492 17.2269 13.2293 17.5603C13.2208 17.7082 13.1611 17.7401 13.0334 17.7372C12.9141 17.7372 12.8687 17.6937 12.863 17.5719C12.8431 17.2182 12.6642 16.9979 12.3093 17.0066C11.9742 17.0124 11.801 17.224 11.784 17.5632C11.7783 17.6821 11.7357 17.743 11.6136 17.7343C11.5341 17.7285 11.4262 17.7546 11.4205 17.6357C11.412 17.3748 11.3155 17.1747 11.0968 17.0327C11.0287 16.9892 11.0485 16.9022 11.0457 16.8181C11.0684 16.4384 11.2331 16.1281 11.5966 15.9745C12.5109 15.5889 13.4337 15.2265 14.3509 14.8438C14.4758 14.7916 14.5752 14.8148 14.686 14.8612C15.5719 15.2236 16.4578 15.5831 17.3438 15.9484C17.6618 16.0789 17.8606 16.3166 17.9259 16.6645C17.9599 16.85 17.9741 17.0124 17.7782 17.1342C17.6391 17.2182 17.588 17.3748 17.5851 17.54C17.5851 17.6676 17.551 17.7401 17.4034 17.7401C17.2699 17.7401 17.2131 17.6937 17.2075 17.5545C17.1904 17.2153 17.0087 17.0095 16.6736 17.0066H16.6765ZM16.8525 17.6038C16.8525 17.7459 16.756 17.7459 16.6566 17.743C16.5459 17.7517 16.4777 17.7082 16.4891 17.5806C16.5004 17.456 16.5572 17.3719 16.685 17.3777C16.8213 17.3835 16.8525 17.485 16.8525 17.6038ZM15.4129 17.5777C15.4242 17.7053 15.3561 17.7459 15.2425 17.7401C15.146 17.7401 15.0494 17.7401 15.0494 17.6009C15.0494 17.4821 15.0807 17.3864 15.2141 17.3719C15.3447 17.3777 15.4044 17.456 15.4157 17.5777H15.4129ZM13.9534 17.6154C13.9619 17.7227 13.8795 17.7459 13.7716 17.743C13.6723 17.743 13.5786 17.7343 13.5842 17.5951C13.5899 17.4734 13.641 17.3806 13.7688 17.3748C13.9023 17.369 13.9477 17.4647 13.9534 17.6154ZM12.5109 17.5893C12.5194 17.7256 12.4342 17.743 12.3292 17.743C12.2241 17.743 12.1389 17.7314 12.1474 17.5922C12.1474 17.4705 12.1929 17.3748 12.3263 17.3748C12.4541 17.3748 12.5052 17.4647 12.5137 17.5893H12.5109ZM10.8753 17.3748C11.0116 17.3748 11.0485 17.4763 11.0514 17.5951C11.0571 17.7343 10.9662 17.743 10.864 17.743C10.7589 17.743 10.6737 17.7227 10.6851 17.5864C10.6936 17.4647 10.7476 17.3748 10.8753 17.3748ZM10.5829 17.0878C10.4125 17.1979 10.3245 17.3661 10.3273 17.5719C10.3273 17.6937 10.2819 17.7401 10.1598 17.7401C10.0348 17.7401 9.95817 17.7198 9.96385 17.5661C9.97237 17.3574 9.88435 17.1458 9.70262 17.0965C9.37607 17.0066 9.41582 16.7834 9.41582 16.5427C9.4215 16.0383 9.41866 15.5338 9.41582 15.0294C9.41582 14.8844 9.41582 14.7742 9.61175 14.7742C10.8668 14.78 12.119 14.7771 13.3741 14.7771C13.3741 14.8003 13.3741 14.8264 13.3741 14.8496C12.775 15.0931 12.1758 15.3425 11.5739 15.5831C11.0258 15.8034 10.722 16.2035 10.6851 16.8036C10.6794 16.9109 10.6936 17.0153 10.58 17.0878H10.5829ZM18.136 17.3748C18.2638 17.3835 18.3092 17.4792 18.3149 17.598C18.3149 17.7401 18.2212 17.7372 18.1218 17.743C18.0082 17.7488 17.9401 17.7111 17.9457 17.5835C17.9514 17.4618 17.9997 17.369 18.1331 17.3777L18.136 17.3748ZM18.2183 16.3572C18.0962 15.9832 17.8208 15.7426 17.463 15.5947C16.8497 15.3454 16.2392 15.096 15.6259 14.8438V14.7742C16.8866 14.7742 18.1445 14.7742 19.3996 14.7742C19.5387 14.7742 19.5841 14.8351 19.5813 14.9685C19.5785 15.5831 19.5813 16.1977 19.5813 16.8123C19.5813 16.9225 19.5501 16.9863 19.4365 17.0211C19.1838 17.0965 19.0418 17.2791 19.0333 17.5487C19.0304 17.685 18.9878 17.7401 18.8487 17.7401C18.7067 17.7401 18.6613 17.685 18.6641 17.5487C18.6641 17.4792 18.6585 17.3806 18.6159 17.3458C18.312 17.0849 18.3234 16.6993 18.2127 16.3572H18.2183ZM9.49249 12.5622C9.57484 12.5767 9.61459 12.6665 9.60891 12.7419C9.61175 12.8347 9.60323 12.913 9.50669 12.9072C9.39027 12.8985 9.40447 12.797 9.40731 12.7158C9.40731 12.6491 9.39027 12.5448 9.49249 12.5622ZM9.48397 17.3951C9.58336 17.3951 9.60039 17.4937 9.61175 17.5777C9.60891 17.6473 9.61743 17.7343 9.52089 17.7401C9.39879 17.7459 9.40731 17.6444 9.40731 17.5632C9.40731 17.4966 9.38743 17.398 9.48397 17.398V17.3951ZM16.066 26.6173C15.5577 26.6058 15.0523 26.6145 14.544 26.6145C14.0244 26.6145 13.5047 26.6058 12.9879 26.6173C12.7949 26.6202 12.7182 26.571 12.7239 26.3564C12.7381 25.707 12.7324 25.0547 12.7267 24.4053C12.7267 24.2023 12.7778 24.0516 12.9965 24.0081C13.0958 23.9878 13.1725 23.9327 13.1668 23.8138C13.164 23.7327 13.1129 23.6921 13.0447 23.6544C12.6784 23.4399 12.5961 22.9934 12.917 22.6977C13.3798 22.2686 13.9534 21.9903 14.473 21.6366C14.5809 21.5612 14.6491 21.6627 14.7229 21.709C15.1431 21.9787 15.5577 22.2541 15.9751 22.5237C16.2505 22.7006 16.367 22.9557 16.3528 23.2862C16.3471 23.463 16.2988 23.5877 16.1142 23.6312C16.0063 23.6573 15.9041 23.695 15.9126 23.837C15.9183 23.9559 16.012 23.9936 16.1057 24.0139C16.3102 24.0574 16.3528 24.1994 16.3528 24.3879C16.3499 25.0373 16.3414 25.6896 16.3556 26.339C16.3613 26.5739 16.2733 26.6202 16.0688 26.6145L16.066 26.6173ZM17.0768 26.6173C16.898 26.6115 16.6964 26.6811 16.7049 26.3535C16.7247 25.7389 16.7105 25.1243 16.7105 24.5126C16.7105 24.3096 16.7333 24.098 16.5998 23.9211C16.5317 23.8312 16.5884 23.7733 16.6197 23.695C16.844 23.1499 16.6964 22.5846 16.2278 22.257C15.7423 21.9178 15.234 21.6076 14.7428 21.2771C14.5923 21.1756 14.4673 21.1872 14.3225 21.2858C13.8512 21.6018 13.3684 21.9062 12.8971 22.2251C12.386 22.573 12.2326 23.1151 12.4626 23.7066C12.4797 23.7501 12.5223 23.8023 12.5109 23.8341C12.1986 24.6372 12.403 25.4751 12.3774 26.2955C12.3661 26.6782 12.1702 26.6058 11.9515 26.6231C11.7016 26.6405 11.5767 26.6058 11.5824 26.2839C11.6051 25.2141 11.5966 24.1415 11.5909 23.0688C11.5881 22.5266 11.801 22.1207 12.2497 21.8337C12.9283 21.3959 13.6041 20.9582 14.2714 20.5088C14.4333 20.4015 14.5525 20.3986 14.7144 20.5088C15.393 20.964 16.083 21.4075 16.7673 21.854C17.1876 22.1294 17.3977 22.5208 17.3949 23.034C17.3949 23.5761 17.3949 24.1183 17.3949 24.6604C17.3949 25.2257 17.3778 25.794 17.4034 26.3593C17.4176 26.6579 17.2529 26.626 17.074 26.6231L17.0768 26.6173ZM17.9429 26.6173C17.7044 26.6173 17.764 26.4434 17.764 26.3129C17.764 25.2286 17.7583 24.1444 17.764 23.0601C17.7697 22.3875 17.4943 21.8801 16.9434 21.5206C16.2165 21.048 15.4867 20.5813 14.7683 20.1C14.5695 19.9666 14.4219 19.9724 14.226 20.1029C13.4962 20.5929 12.7551 21.0625 12.0225 21.5438C11.4944 21.8888 11.2331 22.3846 11.236 23.0282C11.2388 24.1241 11.236 25.2199 11.236 26.3187C11.236 26.4492 11.2984 26.6231 11.0571 26.6202C10.8129 26.6202 10.881 26.4405 10.881 26.3129C10.8782 24.1675 10.881 22.0222 10.8725 19.8797C10.8725 19.6361 10.9435 19.5753 11.1735 19.5782C12.2837 19.5898 13.3912 19.584 14.5014 19.584C15.6117 19.584 16.7191 19.5898 17.8293 19.5782C18.0565 19.5782 18.1303 19.639 18.1303 19.8797C18.1218 22.0251 18.1246 24.1704 18.1218 26.3129C18.1218 26.4405 18.1899 26.6202 17.9457 26.6173H17.9429ZM19.5898 26.281C19.5898 26.5565 19.5132 26.626 19.2519 26.6231C18.4852 26.6145 18.4852 26.626 18.4852 25.8578C18.4852 23.7849 18.4796 21.7119 18.4909 19.639C18.4909 19.3085 18.4001 19.2013 18.0707 19.2013C15.6855 19.2129 13.3031 19.2129 10.9179 19.2013C10.6084 19.2013 10.509 19.2969 10.5119 19.6158C10.5232 21.8076 10.5119 24.0023 10.5232 26.1941C10.5232 26.5072 10.4693 26.6376 10.1257 26.6231C9.41866 26.5942 9.41866 26.6144 9.41866 25.9013C9.41866 23.4196 9.42434 20.9379 9.41299 18.4533C9.41299 18.1692 9.48397 18.0909 9.76509 18.0938C11.3467 18.1083 12.9283 18.0996 14.5099 18.0996C16.0915 18.0996 17.6731 18.1054 19.2548 18.0938C19.516 18.0938 19.5927 18.1547 19.5927 18.4301C19.5813 21.0451 19.5813 23.6602 19.5927 26.2752L19.5898 26.281ZM19.4904 17.7401C19.3996 17.7459 19.3882 17.6647 19.3882 17.5893C19.3882 17.4995 19.4166 17.4067 19.5046 17.3922C19.604 17.3777 19.587 17.4792 19.5955 17.5458C19.5927 17.627 19.6069 17.7285 19.4933 17.7372L19.4904 17.7401ZM19.5018 12.9043C19.4592 12.9275 19.4024 12.8985 19.3967 12.8434C19.3797 12.71 19.3797 12.5767 19.5728 12.5593C19.5756 12.6868 19.6608 12.8202 19.5018 12.9043ZM25.0076 12.5477C25.1382 12.5419 25.1894 12.6346 25.1979 12.7767C25.2177 12.9014 25.1297 12.913 25.0247 12.9101C24.9338 12.9072 24.8287 12.9275 24.8344 12.7738C24.8401 12.652 24.877 12.5535 25.0076 12.5477ZM23.3777 12.7535C23.3919 12.6404 23.4345 12.539 23.568 12.539C23.7043 12.539 23.7327 12.6462 23.7526 12.7187C23.7724 12.8956 23.6872 12.913 23.5822 12.913C23.4743 12.913 23.355 12.9217 23.3777 12.7535ZM22.117 12.5448C22.2448 12.5448 22.2959 12.6404 22.2959 12.7738C22.3129 12.9159 22.2107 12.9072 22.1142 12.9072C22.0148 12.9072 21.9239 12.9072 21.9324 12.7622C21.9409 12.6375 21.9892 12.5448 22.117 12.5448ZM21.4639 13.287C23.0313 13.287 24.5959 13.2928 26.1633 13.2812C26.4132 13.2812 26.4785 13.3536 26.4757 13.603C26.4671 14.4089 26.4757 14.4089 25.6891 14.4089C24.9821 14.4089 24.275 14.4089 23.568 14.4089C22.6963 14.4089 21.8245 14.4002 20.9528 14.4147C20.7199 14.4176 20.6575 14.3509 20.6575 14.1103C20.6603 13.287 20.6518 13.287 21.4611 13.287H21.4639ZM24.7123 17.0936C24.5419 17.1544 24.471 17.3487 24.4766 17.5458C24.4823 17.6821 24.4312 17.7401 24.2921 17.7401C24.1472 17.7401 24.1189 17.6734 24.1103 17.5429C24.0848 17.2095 23.903 16.9892 23.5737 16.9863C23.2272 16.9834 23.037 17.2095 23.02 17.5603C23.0114 17.7082 22.949 17.7401 22.8212 17.7401C22.6991 17.7401 22.6537 17.685 22.6537 17.5661C22.6565 17.2762 22.5145 17.0907 22.2476 17.0037C22.188 16.9834 22.1482 16.9515 22.1255 16.8877C21.9864 16.5195 22.1681 15.8005 22.4804 15.5628C22.7843 15.3338 23.108 15.1366 23.4146 14.9134C23.5339 14.8264 23.6191 14.8438 23.7298 14.9221C23.9598 15.0902 24.1927 15.2555 24.434 15.4033C24.8514 15.6527 25.0673 16.0035 25.0019 16.5166C25.0502 16.7747 25.0161 16.9863 24.7123 17.0936ZM25.0133 24.443C24.6101 24.211 24.2239 23.9994 23.8463 23.7646C23.6532 23.6457 23.4913 23.637 23.2954 23.7588C22.9291 23.9878 22.5458 24.1936 22.1227 24.4343C22.1227 24.0806 22.1255 23.7733 22.1227 23.4659C22.1227 23.3152 22.1993 23.2891 22.3214 23.2891C23.1449 23.2891 23.9684 23.2949 24.7918 23.2891C24.9593 23.2891 25.0218 23.35 25.0161 23.5181C25.0076 23.8167 25.0161 24.1154 25.0161 24.443H25.0133ZM24.4426 22.5353C24.559 22.5353 24.6782 22.5411 24.7947 22.5353C24.9366 22.5266 25.019 22.5672 25.0133 22.7325C25.0105 22.8803 24.9366 22.9122 24.8117 22.9122C23.974 22.9122 23.1392 22.9093 22.3016 22.9122C22.1624 22.9122 22.117 22.8542 22.117 22.718C22.117 22.573 22.188 22.5295 22.3158 22.5353C22.4577 22.5411 22.5997 22.5353 22.7388 22.5353C22.8808 22.5353 23.0569 22.5498 23.0484 22.344C23.0427 22.1729 22.8893 22.1671 22.753 22.1671C22.6111 22.1671 22.4691 22.1671 22.33 22.1671C22.2192 22.1671 22.1198 22.1729 22.117 22.0077C22.117 21.8482 22.1795 21.8018 22.3271 21.8047C22.7388 21.8105 23.1506 21.8047 23.5651 21.8047C23.9769 21.8047 24.3886 21.8076 24.8032 21.8047C24.9423 21.8047 25.0275 21.8279 25.019 21.999C25.0133 22.1526 24.931 22.1729 24.8117 22.1671C24.6953 22.1642 24.576 22.1671 24.4596 22.1671C24.3205 22.1642 24.1728 22.1816 24.1643 22.3469C24.1558 22.5266 24.3063 22.5353 24.4426 22.5353ZM22.1028 21.251C22.1056 21.1118 22.1596 21.0596 22.293 21.0654C22.4123 21.0712 22.5145 21.0799 22.4861 21.2307C22.5032 21.3727 22.4634 21.4481 22.3186 21.4481C22.1766 21.4481 22.0971 21.4191 22.1 21.251H22.1028ZM22.8411 21.2655C22.8354 21.0248 22.9859 21.0712 23.1193 21.0712C23.2386 21.0712 23.3777 21.0277 23.3834 21.2452C23.3891 21.4829 23.2358 21.4365 23.1051 21.4394C22.9859 21.4336 22.8496 21.4829 22.8439 21.2655H22.8411ZM24.0138 21.4394C23.8945 21.4336 23.7554 21.48 23.7497 21.2655C23.744 21.0248 23.8974 21.0712 24.028 21.0712C24.1472 21.0712 24.2835 21.0277 24.2892 21.2452C24.2949 21.4858 24.1444 21.4365 24.0109 21.4394H24.0138ZM23.5566 20.703C23.1563 20.703 22.753 20.6972 22.3527 20.7059C22.1937 20.7088 22.1255 20.6682 22.117 20.4885C22.0886 19.984 22.2476 19.61 22.7019 19.352C23.5765 18.8563 23.5651 18.8592 24.4539 19.3636C24.9111 19.6245 25.0474 20.0101 25.019 20.5088C25.0105 20.674 24.9366 20.7059 24.7975 20.703C24.3858 20.6972 23.9712 20.703 23.5595 20.703H23.5566ZM25.0105 19.2737C24.5817 19.0273 24.1813 18.807 23.7923 18.5692C23.6305 18.4707 23.4998 18.4707 23.338 18.5692C22.9575 18.8012 22.5656 19.0186 22.1482 19.2563C22.0858 18.9113 22.1283 18.5721 22.1198 18.2358C22.1198 18.1199 22.1965 18.1054 22.2845 18.1054C23.1307 18.1054 23.9769 18.1054 24.8259 18.1054C24.931 18.1054 25.0105 18.1199 25.0076 18.259C25.0048 18.5895 25.0076 18.92 25.0076 19.2766L25.0105 19.2737ZM23.3834 17.5922C23.3806 17.4763 23.4232 17.3777 23.5509 17.3632C23.6816 17.3487 23.7327 17.4415 23.7497 17.5284C23.7611 17.6821 23.6958 17.7256 23.585 17.7256C23.4913 17.7256 23.3891 17.7285 23.3834 17.5922ZM21.7564 16.5166C21.8018 16.9196 21.603 17.2559 21.569 17.6328C21.5576 17.7546 21.4554 17.7314 21.3787 17.7343C21.285 17.7401 21.2197 17.714 21.2169 17.598C21.2055 17.2849 21.0635 17.0791 20.7569 16.9979C20.6262 16.9631 20.6688 16.8442 20.6688 16.7544C20.6688 16.1774 20.6688 15.6005 20.6688 15.0236C20.6688 14.8844 20.6575 14.7655 20.8591 14.7684C21.5264 14.7771 22.1908 14.7713 22.8581 14.7713L22.8638 14.8409C22.736 14.9279 22.6139 15.0236 22.4833 15.1018C21.9523 15.4207 21.6911 15.8962 21.7592 16.5137L21.7564 16.5166ZM20.3025 22.3875C20.3025 23.6892 20.3025 24.988 20.3025 26.2897C20.3025 26.426 20.382 26.626 20.1151 26.6202C19.8681 26.6145 19.9476 26.4289 19.9476 26.3071C19.9448 23.6834 19.9448 21.0567 19.9476 18.433C19.9476 18.3025 19.8567 18.0967 20.135 18.1083C20.4104 18.1199 20.2997 18.3286 20.2997 18.4533C20.3082 19.7666 20.3054 21.077 20.3054 22.3904L20.3025 22.3875ZM20.3025 12.3911C20.3025 12.51 20.2969 12.6288 20.3025 12.7477C20.3111 12.9014 20.223 12.9188 20.1038 12.9188C19.9845 12.9188 19.9391 12.8695 19.9391 12.7506C19.9419 12.5013 19.9448 12.249 19.9391 11.9997C19.9362 11.8664 19.9788 11.8084 20.118 11.8113C20.2543 11.8113 20.3082 11.8577 20.3025 11.9997C20.294 12.1302 20.3025 12.2606 20.3025 12.394V12.3911ZM20.1236 13.2812C20.2628 13.2812 20.3139 13.3391 20.3054 13.4754C20.2969 13.6088 20.3054 13.7392 20.3054 13.8726C20.3054 13.9943 20.2997 14.1132 20.3054 14.235C20.3139 14.3886 20.2287 14.4089 20.1038 14.4089C19.976 14.4089 19.9391 14.348 19.9419 14.2321C19.9419 13.9799 19.9448 13.7276 19.9419 13.4725C19.9419 13.3362 19.9874 13.2783 20.1265 13.2783L20.1236 13.2812ZM19.9419 15.0004C19.9419 14.8728 19.9419 14.7684 20.1208 14.7684C20.294 14.7684 20.3054 14.8612 20.3054 14.9946C20.3054 15.8382 20.3025 16.6819 20.3054 17.5226C20.3054 17.6734 20.2685 17.7401 20.1066 17.7372C19.9476 17.7372 19.9419 17.6444 19.9419 17.5255C19.9419 17.0907 19.9419 16.6587 19.9419 16.2238C19.9419 15.815 19.9419 15.4062 19.9419 14.9946V15.0004ZM20.1265 11.4489C19.9788 11.4257 19.746 11.5185 19.746 11.2604C19.746 11.043 19.959 10.8429 20.118 10.84C20.2827 10.8343 20.4843 11.0459 20.4985 11.2517C20.5155 11.504 20.2798 11.4344 20.1265 11.4518V11.4489ZM20.6802 12.5129C20.8506 12.6346 20.9017 12.7361 20.8278 12.8753C20.8165 12.8956 20.754 12.913 20.737 12.9014C20.5978 12.8086 20.6774 12.681 20.683 12.5129H20.6802ZM20.6802 17.3748C20.8591 17.4415 20.8676 17.5516 20.8364 17.6734C20.825 17.7198 20.7682 17.7546 20.7256 17.7227C20.612 17.6328 20.6717 17.5139 20.6802 17.3748ZM21.8018 26.2955C21.8018 26.5884 21.7138 26.6956 21.4383 26.6492C21.1828 26.6058 20.9074 26.7478 20.666 26.5623C20.666 23.8457 20.666 21.1292 20.6575 18.4127C20.6575 18.1547 20.7313 18.0793 20.9755 18.0996C21.2197 18.1228 21.4696 18.1112 21.7166 18.1141C21.8501 18.1953 21.7933 18.3315 21.7933 18.4417C21.7961 21.0596 21.7933 23.6776 21.8018 26.2955ZM21.9324 17.5719C21.9353 17.4444 21.9921 17.3603 22.1113 17.3545C22.2306 17.3516 22.2987 17.4328 22.2987 17.5719C22.3101 17.6821 22.2561 17.7314 22.1397 17.7285C22.0318 17.7285 21.9296 17.7314 21.9324 17.5719ZM22.5202 26.4173C22.5401 26.5739 22.4634 26.6231 22.3186 26.6231C22.1766 26.6231 22.1 26.5826 22.1028 26.4202C22.1056 26.281 22.1681 26.2318 22.2959 26.2318C22.4208 26.2318 22.5372 26.2347 22.5202 26.4173ZM23.1534 26.6087C23.02 26.6029 22.878 26.6492 22.8723 26.4347C22.8666 26.2289 22.9944 26.2289 23.125 26.2492C23.2414 26.2666 23.4203 26.168 23.4288 26.4202C23.4374 26.6695 23.2613 26.5826 23.1534 26.6116V26.6087ZM22.4038 25.8752C22.1596 25.8868 22.1198 25.7882 22.1142 25.5649C22.1 25.0779 22.3243 24.788 22.7048 24.5068C23.3067 24.0574 23.8179 24.0574 24.4284 24.5068C24.8401 24.8083 25.0445 25.1301 25.0218 25.6374C25.0133 25.8317 24.9452 25.881 24.7691 25.8752C24.3687 25.8665 23.9712 25.8723 23.5708 25.8723C23.1818 25.8723 22.7956 25.8578 22.4066 25.8781L22.4038 25.8752ZM24.0479 26.6202C23.9002 26.6289 23.7611 26.6289 23.7753 26.4057C23.7895 26.1593 23.9684 26.2608 24.0706 26.2318C24.2239 26.2318 24.346 26.2231 24.3432 26.4289C24.3432 26.6724 24.1756 26.6116 24.045 26.6202H24.0479ZM24.8571 26.6087C24.7038 26.6087 24.6953 26.5188 24.6953 26.397C24.6953 26.2579 24.7776 26.2463 24.8798 26.2434C25.0133 26.2434 25.0275 26.3303 25.0247 26.4347C25.0332 26.5536 24.9821 26.6087 24.86 26.6087H24.8571ZM24.8401 21.4481C24.6839 21.451 24.6356 21.3843 24.6413 21.2336C24.6442 21.0741 24.735 21.0625 24.8543 21.0683C24.9934 21.0509 25.0303 21.1292 25.0332 21.2626C25.0332 21.4046 24.9735 21.4481 24.8429 21.451L24.8401 21.4481ZM24.9963 17.7314C24.8798 17.7314 24.8287 17.685 24.8344 17.5632C24.8401 17.4357 24.9026 17.3719 25.0218 17.3516C25.1382 17.3748 25.1979 17.4444 25.2035 17.5719C25.2092 17.7314 25.1098 17.7285 24.9991 17.7314H24.9963ZM24.8003 15.2091C24.6214 15.0815 24.4397 14.9569 24.1813 14.7742C24.9537 14.7742 25.6295 14.7742 26.3081 14.7742C26.47 14.7742 26.4671 14.8699 26.4671 14.9859C26.4671 15.586 26.4671 16.189 26.4671 16.7892C26.4671 16.8935 26.4558 16.9718 26.3365 17.0066C26.0639 17.082 25.9276 17.282 25.9219 17.5632C25.9163 17.7111 25.851 17.743 25.7232 17.7401C25.6011 17.7401 25.5897 17.6705 25.55 17.569C25.3853 17.1371 25.3853 16.6906 25.3739 16.2354C25.3626 15.8034 25.1524 15.4584 24.8003 15.2091ZM26.1548 26.6318C25.3853 26.6173 25.3853 26.6318 25.3853 25.8346C25.3853 23.3906 25.391 20.9437 25.3796 18.4997C25.3796 18.1953 25.4307 18.0851 25.7601 18.0967C26.47 18.1257 26.47 18.1054 26.47 18.836C26.47 20.0159 26.47 21.1959 26.47 22.3759C26.47 23.6776 26.4643 24.9764 26.4757 26.2781C26.4757 26.5304 26.4416 26.6347 26.1548 26.6318ZM26.4075 17.7082C26.3649 17.7372 26.311 17.6995 26.2968 17.656C26.2542 17.5313 26.2968 17.4386 26.4529 17.34C26.4586 17.5023 26.5239 17.6212 26.4075 17.7082ZM26.4047 12.8985C26.3848 12.913 26.2968 12.884 26.2882 12.8579C26.2485 12.7361 26.2854 12.6288 26.4444 12.5158C26.4643 12.681 26.5296 12.8028 26.4047 12.8985ZM27.1884 26.3187C27.1884 26.4492 27.2508 26.6231 27.0095 26.6231C26.7653 26.6231 26.8334 26.4463 26.8334 26.3187C26.8306 25.0054 26.8334 23.6921 26.8334 22.3788C26.8334 21.0538 26.8334 19.7289 26.8334 18.404C26.8334 18.2764 26.7653 18.1025 27.0123 18.1025C27.2594 18.1025 27.1884 18.2793 27.1884 18.404C27.1912 21.0422 27.1912 23.6805 27.1884 26.3187ZM26.8278 13.8349C26.8278 13.7015 26.8278 13.5711 26.8278 13.4377C26.8249 13.3043 26.9044 13.2841 27.0123 13.2812C27.1231 13.2812 27.1941 13.313 27.1912 13.4406C27.1912 13.7044 27.1912 13.9712 27.1912 14.235C27.1912 14.3538 27.1486 14.4089 27.0265 14.4089C26.9016 14.4089 26.8221 14.3799 26.8278 14.2292C26.8334 14.0958 26.8278 13.9654 26.8278 13.832V13.8349ZM27.1884 12.3824C27.1884 12.5013 27.1827 12.6201 27.1884 12.739C27.1969 12.8869 27.1259 12.9217 26.9981 12.9188C26.8874 12.9159 26.8221 12.884 26.8249 12.7564C26.8306 12.4955 26.8306 12.2317 26.8249 11.9678C26.8249 11.8374 26.8874 11.8113 26.9981 11.8084C27.1287 11.8026 27.1969 11.8403 27.1884 11.9881C27.1799 12.1186 27.1884 12.249 27.1884 12.3824ZM27.1912 17.5255C27.1912 17.6705 27.16 17.7488 26.9953 17.743C26.8419 17.7372 26.8278 17.656 26.8278 17.5342C26.8278 16.6906 26.8278 15.8469 26.8278 15.0062C26.8278 14.8757 26.8278 14.7742 27.0066 14.7742C27.1827 14.7742 27.1912 14.867 27.1912 15.0004C27.1884 15.4352 27.1912 15.8672 27.1912 16.3021C27.1912 16.7109 27.1884 17.1197 27.1912 17.5313V17.5255ZM27.0294 11.4489C26.8618 11.4286 26.629 11.5069 26.6318 11.2575C26.6347 11.0459 26.8505 10.84 27.0066 10.8372C27.1657 10.8314 27.3729 11.0372 27.3843 11.2517C27.3985 11.5156 27.16 11.4228 27.0294 11.4518V11.4489Z" fill="#783A35" fill-opacity="0.75"/>
</svg>
