<svg width="23" height="23" viewBox="0 0 23 23" fill="none" xmlns="http://www.w3.org/2000/svg">
<mask id="path-1-inside-1_1850_11913" fill="white">
<path d="M14.5735 5.58842C13.8768 5.5883 13.2079 5.8617 12.7107 6.34977C12.2135 6.83785 11.9279 7.50159 11.9151 8.19817L11.8895 9.64192C11.888 9.71944 11.8701 9.79576 11.837 9.86588C11.8039 9.936 11.7564 9.99834 11.6975 10.0488C11.6387 10.0993 11.5698 10.1367 11.4955 10.1587C11.4211 10.1807 11.343 10.1867 11.2661 10.1763L9.83429 9.982C7.95237 9.72534 6.14837 8.85817 4.41679 7.41625C3.86954 10.4504 4.93929 12.5523 7.51787 14.1739L9.11929 15.1804C9.19544 15.2282 9.25872 15.2938 9.30361 15.3717C9.3485 15.4495 9.37363 15.5372 9.37679 15.627C9.37996 15.7168 9.36107 15.8061 9.32177 15.8869C9.28247 15.9677 9.22397 16.0377 9.15137 16.0907L7.69204 17.1568C8.56012 17.2108 9.38421 17.1723 10.068 17.0367C14.3929 16.1732 17.2685 12.919 17.2685 7.551C17.2685 7.11283 16.3399 5.58842 14.5735 5.58842ZM10.0818 8.16425C10.0978 7.28063 10.3741 6.42137 10.8761 5.69404C11.3782 4.96671 12.0836 4.40364 12.9041 4.07534C13.7247 3.74703 14.6238 3.66807 15.489 3.84835C16.3542 4.02863 17.1469 4.46013 17.768 5.08884C18.4198 5.08425 18.9744 5.24925 20.2137 4.49759C19.9075 6.00092 19.7554 6.65358 19.1018 7.551C19.1018 14.5562 14.7962 17.9625 10.4265 18.8343C7.43171 19.4319 3.07479 18.4502 1.82812 17.1467C2.46337 17.0972 5.04837 16.8194 6.54254 15.7258C5.27754 14.8917 0.246875 11.9308 3.55329 3.97142C5.10521 5.78367 6.67912 7.0175 8.27412 7.672C9.33471 8.10742 9.59596 8.09917 10.0827 8.16517"/>
</mask>
<path d="M14.5735 5.58842C13.8768 5.5883 13.2079 5.8617 12.7107 6.34977C12.2135 6.83785 11.9279 7.50159 11.9151 8.19817L11.8895 9.64192C11.888 9.71944 11.8701 9.79576 11.837 9.86588C11.8039 9.936 11.7564 9.99834 11.6975 10.0488C11.6387 10.0993 11.5698 10.1367 11.4955 10.1587C11.4211 10.1807 11.343 10.1867 11.2661 10.1763L9.83429 9.982C7.95237 9.72534 6.14837 8.85817 4.41679 7.41625C3.86954 10.4504 4.93929 12.5523 7.51787 14.1739L9.11929 15.1804C9.19544 15.2282 9.25872 15.2938 9.30361 15.3717C9.3485 15.4495 9.37363 15.5372 9.37679 15.627C9.37996 15.7168 9.36107 15.8061 9.32177 15.8869C9.28247 15.9677 9.22397 16.0377 9.15137 16.0907L7.69204 17.1568C8.56012 17.2108 9.38421 17.1723 10.068 17.0367C14.3929 16.1732 17.2685 12.919 17.2685 7.551C17.2685 7.11283 16.3399 5.58842 14.5735 5.58842ZM10.0818 8.16425C10.0978 7.28063 10.3741 6.42137 10.8761 5.69404C11.3782 4.96671 12.0836 4.40364 12.9041 4.07534C13.7247 3.74703 14.6238 3.66807 15.489 3.84835C16.3542 4.02863 17.1469 4.46013 17.768 5.08884C18.4198 5.08425 18.9744 5.24925 20.2137 4.49759C19.9075 6.00092 19.7554 6.65358 19.1018 7.551C19.1018 14.5562 14.7962 17.9625 10.4265 18.8343C7.43171 19.4319 3.07479 18.4502 1.82812 17.1467C2.46337 17.0972 5.04837 16.8194 6.54254 15.7258C5.27754 14.8917 0.246875 11.9308 3.55329 3.97142C5.10521 5.78367 6.67912 7.0175 8.27412 7.672C9.33471 8.10742 9.59596 8.09917 10.0827 8.16517" fill="white"/>
<path d="M14.5735 5.58842L14.5733 6.58842H14.5735V5.58842ZM11.9151 8.19817L10.9153 8.17989L10.9153 8.18039L11.9151 8.19817ZM11.8895 9.64192L12.8893 9.6613L12.8893 9.65969L11.8895 9.64192ZM11.2661 10.1763L11.1316 11.1673L11.1326 11.1674L11.2661 10.1763ZM9.83429 9.982L9.69916 10.9728L9.6998 10.9729L9.83429 9.982ZM4.41679 7.41625L5.0567 6.6478L3.7374 5.5492L3.43267 7.23875L4.41679 7.41625ZM7.51787 14.1739L6.98552 15.0204L6.98574 15.0206L7.51787 14.1739ZM9.11929 15.1804L8.58716 16.0271L8.5881 16.0277L9.11929 15.1804ZM9.15137 16.0907L8.56185 15.2829L8.56149 15.2832L9.15137 16.0907ZM7.69204 17.1568L7.10215 16.3493L4.86627 17.9826L7.62986 18.1548L7.69204 17.1568ZM10.068 17.0367L10.2626 18.0176L10.2638 18.0173L10.068 17.0367ZM17.768 5.08884L17.0567 5.79163L17.3532 6.09178L17.7751 6.08881L17.768 5.08884ZM20.2137 4.49759L21.1936 4.69715L21.6498 2.45702L19.6951 3.64256L20.2137 4.49759ZM19.1018 7.551L18.2934 6.96229L18.1018 7.22545V7.551H19.1018ZM10.4265 18.8343L10.2308 17.8536L10.2307 17.8536L10.4265 18.8343ZM1.82812 17.1467L1.75044 16.1497L-0.352398 16.3135L1.10544 17.8378L1.82812 17.1467ZM6.54254 15.7258L7.13315 16.5328L8.29416 15.683L7.09305 14.891L6.54254 15.7258ZM3.55329 3.97142L4.31285 3.32098L3.25419 2.08473L2.6298 3.58779L3.55329 3.97142ZM8.27412 7.672L8.65391 6.74693L8.65375 6.74686L8.27412 7.672ZM14.5736 4.58842C13.6148 4.58826 12.6943 4.9645 12.0101 5.63617L13.4113 7.06337C13.7214 6.7589 14.1387 6.58835 14.5733 6.58842L14.5736 4.58842ZM12.0101 5.63617C11.326 6.30785 10.9328 7.22128 10.9153 8.17989L12.915 8.21644C12.9229 7.7819 13.1011 7.36784 13.4113 7.06337L12.0101 5.63617ZM10.9153 8.18039L10.8896 9.62414L12.8893 9.65969L12.915 8.21594L10.9153 8.18039ZM10.8896 9.62254C10.8909 9.55911 10.9055 9.49667 10.9326 9.4393L12.7415 10.2925C12.8347 10.0949 12.885 9.87976 12.8893 9.6613L10.8896 9.62254ZM10.9326 9.4393C10.9596 9.38193 10.9985 9.33092 11.0467 9.28963L12.3484 10.808C12.5143 10.6658 12.6482 10.4901 12.7415 10.2925L10.9326 9.4393ZM11.0467 9.28963C11.0948 9.24834 11.1512 9.2177 11.212 9.19972L11.7789 11.1177C11.9885 11.0557 12.1826 10.9502 12.3484 10.808L11.0467 9.28963ZM11.212 9.19972C11.2728 9.18174 11.3368 9.17682 11.3996 9.18529L11.1326 11.1674C11.3491 11.1966 11.5694 11.1796 11.7789 11.1177L11.212 9.19972ZM11.4006 9.18542L9.96878 8.99109L9.6998 10.9729L11.1316 11.1672L11.4006 9.18542ZM9.96943 8.99117C8.31087 8.76497 6.67642 7.99657 5.0567 6.6478L3.77689 8.18471C5.62033 9.71977 7.59388 10.6857 9.69916 10.9728L9.96943 8.99117ZM3.43267 7.23875C3.1308 8.91244 3.26184 10.4156 3.89039 11.7507C4.51575 13.0791 5.58619 14.1405 6.98552 15.0204L8.05022 13.3274C6.87097 12.5858 6.11724 11.7854 5.6999 10.8989C5.28575 10.0191 5.15553 8.95423 5.40091 7.59375L3.43267 7.23875ZM6.98574 15.0206L8.58716 16.0271L9.65142 14.3338L8.05001 13.3273L6.98574 15.0206ZM8.5881 16.0277C8.5258 15.9886 8.47402 15.9349 8.43729 15.8712L10.1699 14.8722C10.0434 14.6528 9.86507 14.4677 9.65048 14.3332L8.5881 16.0277ZM8.43729 15.8712C8.40056 15.8075 8.38 15.7357 8.37741 15.6623L10.3762 15.5918C10.3673 15.3387 10.2964 15.0916 10.1699 14.8722L8.43729 15.8712ZM8.37741 15.6623C8.37482 15.5888 8.39028 15.5158 8.42243 15.4496L10.2211 16.3242C10.3319 16.0964 10.3851 15.8449 10.3762 15.5918L8.37741 15.6623ZM8.42243 15.4496C8.45458 15.3835 8.50245 15.3263 8.56185 15.2829L9.7409 16.8984C9.94549 16.7491 10.1104 16.5519 10.2211 16.3242L8.42243 15.4496ZM8.56149 15.2832L7.10215 16.3493L8.28193 17.9642L9.74126 16.8982L8.56149 15.2832ZM7.62986 18.1548C8.55916 18.2127 9.47302 18.1742 10.2626 18.0175L9.87344 16.0558C9.2954 16.1705 8.56109 16.209 7.75422 16.1587L7.62986 18.1548ZM10.2638 18.0173C12.6264 17.5456 14.6483 16.4065 16.0744 14.6034C17.4989 12.8022 18.2685 10.4156 18.2685 7.551H16.2685C16.2685 10.0544 15.6002 11.9788 14.5057 13.3627C13.4128 14.7445 11.8345 15.6642 9.87224 16.056L10.2638 18.0173ZM18.2685 7.551C18.2685 7.18016 18.1073 6.81881 17.9681 6.57051C17.8057 6.28092 17.5743 5.97116 17.2768 5.68484C16.6773 5.10801 15.7657 4.58842 14.5735 4.58842V6.58842C15.1476 6.58842 15.5835 6.83103 15.89 7.12595C16.0454 7.27551 16.1565 7.42902 16.2235 7.54848C16.3136 7.70924 16.2685 7.70276 16.2685 7.551H18.2685ZM11.0816 8.18236C11.0941 7.49546 11.3089 6.8275 11.6991 6.2621L10.0532 5.12598C9.43935 6.01523 9.10152 7.0658 9.08195 8.14615L11.0816 8.18236ZM11.6991 6.2621C12.0894 5.6967 12.6378 5.25899 13.2756 5.00378L12.5326 3.1469C11.5294 3.5483 10.667 4.23672 10.0532 5.12598L11.6991 6.2621ZM13.2756 5.00378C13.9135 4.74856 14.6124 4.68718 15.285 4.82733L15.693 2.86938C14.6352 2.64897 13.5358 2.7455 12.5326 3.1469L13.2756 5.00378ZM15.285 4.82733C15.9575 4.96747 16.5738 5.3029 17.0567 5.79163L18.4794 4.38604C17.72 3.61737 16.7508 3.0898 15.693 2.86938L15.285 4.82733ZM17.7751 6.08881C17.9357 6.08768 18.4542 6.12836 18.9112 6.06342C19.4477 5.98721 20.0236 5.78244 20.7323 5.35261L19.6951 3.64256C19.1645 3.9644 18.8435 4.05296 18.6299 4.08331C18.3368 4.12494 18.2522 4.08541 17.761 4.08886L17.7751 6.08881ZM19.2338 4.29802C18.9281 5.79929 18.807 6.25712 18.2934 6.96229L19.9101 8.13971C20.7037 7.05005 20.887 6.20255 21.1936 4.69715L19.2338 4.29802ZM18.1018 7.551C18.1018 10.836 17.0979 13.1959 15.6534 14.8305C14.1986 16.4768 12.238 17.4531 10.2308 17.8536L10.6221 19.8149C12.9847 19.3436 15.3617 18.1809 17.1521 16.1548C18.9529 14.1171 20.1018 11.2712 20.1018 7.551H18.1018ZM10.2307 17.8536C8.902 18.1188 7.20524 18.0396 5.67356 17.724C4.91457 17.5676 4.22406 17.3587 3.6651 17.1229C3.08779 16.8794 2.72561 16.6383 2.55081 16.4555L1.10544 17.8378C1.55398 18.3068 2.20391 18.6772 2.88773 18.9657C3.58991 19.2619 4.40954 19.5055 5.26996 19.6828C6.9771 20.0346 8.95617 20.1474 10.6222 19.8149L10.2307 17.8536ZM1.90581 18.1436C2.25471 18.1165 3.11294 18.0291 4.08989 17.8018C5.04614 17.5792 6.22273 17.1991 7.13315 16.5328L5.95193 14.9189C5.36818 15.3461 4.50519 15.6517 3.63659 15.8538C2.78869 16.0511 2.03679 16.1274 1.75044 16.1497L1.90581 18.1436ZM7.09305 14.891C6.43983 14.4603 5.07876 13.633 4.2117 12.042C3.37715 10.5108 2.91976 8.1032 4.47678 4.35504L2.6298 3.58779C0.880405 7.79906 1.28514 10.8516 2.45557 12.9991C3.59349 15.087 5.38025 16.1572 5.99204 16.5607L7.09305 14.891ZM2.79374 4.62186C4.41132 6.51079 6.10758 7.86389 7.8945 8.59714L8.65375 6.74686C7.25067 6.17111 5.7991 5.05655 4.31285 3.32098L2.79374 4.62186ZM7.89434 8.59708C8.4502 8.82528 8.83498 8.95332 9.1655 9.03075C9.48594 9.10582 9.75731 9.1302 9.94834 9.1561L10.2171 7.17424C9.92136 7.13414 9.81873 7.12964 9.62171 7.08348C9.43477 7.03968 9.15863 6.95414 8.65391 6.74693L7.89434 8.59708Z" fill="white" mask="url(#path-1-inside-1_1850_11913)"/>
</svg>
